<svg width="56" height="56" viewBox="0 0 56 56" fill="none" xmlns="http://www.w3.org/2000/svg">
<path d="M35.665 32.812C35.3881 33.4575 35.046 34.073 34.644 34.649C34.107 35.416 33.666 35.946 33.328 36.241C32.803 36.723 32.239 36.971 31.636 36.985C31.204 36.985 30.682 36.862 30.074 36.612C29.464 36.363 28.904 36.241 28.391 36.241C27.854 36.241 27.278 36.363 26.661 36.612C26.045 36.862 25.547 36.993 25.166 37.005C24.589 37.03 24.012 36.776 23.437 36.241C23.07 35.921 22.611 35.371 22.06 34.593C21.47 33.764 20.985 32.799 20.605 31.702C20.198 30.515 19.994 29.367 19.994 28.255C19.994 26.982 20.269 25.883 20.82 24.963C21.2368 24.2405 21.8326 23.6374 22.55 23.212C23.2575 22.7877 24.0651 22.5592 24.89 22.55C25.35 22.55 25.953 22.692 26.7 22.972C27.447 23.252 27.927 23.394 28.136 23.394C28.294 23.394 28.825 23.227 29.729 22.896C30.582 22.589 31.302 22.462 31.892 22.512C33.492 22.641 34.693 23.271 35.492 24.407C34.062 25.274 33.355 26.487 33.369 28.044C33.381 29.257 33.822 30.266 34.686 31.067C35.068 31.4325 35.5137 31.725 36.001 31.93C35.895 32.237 35.783 32.53 35.665 32.812ZM31.998 18.381C31.998 19.331 31.65 20.219 30.959 21.04C30.123 22.016 29.113 22.581 28.018 22.492C28.0037 22.3725 27.9967 22.2523 27.997 22.132C27.997 21.219 28.393 20.243 29.1 19.444C29.452 19.04 29.9 18.703 30.443 18.435C30.985 18.171 31.497 18.025 31.979 18C31.992 18.128 31.998 18.255 31.998 18.381Z" fill="white"/>
<rect x="0.5" y="0.5" width="55" height="55" rx="27.5" stroke="#525252"/>
</svg>
