<svg width="296" height="104" viewBox="0 0 296 104" fill="none" xmlns="http://www.w3.org/2000/svg">
<path d="M16.4 30H18.064L19.168 27.2H24.144L25.232 30H26.992L22.608 18.8H20.784L16.4 30ZM21.664 20.048H21.696C21.696 20.048 22.224 22.224 23.2 24.688L23.584 25.664H19.792L20.176 24.688C21.136 22.24 21.664 20.048 21.664 20.048ZM28.1281 25.808C28.1281 28.496 29.8881 30.192 32.6881 30.192C33.6001 30.192 34.3841 30 35.0241 29.68L34.3201 28.464C33.7921 28.64 33.3601 28.736 32.6881 28.736C30.9281 28.736 29.8241 27.6 29.8241 25.808C29.8241 24 30.9281 22.864 32.6881 22.864C33.3601 22.864 33.7921 22.96 34.3201 23.136L35.0241 21.92C34.3841 21.6 33.6001 21.408 32.6881 21.408C29.8881 21.408 28.1281 23.104 28.1281 25.808ZM38.6981 22.896V17.84H37.0181V30H38.6981V24.496C39.1781 23.776 40.0741 23.008 41.1941 23.008C42.3301 23.008 42.7461 23.648 42.7461 25.12V30H44.4421V25.12C44.4421 22.688 43.4661 21.408 41.4821 21.408C40.2181 21.408 39.4021 22.048 38.7301 22.912L38.6981 22.896ZM49.0445 19.792V17.888H47.1565V19.792H49.0445ZM47.2525 30H48.9485V21.6H47.2525V30ZM51.1906 25.776C51.1906 28.496 52.9506 30.192 55.6226 30.192C57.4466 30.192 58.2306 29.712 58.6306 29.424L57.9266 28.208C57.5266 28.416 56.7426 28.736 55.7186 28.736C54.1026 28.736 53.0146 27.792 52.8226 26.272H58.7106V25.648C58.7106 22.976 57.3986 21.408 55.1586 21.408C52.8386 21.408 51.1906 23.088 51.1906 25.776ZM52.8386 25.168C52.9986 23.728 53.8786 22.864 55.1586 22.864C56.3746 22.864 57.1106 23.648 57.0786 24.976L52.8386 25.168ZM60.0094 21.6L62.9374 30H65.2574L68.2654 21.6H66.6494L65.1134 25.856C64.5694 27.392 64.1534 28.88 64.1534 28.88H64.1214C64.1214 28.88 63.7374 27.392 63.1934 25.856L61.6894 21.6H60.0094ZM69.3938 25.776C69.3938 28.496 71.1538 30.192 73.8258 30.192C75.6498 30.192 76.4338 29.712 76.8338 29.424L76.1298 28.208C75.7298 28.416 74.9458 28.736 73.9218 28.736C72.3058 28.736 71.2178 27.792 71.0258 26.272H76.9138V25.648C76.9138 22.976 75.6018 21.408 73.3618 21.408C71.0418 21.408 69.3938 23.088 69.3938 25.776ZM71.0418 25.168C71.2018 23.728 72.0818 22.864 73.3618 22.864C74.5778 22.864 75.3138 23.648 75.2818 24.976L71.0418 25.168ZM86.3226 23.248C85.9066 22.032 85.0426 21.408 83.7146 21.408C82.4666 21.408 81.6026 22.16 80.8826 23.136L80.8506 23.12C80.8186 22.576 80.7226 21.984 80.5146 21.472L79.0106 21.872C79.2346 22.496 79.3306 23.264 79.3306 23.888V30H81.0266V24.496C81.5066 23.776 82.4666 23.008 83.4266 23.008C84.4826 23.008 84.8986 23.648 84.8986 25.12V30H86.5946V24.496C87.0746 23.776 88.0346 23.008 88.9946 23.008C90.0506 23.008 90.4666 23.648 90.4666 25.12V30H92.1626V25.12C92.1626 22.688 91.1866 21.408 89.2826 21.408C87.9866 21.408 87.0746 22.224 86.3546 23.248H86.3226ZM94.3313 25.776C94.3313 28.496 96.0913 30.192 98.7633 30.192C100.587 30.192 101.371 29.712 101.771 29.424L101.067 28.208C100.667 28.416 99.8833 28.736 98.8593 28.736C97.2433 28.736 96.1553 27.792 95.9633 26.272H101.851V25.648C101.851 22.976 100.539 21.408 98.2993 21.408C95.9793 21.408 94.3313 23.088 94.3313 25.776ZM95.9793 25.168C96.1393 23.728 97.0193 22.864 98.2993 22.864C99.5153 22.864 100.251 23.648 100.219 24.976L95.9793 25.168ZM105.788 23.104C105.756 22.56 105.644 21.984 105.452 21.472L103.948 21.872C104.172 22.496 104.268 23.264 104.268 23.888V30H105.964V24.496C106.444 23.776 107.324 23.008 108.444 23.008C109.58 23.008 109.996 23.648 109.996 25.12V30H111.692V25.12C111.692 22.688 110.716 21.408 108.732 21.408C107.372 21.408 106.524 22.144 105.82 23.12L105.788 23.104ZM113.386 22.864H114.906V27.456C114.906 29.248 115.546 30.192 117.482 30.192C118.362 30.192 119.05 30.048 119.29 29.888L118.954 28.592C118.842 28.64 118.33 28.736 117.802 28.736C116.65 28.736 116.57 28.224 116.57 27.216V22.864H119.29V21.6H116.57V19.568H114.906V21.6L113.386 21.84V22.864ZM120.453 29.488C121.237 29.888 122.277 30.192 123.461 30.192C125.445 30.192 126.677 29.296 126.677 27.696C126.677 25.088 122.373 25.264 122.373 23.744C122.373 23.2 122.805 22.8 123.765 22.8C124.581 22.8 125.109 22.944 125.669 23.152L126.357 21.952C125.669 21.632 124.693 21.408 123.797 21.408C122.053 21.408 120.837 22.32 120.837 23.68C120.837 26.736 125.141 26.112 125.141 27.792C125.141 28.368 124.516 28.768 123.493 28.768C122.485 28.768 121.765 28.496 121.189 28.256L120.453 29.488Z" fill="white"/>
<path d="M16 31.6H127.316V32.4H16V31.6Z" fill="white"/>
<path d="M145.57 29H144.193V23.4688C144.193 22.8086 144.209 22.2852 144.24 21.8984C144.15 21.9922 144.039 22.0957 143.906 22.209C143.777 22.3223 143.34 22.6816 142.594 23.2871L141.902 22.4141L144.422 20.4336H145.57V29ZM154.189 29H148.383V27.957L150.592 25.7363C151.244 25.0684 151.676 24.5957 151.887 24.3184C152.102 24.0371 152.258 23.7734 152.355 23.5273C152.453 23.2812 152.502 23.0176 152.502 22.7363C152.502 22.3496 152.385 22.0449 152.15 21.8223C151.92 21.5996 151.6 21.4883 151.189 21.4883C150.861 21.4883 150.543 21.5488 150.234 21.6699C149.93 21.791 149.576 22.0098 149.174 22.3262L148.43 21.418C148.906 21.0156 149.369 20.7305 149.818 20.5625C150.268 20.3945 150.746 20.3105 151.254 20.3105C152.051 20.3105 152.689 20.5195 153.17 20.9375C153.65 21.3516 153.891 21.9102 153.891 22.6133C153.891 23 153.82 23.3672 153.68 23.7148C153.543 24.0625 153.33 24.4219 153.041 24.793C152.756 25.1602 152.279 25.6582 151.611 26.2871L150.123 27.7285V27.7871H154.189V29Z" fill="white"/>
<rect x="136.5" y="12.5" width="23" height="23" rx="11.5" stroke="#C3CFD5"/>
<path d="M36 82C39.719 82 43.063 79.965 44.809 76.686L37 72L44.809 67.314C43.063 64.035 39.719 62 36 62C30.486 62 26 66.486 26 72C26 77.514 30.486 82 36 82ZM35.5 66C35.898 66.0001 36.2796 66.1583 36.5609 66.4398C36.8422 66.7213 37.0001 67.103 37 67.501C36.9999 67.899 36.8417 68.2806 36.5602 68.5619C36.2787 68.8432 35.897 69.0011 35.499 69.001C35.101 69.0009 34.7194 68.8427 34.4381 68.5612C34.1568 68.2797 33.9989 67.898 33.999 67.5C33.9991 67.102 34.1573 66.7204 34.4388 66.4391C34.7203 66.1578 35.102 65.9999 35.5 66Z" fill="#6DC1E5"/>
<path d="M79.9301 64.4101L84.1601 68.6401L83.1001 69.7001L78.8601 65.4601L77.0901 67.2301L81.3301 71.4701L80.2701 72.5301L76.0301 68.2901L74.2601 70.0601L78.5001 74.3001L77.4401 75.3601L73.2101 71.1301C70.6601 74.0001 70.3501 78.0001 72.5901 80.2101C73.1013 80.7015 73.7046 81.087 74.3653 81.3444C75.026 81.6019 75.7311 81.7261 76.4401 81.7101C78.5603 81.6616 80.5746 80.7732 82.0401 79.2401L88.0401 73.2401C90.9101 70.3701 91.3501 66.1301 89.0401 63.7901C86.7301 61.4501 82.8001 61.8601 79.9301 64.4101Z" fill="#DAA875"/>
<path d="M118.6 68.999C118.601 70.1004 118.863 71.1859 119.363 72.167C119.863 73.1482 120.588 73.9973 121.479 74.645L121.48 74.646C122.054 75.0663 122.688 75.3965 123.361 75.625L123.412 75.644C123.791 75.7677 124.18 75.8584 124.575 75.915C124.914 75.9692 125.256 75.9976 125.599 76H125.6C125.95 76 126.29 75.966 126.627 75.916L126.809 75.888C127.145 75.829 127.473 75.749 127.79 75.645L127.832 75.629C130.6 74.693 132.6 72.078 132.6 68.999C132.6 65.14 129.46 62 125.6 62C121.74 62 118.6 65.14 118.6 68.999ZM125.6 64C128.356 64 130.6 66.242 130.6 68.999H128.6C128.599 68.2038 128.283 67.4414 127.72 66.8792C127.158 66.317 126.395 66.0008 125.6 66V64ZM121.121 76.795V82L125.6 80.5L130.079 82L130.08 76.795C128.719 77.584 127.174 77.9995 125.601 77.9995C124.027 77.9995 122.482 77.584 121.121 76.795Z" fill="white"/>
<path d="M169.4 79.91L168.4 82H172.4L171.4 79.91C175.4 79.26 178.4 74.63 178.4 70C178.4 67.8783 177.557 65.8434 176.057 64.3431C174.556 62.8429 172.522 62 170.4 62C168.278 62 166.243 62.8429 164.743 64.3431C163.243 65.8434 162.4 67.8783 162.4 70C162.4 74.63 165.48 79.26 169.4 79.91ZM170.4 64.25V65.75C169.274 65.7526 168.194 66.2013 167.398 66.9977C166.601 67.7942 166.153 68.8736 166.15 70H164.65C164.653 68.4758 165.259 67.0148 166.337 65.9371C167.415 64.8593 168.876 64.2526 170.4 64.25Z" fill="#FFDBA6"/>
<path d="M224.2 70H206.2C205.935 70 205.68 70.1054 205.493 70.2929C205.305 70.4804 205.2 70.7348 205.2 71C205.2 72.7553 205.662 74.4797 206.54 75.9999C207.417 77.52 208.68 78.7823 210.2 79.66V81C210.2 81.2652 210.305 81.5196 210.493 81.7071C210.68 81.8946 210.935 82 211.2 82H219.2C219.465 82 219.72 81.8946 219.907 81.7071C220.095 81.5196 220.2 81.2652 220.2 81V79.66C221.72 78.7823 222.982 77.52 223.86 75.9999C224.738 74.4797 225.2 72.7553 225.2 71C225.2 70.7348 225.095 70.4804 224.907 70.2929C224.72 70.1054 224.465 70 224.2 70ZM212.2 69V67.93C212.201 66.7532 211.741 65.6228 210.92 64.78C210.688 64.5457 210.505 64.2677 210.381 63.9622C210.258 63.6566 210.196 63.3296 210.2 63V62H208.2V63C208.194 64.1837 208.654 65.3223 209.48 66.17C209.943 66.6383 210.202 67.2712 210.2 67.93V69H212.2ZM216.2 69V67.93C216.201 66.7532 215.741 65.6228 214.92 64.78C214.688 64.5457 214.505 64.2677 214.381 63.9622C214.258 63.6566 214.196 63.3296 214.2 63V62H212.2V63C212.199 64.1768 212.659 65.3072 213.48 66.15C213.712 66.3843 213.895 66.6623 214.018 66.9678C214.142 67.2734 214.204 67.6004 214.2 67.93V69H216.2ZM220.2 69V67.93C220.201 66.7532 219.741 65.6228 218.92 64.78C218.688 64.5457 218.505 64.2677 218.381 63.9622C218.258 63.6566 218.196 63.3296 218.2 63V62H216.2V63C216.199 64.1768 216.659 65.3072 217.48 66.15C217.712 66.3843 217.895 66.6623 218.018 66.9678C218.142 67.2734 218.204 67.6004 218.2 67.93V69H220.2Z" fill="#E56D6D"/>
<rect x="240.5" y="52.5" width="39" height="39" rx="19.5" fill="#232325" fill-opacity="0.48"/>
<path d="M265 74C265.962 73.9965 266.903 73.7152 267.71 73.19L268 73C268.161 72.8908 268.312 72.7669 268.45 72.63L268.66 72.43C268.836 72.2505 268.997 72.0565 269.14 71.85L269.2 71.77C269.362 71.5311 269.499 71.2765 269.61 71.01C269.646 70.9358 269.676 70.8589 269.7 70.78C269.783 70.5756 269.85 70.3649 269.9 70.15L269.96 69.9C269.998 69.6016 270.011 69.3006 270 69V62L267 65H263L260 62V69C260 70.3261 260.527 71.5979 261.464 72.5355C262.402 73.4732 263.674 74 265 74ZM267 67C267.198 67 267.391 67.0586 267.556 67.1685C267.72 67.2784 267.848 67.4346 267.924 67.6173C268 67.8 268.019 68.0011 267.981 68.1951C267.942 68.3891 267.847 68.5673 267.707 68.7071C267.567 68.847 267.389 68.9422 267.195 68.9808C267.001 69.0194 266.8 68.9996 266.617 68.9239C266.435 68.8482 266.278 68.72 266.169 68.5556C266.059 68.3911 266 68.1978 266 68C266 67.7348 266.105 67.4804 266.293 67.2929C266.48 67.1054 266.735 67 267 67ZM263 67C263.198 67 263.391 67.0586 263.556 67.1685C263.72 67.2784 263.848 67.4346 263.924 67.6173C264 67.8 264.019 68.0011 263.981 68.1951C263.942 68.3891 263.847 68.5673 263.707 68.7071C263.567 68.847 263.389 68.9422 263.195 68.9808C263.001 69.0194 262.8 68.9996 262.617 68.9239C262.435 68.8482 262.278 68.72 262.169 68.5556C262.059 68.3911 262 68.1978 262 68C262 67.7348 262.105 67.4804 262.293 67.2929C262.48 67.1054 262.735 67 263 67Z" fill="#F28F38"/>
<path d="M259 82V77H256V82H253V71.9C252.491 71.8261 252.005 71.6408 251.577 71.3573C251.148 71.0738 250.787 70.6991 250.52 70.26C250.197 69.7283 250.018 69.1218 250 68.5C250.018 68.0025 250.138 67.5139 250.352 67.0644C250.566 66.6149 250.869 66.2139 251.244 65.886C251.619 65.5582 252.056 65.3105 252.53 65.1581C253.004 65.0057 253.504 64.9519 254 65C254.267 65.016 254.534 64.9753 254.784 64.8805C255.034 64.7856 255.261 64.6389 255.45 64.4498C255.639 64.2608 255.786 64.0339 255.88 63.7839C255.975 63.534 256.016 63.2668 256 63C256 62.7348 256.105 62.4804 256.293 62.2929C256.48 62.1054 256.735 62 257 62C257.265 62 257.52 62.1054 257.707 62.2929C257.895 62.4804 258 62.7348 258 63C258.015 63.5294 257.922 64.0564 257.726 64.5485C257.531 65.0407 257.237 65.4877 256.862 65.8622C256.488 66.2368 256.041 66.5308 255.549 66.7265C255.056 66.9221 254.529 67.0152 254 67C252.19 67 252 68.16 252 68.51C252 68.86 252.18 70 254 70H259.09C259.237 70.8615 259.57 71.6805 260.067 72.3997C260.563 73.119 261.211 73.7211 261.964 74.164C262.717 74.6068 263.558 74.8798 264.428 74.9638C265.298 75.0477 266.176 74.9406 267 74.65V82H264V77H262V82H259Z" fill="#F28F38"/>
<rect x="240.5" y="52.5" width="39" height="39" rx="19.5" stroke="#C3CFD5"/>
</svg>
