<svg width="13" height="14" viewBox="0 0 13 14" fill="none" xmlns="http://www.w3.org/2000/svg">
<path d="M6.99992 13.6673C9.47925 13.6673 11.7086 12.3107 12.8726 10.1247L7.66659 7.00065L12.8726 3.87665C11.7086 1.69065 9.47925 0.333984 6.99992 0.333984C3.32392 0.333984 0.333252 3.32465 0.333252 7.00065C0.333252 10.6767 3.32392 13.6673 6.99992 13.6673ZM6.66659 3.00065C6.93189 3.00074 7.18629 3.10622 7.37383 3.29388C7.56137 3.48154 7.66667 3.73601 7.66659 4.00132C7.6665 4.26662 7.56102 4.52103 7.37336 4.70856C7.1857 4.8961 6.93122 5.00141 6.66592 5.00132C6.40061 5.00123 6.14621 4.89575 5.95867 4.70809C5.77114 4.52043 5.66583 4.26596 5.66592 4.00065C5.66601 3.73535 5.77148 3.48094 5.95915 3.29341C6.14681 3.10587 6.40128 3.00056 6.66659 3.00065V3.00065Z" fill="#FFDBA6"/>
</svg>
