<svg width="16" height="16" viewBox="0 0 16 16" fill="none" xmlns="http://www.w3.org/2000/svg">
<path d="M8 14.6663C8.41287 14.6669 8.81564 14.5387 9.15233 14.2998C9.48902 14.0608 9.74289 13.7229 9.87867 13.333H6.12133C6.25711 13.7229 6.51099 14.0608 6.84767 14.2998C7.18436 14.5387 7.58713 14.6669 8 14.6663V14.6663ZM12.6667 9.72368V6.66634C12.6667 4.52167 11.21 2.71501 9.23667 2.17167C9.04133 1.67967 8.564 1.33301 8 1.33301C7.436 1.33301 6.95867 1.67967 6.76333 2.17167C4.79 2.71567 3.33333 4.52167 3.33333 6.66634V9.72368L2.19533 10.8617C2.13331 10.9235 2.08411 10.9969 2.05059 11.0778C2.01707 11.1587 1.99987 11.2454 2 11.333V11.9997C2 12.1765 2.07024 12.3461 2.19526 12.4711C2.32029 12.5961 2.48986 12.6663 2.66667 12.6663H13.3333C13.5101 12.6663 13.6797 12.5961 13.8047 12.4711C13.9298 12.3461 14 12.1765 14 11.9997V11.333C14.0001 11.2454 13.9829 11.1587 13.9494 11.0778C13.9159 10.9969 13.8667 10.9235 13.8047 10.8617L12.6667 9.72368Z" fill="#E6E6E6"/>
<circle cx="12" cy="4" r="3.5" fill="#52c41a" stroke="#090E11"/>
</svg>
