<svg width="40" height="40" viewBox="0 0 40 40" fill="none" xmlns="http://www.w3.org/2000/svg">
<path fill-rule="evenodd" clip-rule="evenodd" d="M23.3539 13.6469C23.4005 13.6933 23.4374 13.7485 23.4626 13.8093C23.4878 13.87 23.5008 13.9351 23.5008 14.0009C23.5008 14.0667 23.4878 14.1318 23.4626 14.1925C23.4374 14.2533 23.4005 14.3084 23.3539 14.3549L17.7069 20.0009L23.3539 25.6469C23.4478 25.7408 23.5005 25.8681 23.5005 26.0009C23.5005 26.1337 23.4478 26.261 23.3539 26.3549C23.26 26.4488 23.1327 26.5015 22.9999 26.5015C22.8671 26.5015 22.7398 26.4488 22.6459 26.3549L16.6459 20.3549C16.5994 20.3084 16.5624 20.2533 16.5372 20.1925C16.512 20.1318 16.499 20.0667 16.499 20.0009C16.499 19.9351 16.512 19.87 16.5372 19.8093C16.5624 19.7485 16.5994 19.6933 16.6459 19.6469L22.6459 13.6469C22.6924 13.6003 22.7475 13.5634 22.8083 13.5382C22.869 13.513 22.9341 13.5 22.9999 13.5C23.0657 13.5 23.1308 13.513 23.1916 13.5382C23.2523 13.5634 23.3075 13.6003 23.3539 13.6469Z" fill="white"/>
<rect x="0.5" y="0.5" width="39" height="39" rx="19.5" stroke="#525252"/>
</svg>
