<svg width="40" height="40" viewBox="0 0 40 40" fill="none" xmlns="http://www.w3.org/2000/svg">
<path fill-rule="evenodd" clip-rule="evenodd" d="M16.6459 13.6469C16.6924 13.6003 16.7475 13.5634 16.8083 13.5382C16.869 13.513 16.9341 13.5 16.9999 13.5C17.0657 13.5 17.1308 13.513 17.1916 13.5382C17.2523 13.5634 17.3075 13.6003 17.3539 13.6469L23.3539 19.6469C23.4005 19.6933 23.4374 19.7485 23.4626 19.8093C23.4878 19.87 23.5008 19.9351 23.5008 20.0009C23.5008 20.0667 23.4878 20.1318 23.4626 20.1925C23.4374 20.2533 23.4005 20.3084 23.3539 20.3549L17.3539 26.3549C17.26 26.4488 17.1327 26.5015 16.9999 26.5015C16.8671 26.5015 16.7398 26.4488 16.6459 26.3549C16.552 26.261 16.4993 26.1337 16.4993 26.0009C16.4993 25.8681 16.552 25.7408 16.6459 25.6469L22.2929 20.0009L16.6459 14.3549C16.5994 14.3084 16.5624 14.2533 16.5372 14.1925C16.512 14.1318 16.499 14.0667 16.499 14.0009C16.499 13.9351 16.512 13.87 16.5372 13.8093C16.5624 13.7485 16.5994 13.6933 16.6459 13.6469Z" fill="white"/>
<rect x="0.5" y="0.5" width="39" height="39" rx="19.5" stroke="#525252"/>
</svg>
