<svg width="16" height="17" viewBox="0 0 16 17" fill="none" xmlns="http://www.w3.org/2000/svg">
<path d="M9.17517 15.0736L13.8916 10.3572C14.9746 9.27416 15.5704 7.80986 15.5698 6.23242C15.5698 4.6544 14.974 3.19009 13.8916 2.10763C12.8085 1.02458 11.3442 0.428843 9.76678 0.429433C8.18934 0.428843 6.72504 1.02458 5.64199 2.10763L0.927943 6.82168L2.10645 8.00019L6.8205 3.28614C7.5883 2.51834 8.63482 2.09526 9.76678 2.09585C10.8987 2.09526 11.9453 2.51834 12.7131 3.28614C13.4803 4.05335 13.9034 5.09987 13.9034 6.23242C13.9039 7.36438 13.4809 8.4109 12.7131 9.1787L7.99901 13.8927L8.58827 14.482L7.99842 13.8933L7.99665 13.8951C7.53114 14.3606 6.90476 14.6169 6.23183 14.6158C5.5589 14.6158 4.93076 14.3588 4.4623 13.8916C4.23108 13.66 4.04816 13.3848 3.92415 13.0819C3.80013 12.7791 3.7375 12.4546 3.73987 12.1273C3.73788 11.7992 3.80079 11.4738 3.92497 11.17C4.04915 10.8663 4.23216 10.59 4.46348 10.3572L9.17752 5.64317C9.25527 5.56728 9.34725 5.50749 9.44817 5.46725C9.54909 5.427 9.65696 5.40708 9.7656 5.40864C9.87462 5.40682 9.98293 5.4266 10.0843 5.46686C10.1856 5.50711 10.278 5.56703 10.356 5.64317C10.5045 5.79166 10.59 6.00674 10.59 6.23183C10.592 6.34074 10.5723 6.44897 10.5322 6.55022C10.492 6.65148 10.4321 6.74375 10.356 6.82168L5.64199 11.5357L6.8205 12.7142L11.5345 8.00019C12.0001 7.53468 12.257 6.90653 12.2564 6.23065C12.2564 5.55655 11.9995 4.92958 11.5345 4.46465C11.0696 3.99973 10.4421 3.74223 9.7656 3.74223C9.438 3.73991 9.1132 3.80256 8.80997 3.92656C8.50674 4.05056 8.23111 4.23345 7.99901 4.46465L3.28438 9.17929C2.89799 9.56623 2.59206 10.0258 2.38422 10.5316C2.17639 11.0374 2.07077 11.5793 2.07346 12.1262C2.07115 12.6728 2.17712 13.2144 2.38527 13.7198C2.59341 14.2252 2.8996 14.6844 3.28617 15.0709C3.67273 15.4573 4.13201 15.7634 4.63749 15.9714C5.14297 16.1794 5.68464 16.2852 6.23124 16.2828C6.77757 16.2862 7.31914 16.1811 7.82451 15.9735C8.32988 15.766 8.78899 15.4601 9.17517 15.0736Z" fill="white"/>
</svg>
