<svg width="14" height="14" viewBox="0 0 14 14" fill="none" xmlns="http://www.w3.org/2000/svg">
<path d="M6.99992 0.333984C3.32392 0.333984 0.333252 2.72665 0.333252 5.66732C0.333252 7.60598 1.59792 9.34465 3.66659 10.29V13.6673L7.22659 10.998C10.7979 10.902 13.6666 8.54732 13.6666 5.66732C13.6666 2.72665 10.6759 0.333984 6.99992 0.333984ZM5.33325 6.33398C5.06804 6.33398 4.81368 6.22863 4.62615 6.04109C4.43861 5.85356 4.33325 5.5992 4.33325 5.33398C4.33325 5.06877 4.43861 4.81441 4.62615 4.62688C4.81368 4.43934 5.06804 4.33398 5.33325 4.33398C5.59847 4.33398 5.85282 4.43934 6.04036 4.62688C6.2279 4.81441 6.33325 5.06877 6.33325 5.33398C6.33325 5.5992 6.2279 5.85356 6.04036 6.04109C5.85282 6.22863 5.59847 6.33398 5.33325 6.33398ZM8.66659 6.33398C8.40137 6.33398 8.14702 6.22863 7.95948 6.04109C7.77194 5.85356 7.66659 5.5992 7.66659 5.33398C7.66659 5.06877 7.77194 4.81441 7.95948 4.62688C8.14702 4.43934 8.40137 4.33398 8.66659 4.33398C8.9318 4.33398 9.18616 4.43934 9.37369 4.62688C9.56123 4.81441 9.66659 5.06877 9.66659 5.33398C9.66659 5.5992 9.56123 5.85356 9.37369 6.04109C9.18616 6.22863 8.9318 6.33398 8.66659 6.33398Z" fill="#9A9C9D"/>
</svg>
