<svg width="16" height="16" viewBox="0 0 16 16" fill="none" xmlns="http://www.w3.org/2000/svg">
<path d="M6.33337 7.99999C7.80404 7.99999 9.00004 6.80399 9.00004 5.33332C9.00004 3.86266 7.80404 2.66666 6.33337 2.66666C4.86271 2.66666 3.66671 3.86266 3.66671 5.33332C3.66671 6.80399 4.86271 7.99999 6.33337 7.99999ZM7.33337 8.66666H5.33337C3.12737 8.66666 1.33337 10.4607 1.33337 12.6667V13.3333H11.3334V12.6667C11.3334 10.4607 9.53937 8.66666 7.33337 8.66666Z" fill="#9A9C9D"/>
<path d="M11.0693 7.36533C11.4754 6.67339 11.6507 5.8702 11.57 5.072C11.4507 3.88267 10.7867 2.83133 9.70134 2.112L8.96468 3.22267C9.71068 3.71733 10.1647 4.422 10.2433 5.20533C10.2796 5.5694 10.2343 5.93697 10.1107 6.28132C9.98704 6.62567 9.78823 6.93814 9.52868 7.196L8.73401 7.99066L9.81268 8.30733C12.634 9.134 12.6667 11.9713 12.6667 12H14C14 10.8073 13.3627 8.47667 11.0693 7.36533Z" fill="#9A9C9D"/>
</svg>
