<svg width="16" height="16" viewBox="0 0 16 16" fill="none" xmlns="http://www.w3.org/2000/svg">
<path d="M12.6667 2.66665H11.3333V1.33331H10V2.66665H6V1.33331H4.66667V2.66665H3.33333C2.598 2.66665 2 3.26465 2 3.99998V13.3333C2 14.0686 2.598 14.6666 3.33333 14.6666H12.6667C13.402 14.6666 14 14.0686 14 13.3333V3.99998C14 3.26465 13.402 2.66665 12.6667 2.66665ZM9.608 12.6666L7.97533 11.808L6.34267 12.6666L6.65467 10.848L5.33333 9.56131L7.15867 9.29598L7.97533 7.64265L8.792 9.29598L10.6173 9.56131L9.29667 10.8486L9.608 12.6666ZM12.6667 5.99998H3.33333V4.66665H12.6667V5.99998Z" fill="white"/>
</svg>
