<svg width="56" height="56" viewBox="0 0 56 56" fill="none" xmlns="http://www.w3.org/2000/svg">
<path d="M28.001 18.0039C22.479 18.0039 18.002 22.4809 18.002 28.0029C18.002 32.9929 21.658 37.1289 26.439 37.8819V30.8939H23.899V28.0029H26.439V25.7999C26.439 23.2919 27.932 21.9089 30.215 21.9089C31.309 21.9089 32.455 22.1039 32.455 22.1039V24.5629H31.191C29.951 24.5629 29.563 25.3349 29.563 26.1259V28.0009H32.334L31.891 30.8919H29.563V37.8799C34.344 37.1309 38 32.9939 38 28.0029C38 22.4809 33.523 18.0039 28.001 18.0039Z" fill="white"/>
<rect x="0.5" y="0.5" width="55" height="55" rx="27.5" stroke="#525252"/>
</svg>
