<svg width="17" height="16" viewBox="0 0 17 16" fill="none" xmlns="http://www.w3.org/2000/svg">
<path d="M5 4.33334C5 5.98734 6.346 7.33334 8 7.33334C9.654 7.33334 11 5.98734 11 4.33334C11 2.67934 9.654 1.33334 8 1.33334C6.346 1.33334 5 2.67934 5 4.33334ZM13.3333 14H14V13.3333C14 10.7607 11.906 8.66668 9.33333 8.66668H6.66667C4.09333 8.66668 2 10.7607 2 13.3333V14H13.3333Z" fill="#9A9C9D"/>
<rect x="8.5" y="8" width="8" height="8" rx="4" fill="#090E11"/>
<path d="M12.2643 13.7643L12.7357 14.2357L14.9713 12L12.7357 9.76434L12.2643 10.2357L13.6953 11.6667H10.5V12.3333H13.6953L12.2643 13.7643Z" fill="#9A9C9D"/>
</svg>
