<svg width="17" height="16" viewBox="0 0 17 16" fill="none" xmlns="http://www.w3.org/2000/svg">
<path d="M5.5 4.33334C5.5 5.98734 6.846 7.33334 8.5 7.33334C10.154 7.33334 11.5 5.98734 11.5 4.33334C11.5 2.67934 10.154 1.33334 8.5 1.33334C6.846 1.33334 5.5 2.67934 5.5 4.33334ZM13.8333 14H14.5V13.3333C14.5 10.7607 12.406 8.66668 9.83333 8.66668H7.16667C4.59333 8.66668 2.5 10.7607 2.5 13.3333V14H13.8333Z" fill="#9A9C9D"/>
<rect x="9" y="8" width="8" height="8" rx="4" fill="#090E11"/>
<path d="M13.707 10.2357L13.2356 9.76435L11 12L13.2356 14.2357L13.707 13.7644L12.276 12.3334L15.4713 12.3334L15.4713 11.6667L12.276 11.6667L13.707 10.2357Z" fill="#9A9C9D"/>
</svg>
