<?xml version="1.0" encoding="UTF-8" standalone="no"?>
<svg
   xmlns:dc="http://purl.org/dc/elements/1.1/"
   xmlns:cc="http://creativecommons.org/ns#"
   xmlns:rdf="http://www.w3.org/1999/02/22-rdf-syntax-ns#"
   xmlns:svg="http://www.w3.org/2000/svg"
   xmlns="http://www.w3.org/2000/svg"
   xmlns:sodipodi="http://sodipodi.sourceforge.net/DTD/sodipodi-0.dtd"
   xmlns:inkscape="http://www.inkscape.org/namespaces/inkscape"
   inkscape:version="1.0 (4035a4f, 2020-05-01)"
   sodipodi:docname="fullscreen.svg"
   xml:space="preserve"
   style="enable-background:new 0 0 384.97 384.97;"
   viewBox="0 0 384.97 384.97"
   y="0px"
   x="0px"
   width="63px"
   height="66px"
   id="Capa_1"
   version="1.1"><metadata
   id="metadata887"><rdf:RDF><cc:Work
       rdf:about=""><dc:format>image/svg+xml</dc:format><dc:type
         rdf:resource="http://purl.org/dc/dcmitype/StillImage" /></cc:Work></rdf:RDF></metadata><defs
   id="defs885" /><sodipodi:namedview
   inkscape:current-layer="Capa_1"
   inkscape:window-maximized="0"
   inkscape:window-y="0"
   inkscape:window-x="0"
   inkscape:cy="194.45865"
   inkscape:cx="179.77913"
   inkscape:zoom="0.84915266"
   showgrid="false"
   id="namedview883"
   inkscape:window-height="900"
   inkscape:window-width="1440"
   inkscape:pageshadow="2"
   inkscape:pageopacity="0"
   guidetolerance="10"
   gridtolerance="10"
   objecttolerance="10"
   borderopacity="1"
   bordercolor="#666666"
   pagecolor="#ffffff" />
<circle
   r="189.60078"
   cy="191.95605"
   cx="193.13371"
   id="path889"
   style="fill:#232323;fill-opacity:1;stroke:none;stroke-width:1.42794;stroke-miterlimit:10" /><g
   transform="matrix(0.44024311,0,0,0.44024311,108.3935,107.21586)"
   style="fill:#ffffff"
   id="g850">
	<g
   style="fill:#ffffff"
   id="Fullscreen_1_">
		<path
   style="fill:#ffffff"
   id="path833"
   d="m 372.939,216.545 c -6.123,0 -12.03,5.269 -12.03,12.03 V 360.908 H 24.061 V 24.061 h 132.333 c 6.388,0 12.03,-5.642 12.03,-12.03 C 168.424,5.643 162.409,0 156.394,0 H 24.061 C 10.767,0 0,10.767 0,24.061 v 336.848 c 0,13.293 10.767,24.061 24.061,24.061 h 336.848 c 13.293,0 24.061,-10.767 24.061,-24.061 V 228.395 c 0,-6.664 -4.885,-11.85 -12.031,-11.85 z" />
		<path
   style="fill:#ffffff"
   id="path835"
   d="M 372.939,0 H 252.636 c -6.641,0 -12.03,5.39 -12.03,12.03 0,6.64 5.39,12.03 12.03,12.03 h 91.382 L 99.635,268.432 c -4.668,4.668 -4.668,12.235 0,16.903 4.668,4.668 12.235,4.668 16.891,0 L 360.909,40.951 v 91.382 c 0,6.641 5.39,12.03 12.03,12.03 6.64,0 12.03,-5.39 12.03,-12.03 V 12.03 v 0 C 384.97,5.558 379.412,0 372.939,0 Z" />
	</g>
	<g
   style="fill:#ffffff"
   id="g838">
	</g>
	<g
   style="fill:#ffffff"
   id="g840">
	</g>
	<g
   style="fill:#ffffff"
   id="g842">
	</g>
	<g
   style="fill:#ffffff"
   id="g844">
	</g>
	<g
   style="fill:#ffffff"
   id="g846">
	</g>
	<g
   style="fill:#ffffff"
   id="g848">
	</g>
</g>
<g
   id="g852">
</g>
<g
   id="g854">
</g>
<g
   id="g856">
</g>
<g
   id="g858">
</g>
<g
   id="g860">
</g>
<g
   id="g862">
</g>
<g
   id="g864">
</g>
<g
   id="g866">
</g>
<g
   id="g868">
</g>
<g
   id="g870">
</g>
<g
   id="g872">
</g>
<g
   id="g874">
</g>
<g
   id="g876">
</g>
<g
   id="g878">
</g>
<g
   id="g880">
</g>
</svg>
