<svg width="56" height="56" viewBox="0 0 56 56" fill="none" xmlns="http://www.w3.org/2000/svg">
<path d="M36.283 26.3559H27.956V29.8069H32.748C32.302 31.9999 30.435 33.2599 27.956 33.2599C27.2623 33.2611 26.5753 33.1253 25.9342 32.8604C25.2931 32.5955 24.7106 32.2066 24.2202 31.716C23.7297 31.2255 23.341 30.6429 23.0762 30.0018C22.8113 29.3607 22.6757 28.6736 22.677 27.9799C22.6758 27.2863 22.8116 26.5993 23.0764 25.9583C23.3413 25.3173 23.7301 24.7349 24.2206 24.2445C24.711 23.754 25.2934 23.3652 25.9344 23.1003C26.5754 22.8355 27.2624 22.6997 27.956 22.7009C29.215 22.7009 30.353 23.1479 31.246 23.8789L33.846 21.2799C32.262 19.8989 30.231 19.0469 27.956 19.0469C26.7818 19.0435 25.6185 19.2722 24.5331 19.72C23.4476 20.1677 22.4614 20.8257 21.6311 21.656C20.8008 22.4863 20.1428 23.4725 19.6951 24.558C19.2473 25.6434 19.0186 26.8067 19.022 27.9809C19.0184 29.1551 19.2471 30.3185 19.6948 31.404C20.1425 32.4896 20.8005 33.4758 21.6308 34.3062C22.4611 35.1365 23.4474 35.7944 24.5329 36.2421C25.6184 36.6898 26.7818 36.9185 27.956 36.9149C32.423 36.9149 36.485 33.6659 36.485 27.9809C36.485 27.4529 36.404 26.8839 36.283 26.3559Z" fill="white"/>
<rect x="0.5" y="0.5" width="55" height="55" rx="27.5" stroke="#525252"/>
</svg>
