<svg width="14" height="14" viewBox="0 0 14 14" fill="none" xmlns="http://www.w3.org/2000/svg">
<path d="M4.38192 7.12801L1.80792 4.55401C0.794585 5.65868 0.410585 6.76534 0.403919 6.78801L0.333252 6.99868L0.403252 7.20934C0.417919 7.25401 1.94725 11.6653 7.03592 11.6653C7.65525 11.6653 8.21925 11.5973 8.73725 11.4833L6.90659 9.65268C6.24744 9.62036 5.62389 9.344 5.15724 8.87736C4.6906 8.41071 4.41423 7.78716 4.38192 7.12801ZM7.03592 2.33201C5.79925 2.33201 4.78592 2.60134 3.94125 2.99734L1.47125 0.527344L0.528585 1.47001L12.5286 13.47L13.4713 12.5273L11.2726 10.3287C13.0313 9.02668 13.6586 7.23734 13.6679 7.20934L13.7379 6.99868L13.6679 6.78801C13.6533 6.74334 12.1246 2.33201 7.03592 2.33201ZM8.30659 7.36268C8.43125 6.91134 8.32525 6.40334 7.97859 6.05601C7.63192 5.70868 7.12325 5.60334 6.67192 5.72801L5.66659 4.72268C6.07856 4.46933 6.55228 4.33418 7.03592 4.33201C8.50659 4.33201 9.70259 5.52801 9.70259 6.99868C9.70061 7.48222 9.56519 7.95584 9.31125 8.36734L8.30659 7.36268Z" fill="white"/>
</svg>
