<svg width="16" height="17" viewBox="0 0 16 17" fill="none" xmlns="http://www.w3.org/2000/svg">
<path d="M6.3335 8.50008C7.80416 8.50008 9.00016 7.30408 9.00016 5.83341C9.00016 4.36275 7.80416 3.16675 6.3335 3.16675C4.86283 3.16675 3.66683 4.36275 3.66683 5.83341C3.66683 7.30408 4.86283 8.50008 6.3335 8.50008ZM7.3335 9.16675H5.3335C3.1275 9.16675 1.3335 10.9607 1.3335 13.1667V13.8334H11.3335V13.1667C11.3335 10.9607 9.5395 9.16675 7.3335 9.16675Z" fill="white"/>
<path d="M11.0692 7.86539C11.4753 7.17345 11.6506 6.37027 11.5699 5.57206C11.4506 4.38273 10.7866 3.33139 9.70122 2.61206L8.96455 3.72273C9.71055 4.21739 10.1646 4.92206 10.2432 5.70539C10.2795 6.06946 10.2342 6.43703 10.1105 6.78138C9.98692 7.12573 9.7881 7.4382 9.52855 7.69606L8.73389 8.49073L9.81255 8.80739C12.6339 9.63406 12.6666 12.4714 12.6666 12.5001H13.9999C13.9999 11.3074 13.3626 8.97673 11.0692 7.86539Z" fill="white"/>
</svg>
