<svg xmlns="http://www.w3.org/2000/svg" width="18.695" height="16.288" viewBox="0 0 18.695 16.288">
  <g id="remove-friend" transform="translate(-32.182 -36.706)">
    <path id="Path_303" data-name="Path 303" d="M263.109,73.185a3.315,3.315,0,0,1-5.469.019c-1.405,1.19-2.237,3.02-1.124,3.739a7.526,7.526,0,0,0,3.972,1.031,7.182,7.182,0,0,0,3.676-.913C265.278,76.379,264.633,74.423,263.109,73.185Z" transform="translate(-222.814 -25.48)" fill="none" stroke="#ec6363" stroke-width="1"/>
    <path id="Path_304" data-name="Path 304" d="M255.225,61.866A4.865,4.865,0,1,0,260.09,57,4.865,4.865,0,0,0,255.225,61.866Z" transform="translate(-222.543 -19.795)" fill="none" stroke="#ec6363" stroke-width="1"/>
    <g id="Group_540" data-name="Group 540" transform="translate(47.491 40.152) rotate(45)">
      <line id="Line_2" data-name="Line 2" x1="3.375" y2="3.375" transform="translate(0 0)" fill="none" stroke="#ec6363" stroke-linecap="round" stroke-width="1"/>
    </g>
  </g>
</svg>
