<svg xmlns="http://www.w3.org/2000/svg" width="45.408" height="47.337" viewBox="0 0 45.408 47.337">
  <g id="Group_512" data-name="Group 512" transform="translate(-968.284 -779.681)">
    <g id="Group_351" data-name="Group 351" transform="translate(968.784 790.645)">
      <path id="Path_163" data-name="Path 163" d="M269.8,73.185c-1.525,1.293-2.829,2.718-5.33,2.718s-3.771-1.411-5.287-2.683c-2.728,2.23-4.343,5.662-2.182,7.01a15.016,15.016,0,0,0,7.712,1.932,14.34,14.34,0,0,0,7.138-1.712C274.013,79.173,272.76,75.505,269.8,73.185Z" transform="translate(-255.058 -52.583)" fill="#ec6363"/>
      <path id="Subtraction_3" data-name="Subtraction 3" d="M0,9.121a9.271,9.271,0,0,0,9.413,9.121,9.271,9.271,0,0,0,9.413-9.121A9.271,9.271,0,0,0,9.413,0,9.271,9.271,0,0,0,0,9.121Z" transform="translate(0 0)" fill="#ec6363" stroke="rgba(0,0,0,0)" stroke-width="1"/>
    </g>
    <path id="Path_292" data-name="Path 292" d="M22.185,47.337H21.26a.738.738,0,0,0-.165-.079q-4.452-.89-8.9-1.777c-3.525-.705-7.051-1.406-10.573-2.126A1.923,1.923,0,0,1,0,41.349q0-19.6,0-39.2A2,2,0,0,1,2.129,0Q17.8,0,33.465,0A1.941,1.941,0,0,1,35.493,2.04c.006,1.479-.051-.678-.063,1.772a23.276,23.276,0,0,1-3.894.092c0-3.02,0,3.626,0,.606V3.99H15.83a.956.956,0,0,0,.369.178L21.934,5.9a2.031,2.031,0,0,1,1.728,2.306q0,15.3,0,30.6v.6h7.846c.011-.107.025-.183.025-.258,0-1.695-.013,1.654.007.19,0-.189,3.954-.436,3.954.045,0,3.868,0-1.931,0,1.936a2.329,2.329,0,0,1-.062.592,1.987,1.987,0,0,1-2.164,1.49q-4.506.008-9.013,0h-.593c0,.692,0,1.335,0,1.978a1.806,1.806,0,0,1-.64,1.427,6.6,6.6,0,0,1-.836.53" transform="translate(1013.692 827.019) rotate(180)" fill="#ec6363"/>
  </g>
</svg>
