<svg id="Group_274" data-name="Group 274" xmlns="http://www.w3.org/2000/svg" width="49.975" height="57.664" viewBox="0 0 49.975 57.664">
  <path id="Path_94" data-name="Path 94" d="M461.794-396.223c-4.736,4.011-7.542,10.185-3.789,12.609a25.384,25.384,0,0,0,13.4,3.477,24.23,24.23,0,0,0,12.4-3.079c3.752-2.3,1.576-8.9-3.562-13.071-2.651,2.324-4.913,4.89-9.259,4.89S464.43-393.935,461.794-396.223Z" transform="translate(-445.989 437.8)" fill="#fff"/>
  <path id="Path_95" data-name="Path 95" d="M484.556-414.67h-17.3a16.339,16.339,0,0,0-16.338,16.338h0a16.232,16.232,0,0,0,2.643,8.89l-2.508,8.338,8.838-2.658a16.174,16.174,0,0,0,4.429,1.492,16.443,16.443,0,0,0,2.937.277h17.3a16.433,16.433,0,0,0,3.066-.3,16.337,16.337,0,0,0,13.272-16.042h0A16.338,16.338,0,0,0,484.556-414.67Zm-4.138,22.431H461.2v-3.844h19.221Zm10.2-7.689H461.2v-3.844h29.422Z" transform="translate(-450.919 414.67)" fill="#fff"/>
</svg>
