<svg id="Group_294" data-name="Group 294" xmlns="http://www.w3.org/2000/svg" xmlns:xlink="http://www.w3.org/1999/xlink" width="33.504" height="25.363" viewBox="0 0 33.504 25.363">
  <defs>
    <clipPath id="clip-path">
      <rect id="Rectangle_91" data-name="Rectangle 91" width="33.504" height="25.363" fill="#fff"/>
    </clipPath>
  </defs>
  <g id="Group_293" data-name="Group 293" clip-path="url(#clip-path)">
    <path id="Path_150" data-name="Path 150" d="M157.708,13.127a3.072,3.072,0,0,1-1.768,1.911q-9.24,4.96-18.45,9.974a2.358,2.358,0,0,1-3.236-.715,2.216,2.216,0,0,1-.158-2.14l2.882-6.928c.166-.4.347-.794.492-1.2a.421.421,0,0,1,.477-.313c2.315.01,4.629.007,6.944,0a1.871,1.871,0,0,0,.5-.043,1.023,1.023,0,0,0-.323-2.005c-2.351-.006-4.7-.01-7.053.005a.517.517,0,0,1-.574-.385C136.335,8.6,135.2,5.916,134.1,3.225A2.283,2.283,0,0,1,135.617.08a2.381,2.381,0,0,1,1.839.282c2.071,1.128,4.15,2.243,6.224,3.365,4.1,2.215,8.185,4.443,12.293,6.637a3.036,3.036,0,0,1,1.735,1.895Z" transform="translate(-124.204 0)" fill="#fff"/>
    <path id="Path_151" data-name="Path 151" d="M0,134.542c.313-.851.535-1,1.467-1q3.526,0,7.053,0a2.293,2.293,0,0,1,.432.025,1.065,1.065,0,0,1,.878,1.115,1.035,1.035,0,0,1-1.045.952c-1.483.009-2.966,0-4.449,0H1.442C.5,135.636.3,135.5,0,134.615Z" transform="translate(0 -123.876)" fill="#fff"/>
    <path id="Path_152" data-name="Path 152" d="M49.329,188.277c.712,0,1.423-.006,2.135,0a1.048,1.048,0,0,1,1.105,1.04,1.07,1.07,0,0,1-1.111,1.05q-2.135.014-4.269,0a1.058,1.058,0,0,1-1.118-1.074,1.042,1.042,0,0,1,1.124-1.017c.711-.006,1.423,0,2.135,0" transform="translate(-42.737 -174.651)" fill="#fff"/>
  </g>
</svg>
