<svg xmlns="http://www.w3.org/2000/svg" xmlns:xlink="http://www.w3.org/1999/xlink" width="18.844" height="18.846" viewBox="0 0 18.844 18.846">
  <defs>
    <clipPath id="clip-path">
      <rect id="Rectangle_87" data-name="Rectangle 87" width="18.844" height="18.845" fill="#fff"/>
    </clipPath>
  </defs>
  <g id="Group_286" data-name="Group 286" clip-path="url(#clip-path)">
    <path id="Path_146" data-name="Path 146" d="M124.291,2.9c-.031.123-.06.246-.095.368a2.713,2.713,0,0,1-.726,1.2q-4.353,4.35-8.707,8.7a1.243,1.243,0,0,1-.457.29q-1.909.652-3.827,1.274a1.048,1.048,0,0,1-.519.036.644.644,0,0,1-.441-.843q.663-2.021,1.347-4.036a.956.956,0,0,1,.235-.345Q115.468,5.168,119.838.8a2.588,2.588,0,0,1,4.325.972c.052.155.086.316.128.474Z" transform="translate(-105.447 0)" fill="#fff"/>
    <path id="Path_147" data-name="Path 147" d="M1.73,53.651c-.1-.029-.21-.056-.314-.089A2.012,2.012,0,0,1,0,51.659Q0,44.9,0,38.151a2,2,0,0,1,2.057-2c2.656-.014,5.311-.006,7.967,0a.69.69,0,0,1,.712.473.647.647,0,0,1-.267.756.916.916,0,0,1-.414.116c-.38.016-.76.006-1.141.006q-3.376,0-6.752,0a1.194,1.194,0,0,0-.477.1.575.575,0,0,0-.329.516c0,.043,0,.086,0,.129q0,6.653,0,13.305a.659.659,0,0,0,.476.718A1,1,0,0,0,2.1,52.3q5.97,0,11.941,0a.67.67,0,0,0,.756-.758q0-3.276,0-6.551a.684.684,0,0,1,.673-.759.673.673,0,0,1,.679.618c.006.061,0,.123,0,.184,0,2.165-.013,4.331.005,6.5a2.048,2.048,0,0,1-1.688,2.1c-.016,0-.03.019-.045.029Z" transform="translate(0 -34.806)" fill="#fff"/>
  </g>
</svg>
