<svg width="14" height="14" viewBox="0 0 14 14" fill="none" xmlns="http://www.w3.org/2000/svg">
<path d="M7.00004 0.333984C3.32404 0.333984 0.333374 2.72665 0.333374 5.66732C0.333374 7.60598 1.59804 9.34465 3.66671 10.29V13.6673L7.22671 10.998C10.798 10.902 13.6667 8.54732 13.6667 5.66732C13.6667 2.72665 10.676 0.333984 7.00004 0.333984ZM5.33337 6.33398C5.06816 6.33398 4.8138 6.22863 4.62627 6.04109C4.43873 5.85356 4.33337 5.5992 4.33337 5.33398C4.33337 5.06877 4.43873 4.81441 4.62627 4.62688C4.8138 4.43934 5.06816 4.33398 5.33337 4.33398C5.59859 4.33398 5.85294 4.43934 6.04048 4.62688C6.22802 4.81441 6.33337 5.06877 6.33337 5.33398C6.33337 5.5992 6.22802 5.85356 6.04048 6.04109C5.85294 6.22863 5.59859 6.33398 5.33337 6.33398ZM8.66671 6.33398C8.40149 6.33398 8.14714 6.22863 7.9596 6.04109C7.77206 5.85356 7.66671 5.5992 7.66671 5.33398C7.66671 5.06877 7.77206 4.81441 7.9596 4.62688C8.14714 4.43934 8.40149 4.33398 8.66671 4.33398C8.93192 4.33398 9.18628 4.43934 9.37381 4.62688C9.56135 4.81441 9.66671 5.06877 9.66671 5.33398C9.66671 5.5992 9.56135 5.85356 9.37381 6.04109C9.18628 6.22863 8.93192 6.33398 8.66671 6.33398Z" fill="#9A9C9D"/>
</svg>
