<svg xmlns="http://www.w3.org/2000/svg" width="38.458" height="29.406" viewBox="0 0 38.458 29.406">
  <g id="Group_29" data-name="Group 29" transform="translate(-247.315 -57.001)">
    <path id="Path_27" data-name="Path 27" d="M259.14,72.226a11.975,11.975,0,0,1-1.178-1.041,9.171,9.171,0,0,1-8.36-.14c-1.6,1.623-2.4,3.77-1.011,4.668a10.447,10.447,0,0,0,5.51,1.43A12.039,12.039,0,0,0,255.879,77,11.9,11.9,0,0,1,259.14,72.226Z" transform="translate(0.139 3.481)" fill="#fff"/>
    <path id="Path_28" data-name="Path 28" d="M254.067,72.592a6.724,6.724,0,0,0,2.446-.464,11.75,11.75,0,0,1,0-12.573,6.749,6.749,0,1,0-2.446,13.037Zm-3.138-8.551a1.778,1.778,0,0,1,.9.248l-.9,1.552h1.8a1.8,1.8,0,1,1-1.8-1.8Z" transform="translate(0 0.518)" fill="#fff"/>
    <path id="Path_29" data-name="Path 29" d="M269.715,71.186a11.818,11.818,0,0,1-1.129,1A11.1,11.1,0,0,1,271.8,77a11.953,11.953,0,0,0,1.773.146,10.447,10.447,0,0,0,5.51-1.43c1.391-.9.586-3.045-1.011-4.668a9.171,9.171,0,0,1-8.361.14Z" transform="translate(5.271 3.481)" fill="#fff"/>
    <path id="Path_30" data-name="Path 30" d="M273.211,59.091a6.725,6.725,0,0,0-2.447.464,11.751,11.751,0,0,1,0,12.573,6.749,6.749,0,1,0,2.447-13.037Zm3.137,8.551a1.8,1.8,0,1,1,.9-3.353l-.9,1.552h1.8A1.8,1.8,0,0,1,276.348,67.642Z" transform="translate(5.811 0.518)" fill="#fff"/>
    <path id="Path_31" data-name="Path 31" d="M269.674,73.185c-1.511,1.326-2.8,2.789-5.281,2.789s-3.736-1.447-5.238-2.753c-2.7,2.289-4.3,5.81-2.161,7.192a14.477,14.477,0,0,0,7.64,1.983,13.815,13.815,0,0,0,7.071-1.757C273.846,79.329,272.6,75.566,269.674,73.185Z" transform="translate(2.152 4.011)" fill="#fff"/>
    <path id="Path_32" data-name="Path 32" d="M255.225,66.36A9.359,9.359,0,1,0,264.584,57,9.359,9.359,0,0,0,255.225,66.36Zm13.709-2.5a2.472,2.472,0,0,1,1.243.343l-1.243,2.153h2.5a2.5,2.5,0,1,1-2.5-2.5Zm-8.7,4.991a2.5,2.5,0,1,1,1.243-4.648l-1.243,2.153h2.5A2.5,2.5,0,0,1,260.234,68.855Z" transform="translate(1.96 0)" fill="#fff"/>
  </g>
</svg>
