<svg xmlns="http://www.w3.org/2000/svg" width="41.832" height="38.004" viewBox="0 0 41.832 38.004">
  <path id="Union_3" data-name="Union 3" d="M29.841,36.381a7.814,7.814,0,0,1-2.514-1.7A7.921,7.921,0,0,1,25.2,27.377l-5.25-1.407a11.047,11.047,0,0,1-1.213,1.438,10.963,10.963,0,0,1-15.519,0A10.97,10.97,0,0,1,10.972,8.675,11,11,0,0,1,19.924,13.3l4.557-2.631A7.931,7.931,0,1,1,26.305,13.5q-.3-.3-.56-.621L21.15,15.538a11.02,11.02,0,0,1,.04,8.123l4.962,1.331a7.938,7.938,0,0,1,3.689-3.19A7.922,7.922,0,0,1,36,21.8a7.935,7.935,0,0,1,4.209,4.211A7.915,7.915,0,0,1,29.841,36.381Zm-.694-11.062a5.331,5.331,0,1,0,3.774-1.564A5.3,5.3,0,0,0,29.147,25.318ZM5.02,13.694A8.422,8.422,0,1,0,16.93,25.6,8.422,8.422,0,1,0,5.02,13.694ZM28.126,4.137A5.34,5.34,0,1,0,31.9,2.575,5.308,5.308,0,0,0,28.126,4.137ZM7.522,25.164c-.968-.625-.245-2.218.978-3.253a3.413,3.413,0,0,0,2.369,1.244,3.448,3.448,0,0,0,2.389-1.262c1.325,1.078,1.888,2.78.919,3.372a6.245,6.245,0,0,1-3.2.795A6.542,6.542,0,0,1,7.522,25.164Zm-.887-8.171a4.233,4.233,0,1,1,4.234,4.232A4.234,4.234,0,0,1,6.635,16.993Zm5.072,0a1.129,1.129,0,0,0,2.258,0H12.837l.563-.975a1.123,1.123,0,0,0-1.692.975Zm-3.936,0a1.129,1.129,0,0,0,2.258,0H8.9l.563-.975a1.123,1.123,0,0,0-1.692.975Z" transform="translate(0.5 0.5)" fill="#fff" stroke="rgba(0,0,0,0)" stroke-width="1"/>
</svg>
