<svg xmlns="http://www.w3.org/2000/svg" width="48.027" height="44" viewBox="0 0 48.027 44">
  <g id="Group_620" data-name="Group 620" transform="translate(-5.557 -3.5)">
    <g id="Group_376" data-name="Group 376" transform="translate(6.056 4)">
      <path id="Path_31" data-name="Path 31" d="M275.994,73.185c-2.21,1.94-4.1,4.078-7.722,4.078s-5.463-2.117-7.66-4.025c-3.952,3.346-6.291,8.5-3.16,10.517a21.168,21.168,0,0,0,11.172,2.9,20.2,20.2,0,0,0,10.34-2.569C282.1,82.169,280.28,76.666,275.994,73.185Z" transform="translate(-254.586 -43.655)" fill="none" stroke="#fff" stroke-width="1"/>
      <path id="Path_32" data-name="Path 32" d="M255.225,70.686A13.685,13.685,0,1,0,268.91,57,13.685,13.685,0,0,0,255.225,70.686Z" transform="translate(-255.225 -57.001)" fill="none" stroke="#fff" stroke-width="1"/>
    </g>
    <path id="Subtraction_13" data-name="Subtraction 13" d="M8.842,17.707a8.853,8.853,0,1,1,8.843-8.853A8.853,8.853,0,0,1,8.842,17.707Zm0-6.52a1.4,1.4,0,1,0,1.4,1.4A1.393,1.393,0,0,0,8.842,11.186ZM7.57,3.118l.671,6.821H9.669l.57-6.821Z" transform="translate(35.899 21.977)" fill="#fff"/>
  </g>
</svg>
