<svg xmlns="http://www.w3.org/2000/svg" width="18" height="12.09" viewBox="0 0 18 12.09">
  <path id="Path_148" data-name="Path 148" d="M463.034-414.67H456.8a5.885,5.885,0,0,0-5.885,5.885h0a5.847,5.847,0,0,0,.952,3.2l-.9,3,3.183-.957a5.826,5.826,0,0,0,1.6.537,5.924,5.924,0,0,0,1.058.1h6.231a5.917,5.917,0,0,0,1.1-.107,5.884,5.884,0,0,0,4.78-5.778h0A5.885,5.885,0,0,0,463.034-414.67Zm-1.491,8.079h-6.923v-1.385h6.923Zm3.674-2.769h-10.6v-1.385h10.6Z" transform="translate(-450.919 414.67)" fill="#fff"/>
</svg>
