<svg id="Group_5601" data-name="Group 5601" xmlns="http://www.w3.org/2000/svg" width="23.973" height="21.02" viewBox="0 0 23.973 21.02">
  <path id="Path_354" data-name="Path 354" d="M1614.9,1.569h4.9c-.352-.166-.711-.332-1.067-.5-.121-.058-.28-.1-.344-.2a.721.721,0,0,1-.15-.493c.038-.144.235-.249.368-.364.025-.022.08-.012.122-.011a33.4,33.4,0,0,1,6.738.564,11.327,11.327,0,0,1,1.669.571.837.837,0,0,1,.394.438,22.86,22.86,0,0,1,1.319,5.193c.151,1.034.244,2.077.363,3.116.029.254-.009.508-.264.605a.616.616,0,0,1-.511-.036.81.81,0,0,1-.24-.5c-.086-.657-.125-1.32-.205-1.978a24.765,24.765,0,0,0-1.291-5.74.676.676,0,0,0-.342-.344,11.757,11.757,0,0,0-3.425-.7,15.953,15.953,0,0,0-1.659-.071c.075.042.148.088.226.124q1.266.59,2.534,1.177a2.231,2.231,0,0,1,.25.124.475.475,0,0,1,.236.607.494.494,0,0,1-.6.312c-.6-.14-1.2-.308-1.81-.438a22.79,22.79,0,0,0-6.272-.452,23.532,23.532,0,0,0-4.736.813,2.381,2.381,0,0,1-.393.089.472.472,0,0,1-.516-.315.455.455,0,0,1,.173-.575,1.476,1.476,0,0,1,.271-.149q1.266-.591,2.533-1.179a1.062,1.062,0,0,0,.253-.157,16.57,16.57,0,0,0-5.073.772.567.567,0,0,0-.365.377,26.038,26.038,0,0,0-1.255,5.624,41.214,41.214,0,0,0-.319,6.7c.024.714.075,1.427.137,2.139a.55.55,0,0,0,.224.331,15.9,15.9,0,0,0,5.282,2.478c.7.191,1.408.322,2.133.485l1.127-3c-.392-.091-.772-.17-1.147-.266a10.238,10.238,0,0,1-4.587-2.493c-.24-.227-.3-.467-.154-.689a.5.5,0,0,1,.682-.183,15.735,15.735,0,0,0,4.259,1.076,21.169,21.169,0,0,0,5.3.064c1.2-.152,2.385-.4,3.568-.65a11.056,11.056,0,0,0,1.372-.491.511.511,0,0,1,.68.188.523.523,0,0,1-.161.689,10.535,10.535,0,0,1-5.41,2.669c-.071.013-.142.027-.213.045a.745.745,0,0,0-.1.047l1.113,2.978c.59-.118,1.181-.208,1.757-.358a16.724,16.724,0,0,0,5.65-2.563.553.553,0,0,0,.263-.482q.057-1.941.139-3.881a.723.723,0,0,1,.1-.438.757.757,0,0,1,.5-.222c.274.008.406.236.415.5.015.445.026.892,0,1.336-.047,1-.119,2.006-.172,3.009a1.051,1.051,0,0,1-.462.858,17.26,17.26,0,0,1-6.1,2.831c-.75.189-1.523.294-2.286.43a.513.513,0,0,1-.622-.343c-.49-1.3-.98-2.593-1.453-3.9-.143-.394.076-.631.519-.726.867-.187,1.727-.41,2.59-.62a.363.363,0,0,0,.165-.1,27.206,27.206,0,0,1-8.338.035c.261.092.519.193.782.275s.556.167.839.224c.385.078.774.136,1.163.2.472.073.646.345.481.794q-.693,1.878-1.4,3.751a.547.547,0,0,1-.672.407,18.109,18.109,0,0,1-7.514-2.672,7.135,7.135,0,0,1-.955-.691.949.949,0,0,1-.315-.563c-.1-1.239-.205-2.48-.21-3.721a41.693,41.693,0,0,1,.6-7.3,23.442,23.442,0,0,1,1.184-4.463.869.869,0,0,1,.5-.515,11.474,11.474,0,0,1,3.828-.871c1.466-.109,2.938-.146,4.408-.206a.745.745,0,0,1,.386.08.492.492,0,0,1-.079.875c-.421.216-.856.4-1.294.61" transform="translate(-1605.374 0.003)" fill="#fff"/>
  <path id="Path_355" data-name="Path 355" d="M1674.356,93.118a3.187,3.187,0,1,1-3.19,3.191,3.234,3.234,0,0,1,3.19-3.191m0,5.357a2.173,2.173,0,1,0-2.175-2.168,2.186,2.186,0,0,0,2.175,2.168" transform="translate(-1667.066 -87.318)" fill="#fff"/>
  <path id="Path_356" data-name="Path 356" d="M1828.177,96.262a3.186,3.186,0,1,1-3.239-3.14,3.225,3.225,0,0,1,3.239,3.14m-3.229,2.213a2.171,2.171,0,1,0-2.131-2.211,2.166,2.166,0,0,0,2.131,2.211" transform="translate(-1808.319 -87.318)" fill="#fff"/>
</svg>
