<svg xmlns="http://www.w3.org/2000/svg" width="34.285" height="52.787" viewBox="0 0 34.285 52.787">
  <g id="icon-report-user" transform="translate(-17.051 0.496)">
    <path id="Path_31" data-name="Path 31" d="M280.315,73.185c-2.687,2.359-4.984,4.959-9.39,4.959s-6.644-2.574-9.315-4.895c-4.806,4.069-7.651,10.331-3.843,12.79,3.577,2.312,8.585,3.526,13.587,3.526a24.567,24.567,0,0,0,12.575-3.124C287.735,84.111,285.527,77.419,280.315,73.185Z" transform="translate(-236.728 -37.274)" fill="#fff"/>
    <path id="Subtraction_2" data-name="Subtraction 2" d="M23928.287,24097.063a16.644,16.644,0,1,1,11.768-4.875A16.563,16.563,0,0,1,23928.287,24097.063Zm-.049-11.516a3.5,3.5,0,1,0,3.5,3.5A3.505,3.505,0,0,0,23928.238,24085.547Zm.2-18.377a2.971,2.971,0,0,0-3.018,2.588,29.3,29.3,0,0,0,.193,6.941c.4,3.051,1.072,5.348,1.838,6.3a1.214,1.214,0,0,0,.836.525h.049a1.1,1.1,0,0,0,.8-.447c.781-.9,1.49-3.2,1.941-6.295a29.439,29.439,0,0,0,.32-7.027A2.894,2.894,0,0,0,23928.438,24067.17Z" transform="translate(-23894.094 -24063.775)" fill="#fff" stroke="rgba(0,0,0,0)" stroke-width="1"/>
  </g>
</svg>
