<svg xmlns="http://www.w3.org/2000/svg" width="11.633" height="17.207" viewBox="0 0 11.633 17.207">
  <g id="Group_351" data-name="Group 351" transform="translate(24.367 -7.902)">
    <path id="Path_163" data-name="Path 163" d="M263.768,73.185c-.858.753-1.592,1.584-3,1.584s-2.122-.822-2.976-1.564c-1.535,1.3-2.444,3.3-1.228,4.086a8.224,8.224,0,0,0,4.34,1.126,7.848,7.848,0,0,0,4.017-1C266.138,76.675,265.433,74.537,263.768,73.185Z" transform="translate(-279.319 -53.309)" fill="#e3e3e3"/>
    <path id="Subtraction_3" data-name="Subtraction 3" d="M5.315,10.63a5.316,5.316,0,1,1,5.316-5.316A5.322,5.322,0,0,1,5.315,10.63Zm-3-6.158v1.7H4.463V8.312h1.7V6.177H8.314v-1.7H6.168V2.313h-1.7V4.472Z" transform="translate(-23.865 8.404)" fill="#e3e3e3" stroke="rgba(0,0,0,0)" stroke-width="1"/>
  </g>
</svg>
