<svg width="15" height="15" viewBox="0 0 15 15" fill="none" xmlns="http://www.w3.org/2000/svg">
<g clip-path="url(#clip0_1596_58363)">
<path d="M8.90357 11.4432C8.39999 11.1968 7.84285 11.0575 7.30714 10.8646C7.14642 10.8111 7.01785 10.8325 6.87856 10.9289C5.87142 11.6789 4.85356 11.6789 3.83571 10.9289C3.69642 10.8325 3.56785 10.8004 3.40714 10.8539C2.99999 10.9932 2.59285 11.1218 2.19642 11.2611C1.69285 11.4325 1.24285 11.7004 0.86785 12.0968C0.182136 12.8361 -0.0535781 13.7254 -6.63986e-06 14.7111C0.0107076 14.9039 0.117851 15.0004 0.321422 15.0004C0.717851 15.0004 1.11428 15.0004 1.52142 15.0004C1.72499 15.0004 1.93928 15.0004 2.15356 15.0004C2.15356 14.9468 2.15356 14.9146 2.15356 14.8825C2.15356 14.5396 2.15356 14.1861 2.15356 13.8432C2.15356 13.6504 2.29285 13.5218 2.46428 13.5325C2.62499 13.5325 2.74285 13.6611 2.75356 13.8539C2.75356 13.9182 2.75356 13.9825 2.75356 14.0468C2.75356 14.3575 2.75356 14.6789 2.75356 15.0004H7.92856C7.92856 14.7754 7.92856 14.5611 7.92856 14.3468C7.92856 14.1646 7.92856 13.9825 7.93928 13.8004C7.94999 13.6504 8.07856 13.5432 8.22856 13.5432C8.37856 13.5432 8.49642 13.6396 8.51785 13.7896C8.52856 13.8539 8.51785 13.9289 8.51785 14.0039C8.51785 14.3361 8.51785 14.6575 8.51785 15.0111C9.17142 15.0111 9.78214 15.0111 10.4036 15.0111C10.5643 15.0111 10.6714 14.8932 10.6714 14.7218C10.6714 14.5504 10.6714 14.3789 10.6714 14.2075C10.5964 12.9432 10.0071 12.0004 8.86071 11.4539L8.90357 11.4432Z" fill="white"/>
<path d="M4.0286 10.2232C4.53217 10.6839 5.12145 10.8982 5.80717 10.7268C6.30002 10.5982 6.68574 10.2982 7.00717 9.91251C7.71431 9.04465 8.02502 8.02679 8.05717 7.13751C8.0786 5.33751 7.20002 4.14822 5.61431 4.04108C4.3286 3.94465 3.15002 4.55536 2.78574 5.98036C2.62502 6.60179 2.64645 7.22322 2.78574 7.84465C2.9786 8.75536 3.34288 9.58036 4.03931 10.2232H4.0286Z" fill="white"/>
<path d="M14.7749 2.95976C14.6677 2.59548 14.582 2.23119 14.4642 1.86691C14.3999 1.67405 14.2606 1.62048 14.0677 1.67405C13.8642 1.72762 13.7249 1.62048 13.6177 1.48119C13.4999 1.3419 13.4249 1.18119 13.5106 0.999048C13.607 0.774048 13.5963 0.656191 13.3927 0.538334C13.0606 0.356191 12.7177 0.184762 12.3749 0.0454765C12.1285 -0.050952 12.0427 0.0026194 11.9142 0.238334C11.8177 0.409762 11.657 0.441905 11.4749 0.441905C11.3035 0.441905 11.132 0.409762 11.0463 0.227619C10.9392 0.0133337 10.8427 -0.0295235 10.607 0.0347623C10.2213 0.141905 9.87846 0.302619 9.55703 0.538334C9.37489 0.677619 9.34275 0.784762 9.43917 0.988334C9.52489 1.18119 9.44989 1.33119 9.33203 1.47048C9.21417 1.60976 9.0856 1.7169 8.88203 1.66333C8.67846 1.60976 8.57132 1.66333 8.47489 1.86691C8.31417 2.2419 8.22846 2.63833 8.20703 3.04548C8.20703 3.24905 8.28203 3.35619 8.4856 3.39905C8.69989 3.45262 8.76417 3.61333 8.80703 3.79548C8.83917 3.9669 8.83917 4.12762 8.67846 4.25619C8.51775 4.38476 8.4856 4.51333 8.58203 4.68476C8.77489 5.05976 9.03203 5.38119 9.35346 5.65976C9.50346 5.78833 9.64275 5.78833 9.78203 5.65976C9.94275 5.50976 10.1249 5.55262 10.2856 5.62762C10.457 5.70262 10.5963 5.82048 10.5856 6.03476C10.5856 6.23833 10.6713 6.3669 10.8749 6.37762C11.2713 6.39905 11.6677 6.39905 12.0642 6.37762C12.2785 6.37762 12.3642 6.24905 12.3642 6.02405C12.3642 5.80976 12.5035 5.70262 12.6642 5.62762C12.8249 5.55262 12.9963 5.50976 13.157 5.63833C13.3285 5.77762 13.457 5.77762 13.6285 5.62762C13.9285 5.37048 14.1642 5.05976 14.357 4.71691C14.4749 4.50262 14.4535 4.39548 14.2606 4.24548C14.1106 4.12762 14.1106 3.95619 14.1427 3.79548C14.1749 3.62405 14.2392 3.46333 14.432 3.40976C14.7213 3.31333 14.7642 3.27048 14.7427 2.95976C14.7642 2.95976 14.7749 2.95976 14.7963 2.94905L14.7749 2.95976ZM11.4535 4.53476C10.7142 4.53476 10.1142 3.92405 10.1142 3.18476C10.1142 2.43476 10.7142 1.83476 11.4642 1.83476C12.2142 1.83476 12.8142 2.44548 12.8142 3.18476C12.8142 3.92405 12.1927 4.53476 11.4535 4.53476Z" fill="white"/>
</g>
<defs>
<clipPath id="clip0_1596_58363">
<rect width="14.775" height="15" fill="white"/>
</clipPath>
</defs>
</svg>
