<svg xmlns="http://www.w3.org/2000/svg" width="27.156" height="21" viewBox="0 0 27.156 21">
  <g id="Group_376" data-name="Group 376" transform="translate(0.5 0.5)">
    <path id="Path_27" data-name="Path 27" d="M255.537,71.849a8.148,8.148,0,0,1-.8-.708,6.238,6.238,0,0,1-5.686-.1c-1.085,1.1-1.634,2.564-.687,3.175a7.105,7.105,0,0,0,3.748.973,8.188,8.188,0,0,0,1.209-.1A8.093,8.093,0,0,1,255.537,71.849Z" transform="translate(-247.4 -59.126)" fill="none" stroke="#fff" stroke-width="1"/>
    <path id="Path_28" data-name="Path 28" d="M251.907,68.274a4.573,4.573,0,0,0,1.663-.316,7.992,7.992,0,0,1,0-8.551,4.59,4.59,0,1,0-1.663,8.867Z" transform="translate(-247.315 -57.317)" fill="none" stroke="#fff" stroke-width="1"/>
    <path id="Path_29" data-name="Path 29" d="M269.354,71.141a8.038,8.038,0,0,1-.768.682,7.55,7.55,0,0,1,2.188,3.271,8.13,8.13,0,0,0,1.206.1,7.105,7.105,0,0,0,3.748-.973c.946-.611.4-2.071-.687-3.175a6.238,6.238,0,0,1-5.686.1Z" transform="translate(-250.534 -59.126)" fill="none" stroke="#fff" stroke-width="1"/>
    <path id="Path_30" data-name="Path 30" d="M272.428,59.091a4.574,4.574,0,0,0-1.664.316,7.992,7.992,0,0,1,0,8.551,4.59,4.59,0,1,0,1.664-8.867Z" transform="translate(-250.863 -57.317)" fill="none" stroke="#fff" stroke-width="1"/>
    <path id="Path_31" data-name="Path 31" d="M265.3,73.185c-1.028.9-1.906,1.9-3.592,1.9s-2.541-.984-3.563-1.872c-1.838,1.556-2.926,3.951-1.47,4.892a9.846,9.846,0,0,0,5.2,1.349,9.4,9.4,0,0,0,4.809-1.195C268.138,77.364,267.293,74.8,265.3,73.185Z" transform="translate(-248.629 -59.45)" fill="none" stroke="#fff" stroke-width="1"/>
    <path id="Path_32" data-name="Path 32" d="M255.225,63.366A6.365,6.365,0,1,0,261.59,57,6.365,6.365,0,0,0,255.225,63.366Z" transform="translate(-248.512 -57.001)" fill="none" stroke="#fff" stroke-width="1"/>
  </g>
</svg>
