<svg xmlns="http://www.w3.org/2000/svg" width="27.827" height="21.277" viewBox="0 0 27.827 21.277">
  <g id="Group_372" data-name="Group 372" transform="translate(0)">
    <path id="Path_27" data-name="Path 27" d="M256.026,71.9a8.666,8.666,0,0,1-.852-.753,6.636,6.636,0,0,1-6.049-.1c-1.155,1.175-1.738,2.728-.731,3.378a7.559,7.559,0,0,0,3.987,1.035,8.712,8.712,0,0,0,1.287-.107A8.61,8.61,0,0,1,256.026,71.9Z" transform="translate(-247.37 -58.365)" fill="#fff"/>
    <path id="Path_28" data-name="Path 28" d="M252.2,68.86a4.865,4.865,0,0,0,1.77-.336,8.5,8.5,0,0,1,0-9.1,4.883,4.883,0,1,0-1.77,9.433Zm-2.271-6.187a1.286,1.286,0,0,1,.648.18l-.648,1.123h1.3a1.3,1.3,0,1,1-1.3-1.3Z" transform="translate(-247.315 -57.204)" fill="#fff"/>
    <path id="Path_29" data-name="Path 29" d="M269.4,71.147a8.547,8.547,0,0,1-.817.726,8.032,8.032,0,0,1,2.328,3.48,8.649,8.649,0,0,0,1.283.106,7.559,7.559,0,0,0,3.987-1.035c1.007-.65.424-2.2-.731-3.378a6.636,6.636,0,0,1-6.049.1Z" transform="translate(-249.381 -58.365)" fill="#fff"/>
    <path id="Path_30" data-name="Path 30" d="M272.535,59.091a4.866,4.866,0,0,0-1.771.336,8.5,8.5,0,0,1,0,9.1,4.883,4.883,0,1,0,1.771-9.433Zm2.27,6.187a1.3,1.3,0,1,1,.649-2.426l-.649,1.123h1.3A1.3,1.3,0,0,1,274.8,65.278Z" transform="translate(-249.592 -57.204)" fill="#fff"/>
    <path id="Path_31" data-name="Path 31" d="M265.894,73.185c-1.093.96-2.028,2.018-3.821,2.018s-2.7-1.047-3.79-1.992c-1.956,1.656-3.113,4.2-1.564,5.2a10.475,10.475,0,0,0,5.528,1.435,10,10,0,0,0,5.117-1.271C268.913,77.631,268.015,74.908,265.894,73.185Z" transform="translate(-248.158 -58.573)" fill="#fff"/>
    <path id="Path_32" data-name="Path 32" d="M255.225,63.773A6.772,6.772,0,1,0,262,57,6.772,6.772,0,0,0,255.225,63.773Zm9.919-1.806a1.789,1.789,0,0,1,.9.248l-.9,1.557h1.806a1.806,1.806,0,1,1-1.806-1.806Zm-6.295,3.612a1.806,1.806,0,1,1,.9-3.363l-.9,1.557h1.806A1.806,1.806,0,0,1,258.849,65.578Z" transform="translate(-248.083 -57.001)" fill="#fff"/>
  </g>
</svg>
