<svg xmlns="http://www.w3.org/2000/svg" width="23.074" height="19.307" viewBox="0 0 23.074 19.307">
  <path id="Path_363" data-name="Path 363" d="M1742.161,799.362c.1,1.031-.656,1.612-1.1,2.383l1.678-.673a1.154,1.154,0,0,1-.155,1.1c-.491.661-1.016,1.3-1.565,1.912a1.089,1.089,0,0,0-.336.746,13.631,13.631,0,0,1-3.323,8.9,13.2,13.2,0,0,1-10.681,4.493,11.764,11.764,0,0,1-6.621-2.12c-.352-.25-.433-.611-.157-.809a.872.872,0,0,1,.547-.106,8.406,8.406,0,0,0,4.4-.594c.307-.142.6-.324.965-.529-.183-.074-.283-.12-.387-.156a4.684,4.684,0,0,1-3.026-3.042.569.569,0,0,1,.28-.809c-.086-.078-.157-.149-.234-.214a4.823,4.823,0,0,1-1.7-3.951c0-.4.171-.517.556-.444.086.016.17.039.171.039a23.337,23.337,0,0,1-.7-2.249,4.355,4.355,0,0,1,.6-3.067c.194-.349.417-.392.738-.125.656.547,1.284,1.128,1.943,1.672a12.157,12.157,0,0,0,5.094,2.726c.484.107.982.152,1.49.228.027-.5.013-.96.083-1.405a4.963,4.963,0,0,1,8.089-3.18.885.885,0,0,0,.6.167,7.506,7.506,0,0,0,1.381-.3c.446-.146.864-.372,1.372-.6m-18.6,11.777a3.087,3.087,0,0,0,1.654,1.63,15.874,15.874,0,0,0,1.59.437c.6.162.7.517.271.966a5.77,5.77,0,0,1-2.591,1.592c-.733.214-1.493.335-2.24.5a1.29,1.29,0,0,0,.167.093,12.605,12.605,0,0,0,7.621.615,12.037,12.037,0,0,0,6.511-3.7,12.7,12.7,0,0,0,3.181-8.443,1.721,1.721,0,0,1,.624-1.362c.3-.264.583-.544.935-.874-.412.054-.722.113-1.034.129-.263.013-.549-.007-.658-.315-.1-.29.1-.458.29-.631.3-.274.592-.562.888-.844a13.741,13.741,0,0,0-1.546.28.98.98,0,0,1-.93-.283,3.786,3.786,0,0,0-3.4-.967,4.072,4.072,0,0,0-3.2,4.88c.1.529-.061.777-.595.741a14.849,14.849,0,0,1-2.5-.288,13.808,13.808,0,0,1-6.266-3.713l-.4-.386a3.663,3.663,0,0,0,.395,3.626c.3.431.658.822.948,1.258a.718.718,0,0,1,.113.593.73.73,0,0,1-.561.251,6.979,6.979,0,0,1-1.048-.144.542.542,0,0,0,0,.11,3.426,3.426,0,0,0,2.067,2.735,11.291,11.291,0,0,1,1.032.486.414.414,0,0,1-.024.774,1.562,1.562,0,0,1-.482.155c-.255.045-.515.063-.811.1" transform="translate(-1719.74 -798.924)" fill="#fff"/>
</svg>
