<svg xmlns="http://www.w3.org/2000/svg" width="288.194" height="132.949" viewBox="0 0 288.194 132.949">
  <g id="Group_5645" data-name="Group 5645" transform="translate(-851 -502.698)">
    <g id="Group_5645-2" data-name="Group 5645" transform="translate(934.669 571.497)">
      <g id="Rectangle_1432" data-name="Rectangle 1432" fill="#3e3e3e" stroke="#707070" stroke-width="1">
        <rect width="37.186" height="37.186" rx="4" stroke="none"/>
        <rect x="0.5" y="0.5" width="36.186" height="36.186" rx="3.5" fill="none"/>
      </g>
      <text id="A" transform="translate(17.783 23.135)" fill="#fff" stroke="rgba(0,0,0,0)" stroke-width="1" font-size="15" font-family="IgnazioText-Regular, Ignazio Text" letter-spacing="0.06em"><tspan x="-5" y="0">A</tspan></text>
    </g>
    <g id="Group_5646" data-name="Group 5646" transform="translate(976.504 571.497)">
      <g id="Rectangle_1432-2" data-name="Rectangle 1432" fill="#3e3e3e" stroke="#707070" stroke-width="1">
        <rect width="37.186" height="37.186" rx="4" stroke="none"/>
        <rect x="0.5" y="0.5" width="36.186" height="36.186" rx="3.5" fill="none"/>
      </g>
      <text id="S" transform="translate(17.945 23.135)" fill="#fff" stroke="rgba(0,0,0,0)" stroke-width="1" font-size="15" font-family="IgnazioText-Regular, Ignazio Text" letter-spacing="0.06em"><tspan x="-4" y="0">S</tspan></text>
    </g>
    <g id="Group_5647" data-name="Group 5647" transform="translate(1018.339 571.497)">
      <g id="Rectangle_1432-3" data-name="Rectangle 1432" fill="#3e3e3e" stroke="#707070" stroke-width="1">
        <rect width="37.186" height="37.186" rx="4" stroke="none"/>
        <rect x="0.5" y="0.5" width="36.186" height="36.186" rx="3.5" fill="none"/>
      </g>
      <text id="D" transform="translate(17.783 22.135)" fill="#fff" stroke="rgba(0,0,0,0)" stroke-width="1" font-size="14" font-family="IgnazioText-Regular, Ignazio Text" letter-spacing="0.06em"><tspan x="-5" y="0">D</tspan></text>
    </g>
    <g id="Group_5649" data-name="Group 5649" transform="translate(976.945 503.405)">
      <path id="Path_371" data-name="Path 371" d="M-7100.307,12122.1l6.08-6.082,6.081,6.082" transform="translate(7100.307 -12116.014)" fill="none" stroke="#fff" stroke-width="1"/>
      <line id="Line_156" data-name="Line 156" y2="16.96" transform="translate(6.08)" fill="none" stroke="#fff" stroke-width="1"/>
    </g>
    <g id="Group_5650" data-name="Group 5650" transform="translate(1000.727 634.94) rotate(180)">
      <path id="Path_371-2" data-name="Path 371" d="M0,6.082,6.08,0l6.081,6.082" transform="translate(0 0)" fill="none" stroke="#fff" stroke-width="1"/>
      <line id="Line_156-2" data-name="Line 156" y2="16.96" transform="translate(6.08 0)" fill="none" stroke="#fff" stroke-width="1"/>
    </g>
    <g id="Group_5652" data-name="Group 5652" transform="translate(908.413 596.169) rotate(-90)">
      <path id="Path_371-3" data-name="Path 371" d="M0,6.082,6.08,0l6.081,6.082" transform="translate(0 0)" fill="none" stroke="#fff" stroke-width="1"/>
      <line id="Line_156-3" data-name="Line 156" y2="16.96" transform="translate(6.08)" fill="none" stroke="#fff" stroke-width="1"/>
    </g>
    <g id="Group_5654" data-name="Group 5654" transform="translate(964.883 529.662)">
      <g id="Rectangle_1432-4" data-name="Rectangle 1432" fill="#3e3e3e" stroke="#707070" stroke-width="1">
        <rect width="37.186" height="37.186" rx="4" stroke="none"/>
        <rect x="0.5" y="0.5" width="36.186" height="36.186" rx="3.5" fill="none"/>
      </g>
      <text id="W" transform="translate(18.297 23.135)" fill="#fff" stroke="rgba(0,0,0,0)" stroke-width="1" font-size="15" font-family="IgnazioText-Regular, Ignazio Text" letter-spacing="0.06em"><tspan x="-8" y="0">W</tspan></text>
    </g>
    <g id="Rectangle_1433" data-name="Rectangle 1433" transform="translate(1060.173 571.497)" fill="#3e3e3e" stroke="#707070" stroke-width="1" opacity="0.4">
      <rect width="37.186" height="37.186" rx="4" stroke="none"/>
      <rect x="0.5" y="0.5" width="36.186" height="36.186" rx="3.5" fill="none"/>
    </g>
    <g id="Rectangle_1437" data-name="Rectangle 1437" transform="translate(1006.718 529.662)" fill="#3e3e3e" stroke="#707070" stroke-width="1" opacity="0.4">
      <rect width="37.186" height="37.186" rx="4" stroke="none"/>
      <rect x="0.5" y="0.5" width="36.186" height="36.186" rx="3.5" fill="none"/>
    </g>
    <g id="Rectangle_1435" data-name="Rectangle 1435" transform="translate(892.835 571.497)" fill="#3e3e3e" stroke="#707070" stroke-width="1" opacity="0.4">
      <rect width="37.186" height="37.186" rx="4" stroke="none"/>
      <rect x="0.5" y="0.5" width="36.186" height="36.186" rx="3.5" fill="none"/>
    </g>
    <g id="Rectangle_1439" data-name="Rectangle 1439" transform="translate(923.049 529.662)" fill="#3e3e3e" stroke="#707070" stroke-width="1" opacity="0.4">
      <rect width="37.186" height="37.186" rx="4" stroke="none"/>
      <rect x="0.5" y="0.5" width="36.186" height="36.186" rx="3.5" fill="none"/>
    </g>
    <g id="Group_5655" data-name="Group 5655" transform="translate(1081.782 584.008) rotate(90)">
      <path id="Path_371-4" data-name="Path 371" d="M0,6.082,6.08,0l6.081,6.082" transform="translate(0 0)" fill="none" stroke="#fff" stroke-width="1"/>
      <line id="Line_156-4" data-name="Line 156" y2="16.96" transform="translate(6.08)" fill="none" stroke="#fff" stroke-width="1"/>
    </g>
    <g id="Rectangle_1434" data-name="Rectangle 1434" transform="translate(1102.008 571.497)" fill="#3e3e3e" stroke="#707070" stroke-width="1" opacity="0.2">
      <rect width="37.186" height="37.186" rx="4" stroke="none"/>
      <rect x="0.5" y="0.5" width="36.186" height="36.186" rx="3.5" fill="none"/>
    </g>
    <g id="Rectangle_1438" data-name="Rectangle 1438" transform="translate(1048.553 529.662)" fill="#3e3e3e" stroke="#707070" stroke-width="1" opacity="0.2">
      <rect width="37.186" height="37.186" rx="4" stroke="none"/>
      <rect x="0.5" y="0.5" width="36.186" height="36.186" rx="3.5" fill="none"/>
    </g>
    <g id="Rectangle_1436" data-name="Rectangle 1436" transform="translate(851 571.497)" fill="#3e3e3e" stroke="#707070" stroke-width="1" opacity="0.2">
      <rect width="37.186" height="37.186" rx="4" stroke="none"/>
      <rect x="0.5" y="0.5" width="36.186" height="36.186" rx="3.5" fill="none"/>
    </g>
    <g id="Rectangle_1440" data-name="Rectangle 1440" transform="translate(881.214 529.662)" fill="#3e3e3e" stroke="#707070" stroke-width="1" opacity="0.2">
      <rect width="37.186" height="37.186" rx="4" stroke="none"/>
      <rect x="0.5" y="0.5" width="36.186" height="36.186" rx="3.5" fill="none"/>
    </g>
  </g>
</svg>
