<svg xmlns="http://www.w3.org/2000/svg" xmlns:xlink="http://www.w3.org/1999/xlink" width="43.998" height="44" viewBox="0 0 43.998 44">
  <defs>
    <clipPath id="clip-path">
      <rect id="Rectangle_1426" data-name="Rectangle 1426" width="43.998" height="43.999" fill="#fff"/>
    </clipPath>
  </defs>
  <g id="Group_5623" data-name="Group 5623" transform="translate(22324 23337)">
    <g id="Group_5622" data-name="Group 5622" transform="translate(-22324 -23337)">
      <g id="Group_5621" data-name="Group 5621" clip-path="url(#clip-path)">
        <path id="Path_369" data-name="Path 369" d="M25.76,0a3.089,3.089,0,0,1,.354.793q.321,2.365.571,4.738c.036.335.193.426.473.532.834.315,1.66.656,2.468,1.032a.606.606,0,0,0,.755-.073c1.209-.979,2.437-1.934,3.658-2.9.572-.452.72-.45,1.221.05q2.3,2.294,4.591,4.592c.475.476.481.64.053,1.183-.975,1.235-1.944,2.475-2.932,3.7a.574.574,0,0,0-.069.708c.378.827.731,1.667,1.046,2.52a.573.573,0,0,0,.556.446c1.6.178,3.193.391,4.792.566.519.057.7.312.7.81q-.015,3.3,0,6.6a.713.713,0,0,1-.744.83c-1.6.174-3.194.389-4.793.565a.536.536,0,0,0-.509.428c-.33.867-.683,1.726-1.071,2.568a.537.537,0,0,0,.081.661c.985,1.227,1.956,2.465,2.931,3.7.442.561.434.714-.073,1.222q-2.275,2.278-4.553,4.554c-.508.507-.658.512-1.221.067-1.221-.965-2.448-1.921-3.658-2.9a.605.605,0,0,0-.753-.087c-.823.386-1.667.731-2.518,1.051a.535.535,0,0,0-.429.508q-.261,2.372-.564,4.739c-.088.694-.207.789-.884.79q-3.247,0-6.493,0c-.648,0-.779-.1-.861-.753-.2-1.6-.378-3.2-.594-4.79a.725.725,0,0,0-.378-.464c-.845-.381-1.717-.7-2.561-1.086a.575.575,0,0,0-.708.07c-1.225.988-2.464,1.958-3.7,2.933-.543.429-.7.422-1.181-.055q-2.3-2.294-4.591-4.592c-.5-.5-.505-.644-.051-1.22.964-1.222,1.919-2.449,2.9-3.658a.607.607,0,0,0,.072-.755C6.72,28.82,6.373,28,6.069,27.159a.615.615,0,0,0-.591-.481c-1.563-.172-3.126-.35-4.685-.559A3.069,3.069,0,0,1,0,25.764V18.25A3.053,3.053,0,0,1,.792,17.9c1.54-.206,3.084-.381,4.629-.549a.687.687,0,0,0,.668-.538,25.613,25.613,0,0,1,.98-2.371.681.681,0,0,0-.075-.847c-.984-1.2-1.936-2.433-2.9-3.654-.423-.537-.414-.691.072-1.178q2.293-2.3,4.589-4.589c.486-.486.644-.5,1.178-.074,1.235.974,2.472,1.945,3.7,2.93a.572.572,0,0,0,.7.092c.824-.383,1.665-.732,2.517-1.045a.615.615,0,0,0,.472-.6c.171-1.563.353-3.125.565-4.682A3.072,3.072,0,0,1,18.246,0Zm8.776,5.141c-.141.109-.325.248-.506.391-1.137.9-2.28,1.787-3.407,2.7a.857.857,0,0,1-1.024.1c-1.087-.491-2.194-.941-3.308-1.369a.865.865,0,0,1-.645-.805c-.161-1.547-.361-3.089-.528-4.636-.032-.292-.135-.4-.431-.4q-2.683.014-5.366,0c-.295,0-.4.1-.431.4-.164,1.511-.371,3.017-.517,4.529a.968.968,0,0,1-.759.945,20.774,20.774,0,0,0-2.916,1.2,1.205,1.205,0,0,1-1.572-.147c-1.2-1.011-2.457-1.959-3.651-2.9L5.143,9.473c.09.119.217.289.348.456.9,1.138,1.784,2.283,2.7,3.407A.912.912,0,0,1,8.3,14.45c-.49,1.049-.925,2.125-1.329,3.21a.923.923,0,0,1-.869.71c-1.529.153-3.053.356-4.581.523-.281.031-.413.111-.412.419q.015,2.683,0,5.367c0,.285.084.41.387.442,1.546.167,3.088.369,4.635.527a.893.893,0,0,1,.833.683c.416,1.1.86,2.19,1.351,3.259A.885.885,0,0,1,8.2,30.657c-.923,1.139-1.823,2.3-2.73,3.45-.129.164-.25.333-.3.4l4.336,4.346c1.262-1,2.584-2.033,3.9-3.082a.8.8,0,0,1,.931-.117q1.711.755,3.453,1.437a.772.772,0,0,1,.558.7c.174,1.545.372,3.088.53,4.635.037.367.157.483.522.479q2.6-.024,5.205,0c.37,0,.482-.121.519-.483.158-1.547.356-3.09.53-4.635a.771.771,0,0,1,.561-.694q1.74-.684,3.454-1.435a.755.755,0,0,1,.886.086c.482.4.979.78,1.471,1.167L34.5,38.849l4.356-4.329c-.994-1.26-2.014-2.572-3.057-3.866a.885.885,0,0,1-.111-1.067c.491-1.068.933-2.16,1.349-3.259a.893.893,0,0,1,.834-.681c1.529-.156,3.053-.362,4.582-.52.354-.037.442-.174.44-.5q-.018-2.63,0-5.26c0-.308-.085-.439-.413-.473-1.528-.162-3.052-.368-4.582-.521a.915.915,0,0,1-.868-.712A23.512,23.512,0,0,0,35.82,14.69a1.208,1.208,0,0,1,.158-1.57c1.01-1.2,1.958-2.458,2.9-3.647L34.536,5.142" transform="translate(0 -0.001)" fill="#fff"/>
        <path id="Path_370" data-name="Path 370" d="M136.322,126.978a9.347,9.347,0,1,1-9.352-9.341,9.341,9.341,0,0,1,9.352,9.341m-1.088-.014a8.259,8.259,0,1,0-8.239,8.281,8.285,8.285,0,0,0,8.239-8.281" transform="translate(-104.972 -104.978)" fill="#fff"/>
      </g>
    </g>
  </g>
</svg>
