<svg width="4" height="12" viewBox="0 0 4 12" fill="none" xmlns="http://www.w3.org/2000/svg">
<path d="M1.99996 4.66602C1.26663 4.66602 0.666626 5.26602 0.666626 5.99935C0.666626 6.73268 1.26663 7.33268 1.99996 7.33268C2.73329 7.33268 3.33329 6.73268 3.33329 5.99935C3.33329 5.26602 2.73329 4.66602 1.99996 4.66602ZM1.99996 0.666016C1.26663 0.666016 0.666626 1.26602 0.666626 1.99935C0.666626 2.73268 1.26663 3.33268 1.99996 3.33268C2.73329 3.33268 3.33329 2.73268 3.33329 1.99935C3.33329 1.26602 2.73329 0.666016 1.99996 0.666016ZM1.99996 8.66602C1.26663 8.66602 0.666626 9.26602 0.666626 9.99935C0.666626 10.7327 1.26663 11.3327 1.99996 11.3327C2.73329 11.3327 3.33329 10.7327 3.33329 9.99935C3.33329 9.26602 2.73329 8.66602 1.99996 8.66602Z" fill="#9A9C9D"/>
</svg>
