<svg id="Group_5600" data-name="Group 5600" xmlns="http://www.w3.org/2000/svg" width="20.422" height="20.42" viewBox="0 0 20.422 20.42">
  <path id="Path_360" data-name="Path 360" d="M10.2,77.533H3.09a3.068,3.068,0,0,1-1.96-.593A2.875,2.875,0,0,1,0,74.539q0-7.223,0-14.447a2.794,2.794,0,0,1,2.177-2.88,3.508,3.508,0,0,1,.886-.1q7.14-.008,14.281,0A2.832,2.832,0,0,1,20.325,59.3a3.547,3.547,0,0,1,.093.887q.008,7.14,0,14.281a2.822,2.822,0,0,1-2.165,2.957,3.749,3.749,0,0,1-.952.1c-2.369.008-4.738,0-7.107,0m.015-19.283c-2.392,0-4.784,0-7.175,0a1.714,1.714,0,0,0-1.895,1.863q-.009,7.209,0,14.417A1.706,1.706,0,0,0,3,76.393q7.209.009,14.417,0a1.706,1.706,0,0,0,1.862-1.862q.009-7.209-.006-14.417a2.216,2.216,0,0,0-.2-.927,1.719,1.719,0,0,0-1.727-.94c-2.381.007-4.761,0-7.142,0" transform="translate(0 -57.112)" fill="#fff"/>
  <path id="Path_361" data-name="Path 361" d="M68.345,131.01a5.581,5.581,0,1,1,5.569,5.585,5.573,5.573,0,0,1-5.569-5.585M78.39,131a4.464,4.464,0,1,0-4.461,4.476A4.455,4.455,0,0,0,78.39,131" transform="translate(-63.713 -120.802)" fill="#fff"/>
  <path id="Path_362" data-name="Path 362" d="M224.99,93.135a1.726,1.726,0,1,1-1.7-1.737,1.712,1.712,0,0,1,1.7,1.737m-1.723-.579a.563.563,0,0,0-.567.547.574.574,0,0,0,.568.584.566.566,0,0,0,.563-.552.553.553,0,0,0-.564-.579" transform="translate(-206.89 -89.074)" fill="#fff"/>
</svg>
