<svg xmlns="http://www.w3.org/2000/svg" xmlns:xlink="http://www.w3.org/1999/xlink" width="32.872" height="51.645" viewBox="0 0 32.872 51.645">
  <defs>
    <clipPath id="clip-path">
      <rect id="Rectangle_75" data-name="Rectangle 75" width="16.266" height="7" transform="translate(0 0)" fill="none"/>
    </clipPath>
  </defs>
  <g id="icon-success" transform="translate(-609.429 -213.126)">
    <path id="Path_120" data-name="Path 120" d="M634.325,231.545c-2.655,2.33-4.922,4.9-9.275,4.9s-6.56-2.544-9.2-4.835c-4.744,4.018-7.556,10.2-3.8,12.631a25.427,25.427,0,0,0,13.417,3.483,24.256,24.256,0,0,0,12.421-3.087C641.652,242.339,639.472,235.729,634.325,231.545Z" transform="translate(0.817 17.046)" fill="#fff"/>
    <path id="Path_121" data-name="Path 121" d="M625.865,246a16.436,16.436,0,1,0-16.436-16.436A16.434,16.434,0,0,0,625.865,246Zm7.64-20.818a4.325,4.325,0,0,1,2.182.6l-2.182,3.78h4.382a4.382,4.382,0,1,1-4.382-4.382Zm-18.379,1.284a4.368,4.368,0,0,1,5.281-.682l-2.183,3.78h4.384a4.383,4.383,0,1,1-7.482-3.1Z" fill="#fff"/>
    <g id="Group_272" data-name="Group 272" transform="translate(617.359 236.314)">
      <g id="Mask_Group_268" data-name="Mask Group 268" clip-path="url(#clip-path)">
        <path id="Path_125" data-name="Path 125" d="M8.133,7C2.3,7,.155,1.589.067,1.359A1,1,0,0,1,.641.066c.514-.2.819.147,1.214.635A7.1,7.1,0,0,0,8.133,4,6.905,6.905,0,0,0,14.383.7,1.034,1.034,0,0,1,15.627.069a1,1,0,0,1,.572,1.29C16.111,1.589,13.964,7,8.133,7" fill="#1e1e1e"/>
      </g>
    </g>
  </g>
</svg>
