<svg id="Group_324" data-name="Group 324" xmlns="http://www.w3.org/2000/svg" width="17.071" height="16" viewBox="0 0 17.071 16">
  <path id="Path_49" data-name="Path 49" d="M311.2-139.832a.718.718,0,0,0-.023-.137,1.258,1.258,0,0,1-.014.137Z" transform="translate(-294.787 148.458)" fill="#fff"/>
  <path id="Path_50" data-name="Path 50" d="M305.187-151.42v-1.5a.328.328,0,0,0-.328-.329.328.328,0,0,0-.329.329V-152A6.3,6.3,0,0,1,305.187-151.42Z" transform="translate(-292.197 153.641)" fill="#fff"/>
  <path id="Path_51" data-name="Path 51" d="M290.33-151.581a.328.328,0,0,0,.329-.329v-1.654a.328.328,0,0,0-.329-.328.328.328,0,0,0-.328.328v1.654A.328.328,0,0,0,290.33-151.581Z" transform="translate(-286.527 153.892)" fill="#fff"/>
  <path id="Path_52" data-name="Path 52" d="M298.238-132.191a1.306,1.306,0,0,1,.958.421c.4-.067.774-.144,1.112-.227a3.76,3.76,0,0,0-.631-1.353,22.13,22.13,0,0,1-2.742.282,2.768,2.768,0,0,1-.986.177,2.779,2.779,0,0,1-.988-.177,22.145,22.145,0,0,1-2.688-.273,1.311,1.311,0,0,1,.573,1.084v.511a19.95,19.95,0,0,0,3.1.231c.407,0,.793-.014,1.165-.034A1.309,1.309,0,0,1,298.238-132.191Z" transform="translate(-287.414 145.875)" fill="#fff"/>
  <path id="Path_53" data-name="Path 53" d="M300.074-146.254a4.924,4.924,0,0,0-4.924-4.924,4.924,4.924,0,0,0-4.924,4.924,4.9,4.9,0,0,0,1.272,3.295c.338.066.7.123,1.091.172a1.309,1.309,0,0,1,1.256-.951,1.31,1.31,0,0,1,1.293,1.106h.012a19.7,19.7,0,0,0,3.354-.271v-1.329a1.313,1.313,0,0,1,1.313-1.313,1.307,1.307,0,0,1,.2.02A4.94,4.94,0,0,0,300.074-146.254Zm-7.214,1.51a1.313,1.313,0,0,1-1.313-1.313,1.313,1.313,0,0,1,1.313-1.313,1.3,1.3,0,0,1,.654.181l-.654,1.132h1.313A1.313,1.313,0,0,1,292.86-144.744Zm4.578,0a1.313,1.313,0,0,1-1.313-1.313,1.313,1.313,0,0,1,1.313-1.313,1.3,1.3,0,0,1,.654.181l-.654,1.132h1.313A1.313,1.313,0,0,1,297.438-144.744Z" transform="translate(-286.614 152.833)" fill="#fff"/>
  <path id="Path_54" data-name="Path 54" d="M292.838-138.257c4.138,0,8.536-1.127,8.536-3.217a1.767,1.767,0,0,0-.673-1.307v1.11c0,.021,0,.04-.006.06a.722.722,0,0,1,.023.137c0,.7-1.081,1.441-2.883,1.946V-141.5a.328.328,0,0,0-.328-.329.328.328,0,0,0-.328.329v2.137a19.832,19.832,0,0,1-4.34.449c-.334,0-.658-.009-.976-.023v-.755a.328.328,0,0,0-.329-.328.327.327,0,0,0-.328.328v.719a14.566,14.566,0,0,1-4.62-.994.314.314,0,0,0,.015-.076v-3.806a.328.328,0,0,0-.328-.328.328.328,0,0,0-.329.328v3.556c-.631-.374-.985-.785-.985-1.182v-1.291a1.756,1.756,0,0,0-.657,1.291C284.3-139.384,288.7-138.257,292.838-138.257Z" transform="translate(-284.302 150.099)" fill="#fff"/>
  <path id="Path_55" data-name="Path 55" d="M292.838-130.673c4.138,0,8.536-1.127,8.536-3.217a1.926,1.926,0,0,0-.919-1.507c-.215.122-.447.235-.69.343.612.369.952.774.952,1.164,0,.967-2.067,2.02-5.262,2.406v-.193a.328.328,0,0,0-.328-.328.328.328,0,0,0-.329.328v.26h0c-.62.054-1.272.087-1.96.087a20.158,20.158,0,0,1-4.087-.394v-1.333a.328.328,0,0,0-.329-.328.328.328,0,0,0-.328.328v1.18c-1.953-.5-3.136-1.283-3.136-2.014,0-.39.34-.794.952-1.164-.243-.107-.474-.221-.689-.343a1.924,1.924,0,0,0-.919,1.507C284.3-131.8,288.7-130.673,292.838-130.673Z" transform="translate(-284.302 146.673)" fill="#fff"/>
  <path id="Path_56" data-name="Path 56" d="M308.834-143.237a.328.328,0,0,0-.328.328v1.6a.328.328,0,0,0,.328.328.328.328,0,0,0,.329-.328v-1.6A.328.328,0,0,0,308.834-143.237Z" transform="translate(-293.749 149.733)" fill="#fff"/>
  <path id="Path_57" data-name="Path 57" d="M308.834-146.046a.328.328,0,0,0,.329-.328v-.241a.328.328,0,0,0-.329-.329.328.328,0,0,0-.328.329v.241A.328.328,0,0,0,308.834-146.046Z" transform="translate(-293.749 151.18)" fill="#fff"/>
  <path id="Path_58" data-name="Path 58" d="M287.323-149.1a.328.328,0,0,0-.329.329v.24a.328.328,0,0,0,.329.329.328.328,0,0,0,.328-.329v-.24A.328.328,0,0,0,287.323-149.1Z" transform="translate(-285.353 152.021)" fill="#fff"/>
</svg>
