<svg xmlns="http://www.w3.org/2000/svg" width="37.5" height="50.102" viewBox="0 0 37.5 50.102">
  <path id="icon-wallet" d="M22886.09,22236.574c-3.8-2.463-.961-8.725,3.848-12.791,2.668,2.322,4.906,4.895,9.311,4.895s6.707-2.6,9.393-4.959c5.211,4.234,7.42,10.928,3.611,13.258a24.567,24.567,0,0,1-12.572,3.123A25.758,25.758,0,0,1,22886.09,22236.574Zm-1.887-14.955c-.088-.027-.168-.057-.254-.08a3.747,3.747,0,0,1-2.766-2.49c-.076-.207-.121-.42-.186-.633v-21.477c.109-.551.191-1.1.328-1.639a5.177,5.177,0,0,1,3.969-4.107c.281-.074.57-.131.863-.2h25.088a.407.407,0,0,0,.127.076,3.731,3.731,0,0,1,3,3.795v1.789a3.8,3.8,0,0,1,3.008,2.76l.121.41v18.588a4.9,4.9,0,0,1-.834,1.824,4.161,4.161,0,0,1-2.369,1.379Zm23.293-12.176a2.813,2.813,0,1,0,2.8-2.824A2.839,2.839,0,0,0,22907.5,22209.443Zm-19.936-15.943c-.424,0-.855.029-1.281.07a2.9,2.9,0,0,0-2.611,3.031h28.205v-1.588c0-1.047-.477-1.514-1.529-1.514l-15.484,0C22892.18,22193.5,22889.65,22193.5,22887.561,22193.5Z" transform="translate(-22880.498 -22190.498)" fill="#fff" stroke="rgba(0,0,0,0)" stroke-width="1"/>
</svg>
