<svg id="Group_508" data-name="Group 508" xmlns="http://www.w3.org/2000/svg" xmlns:xlink="http://www.w3.org/1999/xlink" width="47.432" height="47.431" viewBox="0 0 47.432 47.431">
  <defs>
    <clipPath id="clip-path">
      <rect id="Rectangle_140" data-name="Rectangle 140" width="47.432" height="47.431" fill="#ec6363"/>
    </clipPath>
  </defs>
  <g id="Group_507" data-name="Group 507" clip-path="url(#clip-path)">
    <path id="Path_289" data-name="Path 289" d="M0,45.582A12.9,12.9,0,0,1,.941,44.4Q22.8,22.518,44.676.648A1.577,1.577,0,0,1,46.361.072a1.463,1.463,0,0,1,.76,2.311,4.346,4.346,0,0,1-.419.45q-3.774,3.777-7.556,7.545a.576.576,0,0,0-.159.742,16.176,16.176,0,0,1,1.166,6.152c-.005,1.472-.017,2.943,0,4.415a8.625,8.625,0,0,0,2.452,6.24,5.839,5.839,0,0,1-1.206,9,6.352,6.352,0,0,1-3.584,1.054q-12.86-.006-25.72-.01a1.2,1.2,0,0,0-.935.391Q7.094,42.458,3,46.527a12.308,12.308,0,0,1-1.147.9H1.232A2.076,2.076,0,0,1,0,46.3v-.719" transform="translate(0 0)" fill="#ec6363"/>
    <path id="Path_290" data-name="Path 290" d="M31.59,39.533a5.342,5.342,0,0,1,1.151-5.166,9.559,9.559,0,0,0,2.444-4.49,10.847,10.847,0,0,0,.254-2.08c.037-1.677,0-3.355.02-5.032A16.45,16.45,0,0,1,48.75,7.1,16.277,16.277,0,0,1,60.692,9.366c.227.142.442.3.63.435L31.59,39.533" transform="translate(-28.153 -6.106)" fill="#ec6363"/>
    <path id="Path_291" data-name="Path 291" d="M176.1,393.087a7.111,7.111,0,0,1-7.582,6.239,7.035,7.035,0,0,1-6.551-6.239Z" transform="translate(-145.294 -352.628)" fill="#ec6363"/>
  </g>
</svg>
