<svg xmlns="http://www.w3.org/2000/svg" width="33" height="50.781" viewBox="0 0 33 50.781">
  <g id="Group_351" data-name="Group 351" transform="translate(0.5 0.5)">
    <path id="Path_163" data-name="Path 163" d="M280.683,73.185c-2.728,2.394-5.059,5.034-9.533,5.034s-6.744-2.613-9.456-4.969c-4.879,4.131-7.767,10.488-3.9,12.983,3.631,2.347,8.715,3.579,13.792,3.579a24.94,24.94,0,0,0,12.765-3.172C288.215,84.276,285.974,77.483,280.683,73.185Z" transform="translate(-255.149 -39.532)" fill="#ec6363"/>
    <path id="Subtraction_3" data-name="Subtraction 3" d="M16,33.787c-8.822,0-16-7.578-16-16.894S7.178,0,16,0,32,7.578,32,16.894,24.822,33.787,16,33.787ZM6.585,14.875v5.4H24.643v-5.4Z" fill="#ec6363" stroke="rgba(0,0,0,0)" stroke-width="1"/>
  </g>
</svg>
