<svg xmlns="http://www.w3.org/2000/svg" width="11.633" height="17.207" viewBox="0 0 11.633 17.207">
  <g id="Group_351" data-name="Group 351" transform="translate(0.5 0.5)">
    <path id="Path_163" data-name="Path 163" d="M263.768,73.185c-.858.753-1.592,1.584-3,1.584s-2.122-.822-2.976-1.564c-1.535,1.3-2.444,3.3-1.228,4.086a8.224,8.224,0,0,0,4.34,1.126,7.848,7.848,0,0,0,4.017-1C266.138,76.675,265.433,74.537,263.768,73.185Z" transform="translate(-255.452 -61.711)" fill="#ec6363"/>
    <path id="Subtraction_3" data-name="Subtraction 3" d="M5.316,10.633a5.316,5.316,0,1,1,5.316-5.316A5.322,5.322,0,0,1,5.316,10.633Zm-.008-4.1h0L6.826,8.048,8.032,6.842,6.514,5.324,8.041,3.8,6.835,2.593,5.309,4.119,3.789,2.6,2.584,3.805,4.1,5.324,2.593,6.835,3.8,8.041,5.307,6.53Z" transform="translate(0 0)" fill="#ec6363" stroke="rgba(0,0,0,0)" stroke-width="1"/>
  </g>
</svg>
