<svg xmlns="http://www.w3.org/2000/svg" width="213.379" height="67.502" viewBox="0 0 213.379 67.502">
  <g id="Group_5658" data-name="Group 5658" transform="translate(-4.863 -9)">
    <ellipse id="Ellipse_176" data-name="Ellipse 176" cx="10.106" cy="4.548" rx="10.106" ry="4.548" transform="translate(4.863 25.667)" fill="#fff" opacity="0.15"/>
    <ellipse id="Ellipse_177" data-name="Ellipse 177" cx="8.085" cy="3.537" rx="8.085" ry="3.537" transform="translate(60.585 9)" fill="#fff" opacity="0.3"/>
    <g id="Ellipse_178" data-name="Ellipse 178" transform="translate(114.148 31.234)" fill="#4e47f0" stroke="#fff" stroke-width="0.6" opacity="0.997">
      <ellipse cx="9.096" cy="4.548" rx="9.096" ry="4.548" stroke="none"/>
      <ellipse cx="9.096" cy="4.548" rx="8.796" ry="4.248" fill="none"/>
    </g>
    <ellipse id="Ellipse_179" data-name="Ellipse 179" cx="13.138" cy="5.053" rx="13.138" ry="5.053" transform="translate(191.966 40.329)" fill="#fff" opacity="0.837"/>
    <g id="Group_5659" data-name="Group 5659" transform="matrix(0.998, -0.07, 0.07, 0.998, 146.453, 34.96)">
      <path id="Path_372" data-name="Path 372" d="M0,5.267,5.266,0l5.266,5.267" transform="translate(0 10.429) rotate(-82)" fill="none" stroke="#fff" stroke-width="1"/>
      <line id="Line_157" data-name="Line 157" x2="35.934" y2="6.226" transform="translate(1.249 5.602)" fill="none" stroke="#fff" stroke-width="1" stroke-dasharray="2"/>
    </g>
    <g id="Group_5661" data-name="Group 5661" transform="matrix(0.951, 0.309, -0.309, 0.951, 82.843, 16.967)" opacity="0.5">
      <path id="Path_372-2" data-name="Path 372" d="M0,2.937,2.937,0,5.873,2.937" transform="translate(0 5.816) rotate(-82)" fill="none" stroke="#fff" stroke-width="1"/>
      <line id="Line_157-2" data-name="Line 157" x2="20.821" y2="3.011" transform="translate(0.697 3.123)" fill="none" stroke="#fff" stroke-width="1" stroke-dasharray="2"/>
    </g>
    <g id="Group_5662" data-name="Group 5662" transform="translate(28.608 22.143) rotate(-30)" opacity="0.3">
      <path id="Path_372-3" data-name="Path 372" d="M0,2.937,2.937,0,5.873,2.937" transform="translate(0 5.816) rotate(-82)" fill="none" stroke="#fff" stroke-width="1"/>
      <line id="Line_157-3" data-name="Line 157" x2="20.572" y2="3.937" transform="translate(0.696 3.123)" fill="none" stroke="#fff" stroke-width="1" stroke-dasharray="2"/>
    </g>
    <g id="Ellipse_180" data-name="Ellipse 180" transform="translate(109.095 28.202)" fill="none" stroke="#fefefe" stroke-width="0.6" opacity="0.6">
      <ellipse cx="13.643" cy="7.58" rx="13.643" ry="7.58" stroke="none"/>
      <ellipse cx="13.643" cy="7.58" rx="13.343" ry="7.28" fill="none"/>
    </g>
    <g id="Ellipse_181" data-name="Ellipse 181" transform="translate(105.053 24.159)" fill="none" stroke="#fefefe" stroke-width="0.6" opacity="0.3">
      <ellipse cx="17.686" cy="11.622" rx="17.686" ry="11.622" stroke="none"/>
      <ellipse cx="17.686" cy="11.622" rx="17.386" ry="11.322" fill="none"/>
    </g>
    <g id="Group_5660" data-name="Group 5660" transform="translate(111.312 34.763)">
      <path id="Path_373" data-name="Path 373" d="M97.073,95.172c2.038-.674,3.035-.406,4.228,1.132a3.062,3.062,0,0,1,4.639.788,3.085,3.085,0,0,1,2.679-.678,3,3,0,0,1,2.354,2.836c0,2.431-.035,4.864-.157,7.291a123.4,123.4,0,0,1-2.082,14.371c-.013.079-.035.157-.054.235a.723.723,0,1,1-1.412-.268c.217-1.269.423-2.54.668-3.8a81.162,81.162,0,0,0,1.611-17.326,2.845,2.845,0,0,0-.115-.853,1.536,1.536,0,0,0-1.724-1.079,1.577,1.577,0,0,0-1.346,1.536c-.024.5,0,1-.01,1.5s-.282.8-.7.807a.731.731,0,0,1-.736-.788c-.016-.692,0-1.385-.008-2.078a1.671,1.671,0,0,0-1.589-1.777,1.634,1.634,0,0,0-1.6,1.793c0,.435.008.87,0,1.3a.71.71,0,0,1-.694.768.722.722,0,0,1-.745-.774c-.016-.692,0-1.385-.007-2.078a1.671,1.671,0,0,0-1.628-1.787,1.625,1.625,0,0,0-1.563,1.78c0,.435.008.87,0,1.3a.722.722,0,1,1-1.44.01c-.014-.789,0-1.579,0-2.368q0-6.862,0-13.724a1.6,1.6,0,1,0-3.184-.251c-.013.176-.006.354-.006.531q0,9.641,0,19.282c0,.161.009.323-.006.483a.719.719,0,0,1-1.438-.012c-.007-.08,0-.161,0-.242q0-9.931,0-19.861a3.042,3.042,0,1,1,6.082-.029c.013,3.818,0,7.635,0,11.453v.573" transform="translate(-82.173 -80.075)" fill="#fff"/>
      <path id="Path_374" data-name="Path 374" d="M2.691,239.713a3.84,3.84,0,0,1,3.249,1.66c.39.57.733,1.173,1.08,1.771a.723.723,0,0,1-.222,1.048.737.737,0,0,1-1.026-.328c-.324-.518-.619-1.055-.949-1.569a2.315,2.315,0,0,0-2.45-1.065c-.87.169-1.1.6-.754,1.42q3.9,9.319,7.805,18.638c.491,1.171.986,2.341,1.474,3.513.23.552.107.958-.33,1.135-.41.166-.773-.032-1-.565Q4.89,254.209.217,243.042A2.215,2.215,0,0,1,1.734,239.9a9.076,9.076,0,0,1,.957-.183" transform="translate(0 -226.275)" fill="#fff"/>
    </g>
  </g>
</svg>
