<svg id="Group_488" data-name="Group 488" xmlns="http://www.w3.org/2000/svg" xmlns:xlink="http://www.w3.org/1999/xlink" width="41.123" height="41.191" viewBox="0 0 41.123 41.191">
  <defs>
    <clipPath id="clip-path">
      <rect id="Rectangle_130" data-name="Rectangle 130" width="41.123" height="41.191" fill="#fff"/>
    </clipPath>
  </defs>
  <g id="Group_487" data-name="Group 487" clip-path="url(#clip-path)">
    <path id="Path_280" data-name="Path 280" d="M90.175,0a5.238,5.238,0,0,1,1.911.872A3.838,3.838,0,0,1,93.63,3.838c.037,2.572.063,5.147.007,7.718a4.056,4.056,0,0,1-4.224,4.034q-4.04.014-8.081-.006a.728.728,0,0,0-.712.372c-.81,1.259-1.646,2.5-2.5,3.8-.107-.149-.193-.26-.27-.377-.747-1.127-1.5-2.248-2.232-3.387a.756.756,0,0,0-.735-.405q-4.04.026-8.081,0a4.022,4.022,0,0,1-3.856-2.406,3.514,3.514,0,0,1-.353-1.425c-.035-2.626-.056-5.253-.006-7.879a4.015,4.015,0,0,1,3.2-3.791A2.5,2.5,0,0,0,66.04,0ZM74.688,6.293H72.371V8.6h2.317Zm4.577,0H76.949V8.6h2.316Zm4.568.008h-2.3V8.611h2.3Z" transform="translate(-57.512)" fill="#fff"/>
    <path id="Path_281" data-name="Path 281" d="M0,407.443c.108-.44.192-.887.327-1.318a7.1,7.1,0,0,1,11.823-2.836c.065.066.124.138.207.232a8.561,8.561,0,0,0-1.1,3.109c-.12,1.1-.156,2.213-.234,3.388H0v-2.574" transform="translate(0 -368.827)" fill="#fff"/>
    <path id="Path_282" data-name="Path 282" d="M181.525,409.908h-14.1c0-.346.01-.687,0-1.028a7.875,7.875,0,0,1,.608-3.606,7.041,7.041,0,0,1,7.26-4.163,6.953,6.953,0,0,1,6.216,6,20.607,20.607,0,0,1,.019,2.8" transform="translate(-153.919 -368.731)" fill="#fff"/>
    <path id="Path_283" data-name="Path 283" d="M370.931,410.006H359.964c0-.388-.01-.759,0-1.13a10.022,10.022,0,0,0-1.15-5.145.436.436,0,0,1,.072-.4,6.748,6.748,0,0,1,4.455-2.141,6.991,6.991,0,0,1,7.559,5.7,16.9,16.9,0,0,1,.029,3.109" transform="translate(-329.872 -368.835)" fill="#fff"/>
    <path id="Path_284" data-name="Path 284" d="M204.195,283.615a4.5,4.5,0,1,1,4.515-4.483,4.505,4.505,0,0,1-4.515,4.483" transform="translate(-183.619 -252.483)" fill="#fff"/>
    <path id="Path_285" data-name="Path 285" d="M35.458,283.617a4.5,4.5,0,0,1,.037-8.995,4.5,4.5,0,0,1-.037,8.995" transform="translate(-28.483 -252.485)" fill="#fff"/>
    <path id="Path_286" data-name="Path 286" d="M366.055,279.082a4.481,4.481,0,1,1,4.325,4.537,4.495,4.495,0,0,1-4.325-4.537" transform="translate(-336.547 -252.488)" fill="#fff"/>
  </g>
</svg>
