<svg xmlns="http://www.w3.org/2000/svg" width="16.298" height="25.605" viewBox="0 0 16.298 25.605">
  <g id="Group_367" data-name="Group 367" transform="translate(-14.073)">
    <path id="Path_31" data-name="Path 31" d="M267.906,73.185c-1.316,1.155-2.44,2.428-4.6,2.428s-3.253-1.26-4.561-2.4c-2.353,1.993-3.746,5.059-1.882,6.263a12.605,12.605,0,0,0,6.653,1.726,12.029,12.029,0,0,0,6.157-1.53C271.539,78.535,270.458,75.258,267.906,73.185Z" transform="translate(-241.085 -55.601)" fill="#fff"/>
    <path id="Path_32" data-name="Path 32" d="M255.225,65.15A8.149,8.149,0,1,0,263.374,57,8.149,8.149,0,0,0,255.225,65.15Zm11.936-2.173a2.152,2.152,0,0,1,1.082.3l-1.082,1.874h2.173a2.173,2.173,0,1,1-2.173-2.173Zm-7.575,4.346a2.173,2.173,0,1,1,1.082-4.047l-1.082,1.874h2.173A2.173,2.173,0,0,1,259.586,67.323Z" transform="translate(-241.153 -57.001)" fill="#fff"/>
  </g>
</svg>
