<svg width="14" height="13" viewBox="0 0 14 13" fill="none" xmlns="http://www.w3.org/2000/svg">
<path d="M6.99995 1.06406C6.27355 0.396127 5.32275 0.0254217 4.33595 0.0253906C3.81364 0.0259344 3.2966 0.129764 2.81457 0.330903C2.33255 0.532042 1.89506 0.82652 1.52728 1.19739C-0.0413869 2.77272 -0.0407203 5.23672 1.52861 6.80539L6.41661 11.6934C6.52995 11.8927 6.74861 12.0214 6.99995 12.0214C7.10315 12.0204 7.20467 11.9952 7.29637 11.9478C7.38807 11.9005 7.46738 11.8323 7.52795 11.7487L12.4713 6.80539C14.0406 5.23606 14.0406 2.77272 12.4699 1.19472C12.1024 0.824535 11.6652 0.530655 11.1837 0.329979C10.7021 0.129304 10.1856 0.0257904 9.66395 0.0253906C8.67717 0.0255519 7.72642 0.396239 6.99995 1.06406ZM11.5273 2.13739C12.5693 3.18472 12.5699 4.82072 11.5286 5.86272L6.99995 10.3914L2.47128 5.86272C1.42995 4.82072 1.43061 3.18472 2.46995 2.14006C2.97661 1.63606 3.63928 1.35872 4.33595 1.35872C5.03261 1.35872 5.69261 1.63606 6.19528 2.13872L6.52861 2.47206C6.59047 2.53402 6.66394 2.58318 6.74482 2.61672C6.82569 2.65026 6.91239 2.66752 6.99995 2.66752C7.0875 2.66752 7.1742 2.65026 7.25508 2.61672C7.33595 2.58318 7.40942 2.53402 7.47128 2.47206L7.80461 2.13872C8.81261 1.13272 10.5206 1.13539 11.5273 2.13739Z" fill="#9A9C9D"/>
</svg>
