<svg xmlns="http://www.w3.org/2000/svg" width="32.656" height="31.631" viewBox="0 0 32.656 31.631">
  <path id="Union_1" data-name="Union 1" d="M18962.207,19621.85a4.24,4.24,0,1,1,3.984,2.783A4.228,4.228,0,0,1,18962.207,19621.85Zm-12.643,1.2a4.251,4.251,0,1,1,2.779,1.037A4.234,4.234,0,0,1,18949.564,19623.051Zm3.92-13.594a6.125,6.125,0,1,1,6.127,6.117A6.121,6.121,0,0,1,18953.484,19609.457Zm14.166-1.777a4.243,4.243,0,1,1,4.729,3.684,4.356,4.356,0,0,1-.525.031A4.233,4.233,0,0,1,18967.65,19607.68Zm-20.406,2.684a4.239,4.239,0,1,1,.453.023A4.429,4.429,0,0,1,18947.244,19610.363Zm9.068-13.131a4.24,4.24,0,1,1,4.24,4.23A4.234,4.234,0,0,1,18956.313,19597.232Z" transform="translate(-18943.447 -19593.002)" fill="#fff"/>
</svg>
