<svg width="14" height="11" viewBox="0 0 14 11" fill="none" xmlns="http://www.w3.org/2000/svg">
<path d="M2.00016 3.20125C2.00016 4.53125 3.0035 5.53459 4.3335 5.53459C5.6635 5.53459 6.66683 4.53125 6.66683 3.20125C6.66683 1.87125 5.6635 0.86792 4.3335 0.86792C3.0035 0.86792 2.00016 1.87125 2.00016 3.20125ZM11.6668 2.83325H10.3335V4.83325H8.3335V6.16659H10.3335V8.16659H11.6668V6.16659H13.6668V4.83325H11.6668V2.83325ZM1.66683 10.1666H8.3335V9.49992C8.3335 7.66192 6.83816 6.16659 5.00016 6.16659H3.66683C1.82883 6.16659 0.333496 7.66192 0.333496 9.49992V10.1666H1.66683Z" fill="white"/>
</svg>
