<svg xmlns="http://www.w3.org/2000/svg" width="48.025" height="44" viewBox="0 0 48.025 44">
  <g id="Group_5695" data-name="Group 5695" transform="translate(22214.613 23233.5)">
    <g id="Group_620" data-name="Group 620" transform="translate(-22220.17 -23237)">
      <g id="Group_376" data-name="Group 376" transform="translate(6.056 4)">
        <path id="Path_31" data-name="Path 31" d="M275.994,73.185c-2.21,1.94-4.1,4.078-7.722,4.078s-5.463-2.117-7.66-4.025c-3.952,3.346-6.291,8.5-3.16,10.517a21.168,21.168,0,0,0,11.172,2.9,20.2,20.2,0,0,0,10.34-2.569C282.1,82.169,280.28,76.666,275.994,73.185Z" transform="translate(-254.586 -43.655)" fill="none" stroke="#fff" stroke-width="1"/>
        <path id="Path_32" data-name="Path 32" d="M255.225,70.686A13.685,13.685,0,1,0,268.91,57,13.685,13.685,0,0,0,255.225,70.686Z" transform="translate(-255.225 -57.001)" fill="none" stroke="#fff" stroke-width="1"/>
      </g>
    </g>
    <g id="Group_5694" data-name="Group 5694">
      <path id="Subtraction_13" data-name="Subtraction 13" d="M8.842.009A8.848,8.848,0,1,1,0,8.857,8.845,8.845,0,0,1,8.842.009Z" transform="translate(-22184.271 -23215.023)" fill="#fff"/>
      <g id="Group_624" data-name="Group 624" transform="translate(-22249.258 -23225.301)">
        <line id="Line_143" data-name="Line 143" x1="5.713" y2="6.007" transform="translate(72.441 16.434)" fill="none" stroke="#282828" stroke-linecap="round" stroke-width="2"/>
        <path id="Path_333" data-name="Path 333" d="M.773.773,3.315,3.315" transform="translate(69.127 19.125)" fill="none" stroke="#282828" stroke-linecap="round" stroke-width="2"/>
      </g>
    </g>
  </g>
</svg>
