<svg xmlns="http://www.w3.org/2000/svg" xmlns:xlink="http://www.w3.org/1999/xlink" width="11.182" height="11.182" viewBox="0 0 11.182 11.182">
  <defs>
    <clipPath id="clip-path">
      <rect id="Rectangle_1391" data-name="Rectangle 1391" width="7.938" height="9.711" fill="#bcbcbc"/>
    </clipPath>
  </defs>
  <g id="Group_5606" data-name="Group 5606" transform="translate(0.04 0.706)">
    <g id="Group_5605" data-name="Group 5605" transform="translate(0 0)">
      <g id="Group_5604" data-name="Group 5604" clip-path="url(#clip-path)">
        <path id="Path_364" data-name="Path 364" d="M7.931.926A1.135,1.135,0,0,0,7.909.645a1,1,0,0,0-1.5-.492Q4.438,1.281,2.463,2.409a.638.638,0,0,1-.288.074c-.459.008-.919,0-1.378,0A.741.741,0,0,0,.034,3c-.009.028-.019.055-.031.089H0v3.55H.007a.811.811,0,0,0,.923.587c.414-.016.829-.008,1.243,0a.643.643,0,0,1,.289.073c1.174.666,2.342,1.339,3.517,2,.268.151.558.275.837.411h.3a.915.915,0,0,0,.823-1c-.012-2.6-.006-5.191-.007-7.787M2.061,6.561H.779V3.138H2.061ZM7.172,8.81a.293.293,0,0,1-.079.206c-.093.084-.2.029-.3-.027q-1.313-.753-2.628-1.5c-.411-.235-.821-.471-1.235-.7a.169.169,0,0,1-.108-.163q.005-1.767,0-3.534a.158.158,0,0,1,.095-.156Q4.868,1.822,6.813.713A.345.345,0,0,1,7.067.679a.251.251,0,0,1,.1.2c.006,1.323,0,2.647,0,3.97s0,2.638,0,3.958" transform="translate(0 0)" fill="#bcbcbc"/>
      </g>
    </g>
    <path id="Path_366" data-name="Path 366" d="M0,0A4.3,4.3,0,0,1,.679,2.036,4.3,4.3,0,0,1,0,4.072" transform="translate(8.978 2.66)" fill="none" stroke="#bcbcbc" stroke-linecap="round" stroke-linejoin="round" stroke-width="1"/>
    <line id="Line_167" data-name="Line 167" x2="9.768" y2="9.768" transform="translate(0.667 0.001)" fill="none" stroke="#bcbcbc" stroke-linecap="round" stroke-width="1"/>
  </g>
</svg>
