<svg id="Group_5599" data-name="Group 5599" xmlns="http://www.w3.org/2000/svg" width="21.316" height="20.982" viewBox="0 0 21.316 20.982">
  <path id="Path_357" data-name="Path 357" d="M878.932,857.065a.913.913,0,0,1-.971.581c-1.047-.02-2.1-.006-3.143-.006a.769.769,0,0,1-.859-.861q0-3.642,0-7.284a6.22,6.22,0,0,0-.059-.786,1.636,1.636,0,0,0-1.129-1.325,1.92,1.92,0,0,0-2.375.7,2.022,2.022,0,0,0-.37,1.13c-.012.353-.008.707-.008,1.061q0,3.278,0,6.556a.719.719,0,0,1-.8.813q-1.863,0-3.726,0a.71.71,0,0,1-.8-.805q0-6.462,0-12.924a.736.736,0,0,1,.842-.837c1.089,0,2.179.018,3.268-.009a.8.8,0,0,1,.86.863c-.01.094,0,.19,0,.322a1.458,1.458,0,0,0,.132-.1,4.826,4.826,0,0,1,3.5-1.436,6.385,6.385,0,0,1,2.261.258,4.839,4.839,0,0,1,3.255,3.641c.057.234.086.474.129.711Zm-.709-.148v-.231q0-4.413,0-8.826c0-.118,0-.236-.011-.354a4.254,4.254,0,0,0-2.876-3.861,5.756,5.756,0,0,0-2.016-.221,4.117,4.117,0,0,0-3.011,1.243c-.4.406-.784.824-1.177,1.235-.039.04-.085.073-.166.141v-2.25h-3.523v13.123h3.9v-.278c0-2.394,0-4.788,0-7.182a2.953,2.953,0,0,1,.72-2.049,2.693,2.693,0,0,1,4.314.451,3.286,3.286,0,0,1,.3,1.557q.017,3.622.029,7.244c0,.086.008.173.012.258Z" transform="translate(-857.615 -836.664)" fill="#fff"/>
  <path id="Path_358" data-name="Path 358" d="M698.289,697.8a6.7,6.7,0,0,1,1.008.3,2.8,2.8,0,0,1,1.57,2.927,2.893,2.893,0,0,1-2.221,2.414,2.843,2.843,0,1,1-.934-5.6,1.418,1.418,0,0,0,.16-.037Zm1.888,2.856a2.13,2.13,0,1,0-2.013,2.133,2.118,2.118,0,0,0,2.013-2.133" transform="translate(-695.212 -697.797)" fill="#fff"/>
  <path id="Path_359" data-name="Path 359" d="M708.536,858.53q0,3.048,0,6.1a1.1,1.1,0,0,1-1.179,1.182q-1.311,0-2.622,0a1.093,1.093,0,0,1-1.171-1.172q0-6.117,0-12.235a1.1,1.1,0,0,1,1.185-1.166c.873.029,1.748.006,2.622.007a1.093,1.093,0,0,1,1.17,1.17q0,3.059,0,6.117m-.709.014q0-3.038,0-6.075c0-.39-.123-.516-.5-.516h-2.58c-.358,0-.467.108-.467.475q0,6.1,0,12.192c0,.345.134.478.48.479q1.29,0,2.581,0c.379,0,.491-.117.491-.5q0-3.027,0-6.054" transform="translate(-703.211 -844.834)" fill="#fff"/>
</svg>
