<svg width="36" height="36" viewBox="0 0 36 36" fill="none" xmlns="http://www.w3.org/2000/svg">
<path d="M16.3333 10.5H11.3333C11.1123 10.5 10.9004 10.5878 10.7441 10.7441C10.5878 10.9004 10.5 11.1123 10.5 11.3333V16.3333C10.5 16.5543 10.5878 16.7663 10.7441 16.9226C10.9004 17.0789 11.1123 17.1667 11.3333 17.1667H16.3333C16.5543 17.1667 16.7663 17.0789 16.9226 16.9226C17.0789 16.7663 17.1667 16.5543 17.1667 16.3333V11.3333C17.1667 11.1123 17.0789 10.9004 16.9226 10.7441C16.7663 10.5878 16.5543 10.5 16.3333 10.5ZM24.6667 18.8333H19.6667C19.4457 18.8333 19.2337 18.9211 19.0774 19.0774C18.9211 19.2337 18.8333 19.4457 18.8333 19.6667V24.6667C18.8333 24.8877 18.9211 25.0996 19.0774 25.2559C19.2337 25.4122 19.4457 25.5 19.6667 25.5H24.6667C24.8877 25.5 25.0996 25.4122 25.2559 25.2559C25.4122 25.0996 25.5 24.8877 25.5 24.6667V19.6667C25.5 19.4457 25.4122 19.2337 25.2559 19.0774C25.0996 18.9211 24.8877 18.8333 24.6667 18.8333ZM22.1667 10.5C20.3283 10.5 18.8333 11.995 18.8333 13.8333C18.8333 15.6717 20.3283 17.1667 22.1667 17.1667C24.005 17.1667 25.5 15.6717 25.5 13.8333C25.5 11.995 24.005 10.5 22.1667 10.5ZM13.8333 18.8333C11.995 18.8333 10.5 20.3283 10.5 22.1667C10.5 24.005 11.995 25.5 13.8333 25.5C15.6717 25.5 17.1667 24.005 17.1667 22.1667C17.1667 20.3283 15.6717 18.8333 13.8333 18.8333Z" fill="#9A9C9D"/>
</svg>
