<svg width="36" height="36" viewBox="0 0 36 36" fill="none" xmlns="http://www.w3.org/2000/svg">
<path d="M21.3334 10.5H14.6667C13.7476 10.5 13.0001 11.2475 13.0001 12.1667V23.8333C13.0001 24.7525 13.7476 25.5 14.6667 25.5H21.3334C22.2526 25.5 23.0001 24.7525 23.0001 23.8333V12.1667C23.0001 11.2475 22.2526 10.5 21.3334 10.5ZM9.66675 13.8333V22.1667C9.66675 23.0858 10.4142 23.8333 11.3334 23.8333V12.1667C10.4142 12.1667 9.66675 12.9142 9.66675 13.8333ZM24.6667 12.1667V23.8333C25.5859 23.8333 26.3334 23.0858 26.3334 22.1667V13.8333C26.3334 12.9142 25.5859 12.1667 24.6667 12.1667Z" fill="#9A9C9D"/>
</svg>
