<svg width="40" height="40" viewBox="0 0 40 40" fill="none" xmlns="http://www.w3.org/2000/svg">
<path d="M20 1.70132C30.0945 1.70132 38.2609 9.86767 38.2609 19.9622C38.2609 30.0567 30.0945 38.2231 20 38.2231C9.90548 38.2231 1.73913 30.0567 1.73913 19.9622C1.73913 9.86767 9.90548 1.70132 20 1.70132ZM20 0C17.3157 0 14.707 0.529302 12.2117 1.5879C9.82986 2.6087 7.71267 4.04537 5.86011 5.86012C4.04537 7.67486 2.57089 9.82987 1.5879 12.2117C0.529299 14.6692 0 17.2779 0 20C0 22.6843 0.529299 25.293 1.5879 27.7883C2.60869 30.1701 4.04537 32.2873 5.86011 34.1399C7.67486 35.9546 9.82986 37.4291 12.2117 38.4121C14.6692 39.4707 17.2779 40 20 40C22.7221 40 25.293 39.4707 27.7883 38.4121C30.1701 37.3913 32.2873 35.9546 34.1399 34.1399C35.9546 32.3251 37.4291 30.1701 38.4121 27.7883C39.4707 25.3308 40 22.7221 40 20C40 17.3157 39.4707 14.707 38.4121 12.2117C37.3913 9.82987 35.9546 7.71267 34.1399 5.86012C32.3251 4.04537 30.1701 2.57089 27.7883 1.5879C25.293 0.529302 22.6843 0 20 0Z" fill="white"/>
<path d="M19.9999 3.89453C11.1153 3.89453 3.93188 11.0779 3.93188 19.9626C3.93188 28.8473 11.1153 36.0306 19.9999 36.0306C28.8846 36.0306 36.068 28.8473 36.068 19.9626C36.0302 11.0779 28.8468 3.89453 19.9999 3.89453ZM15.3875 18.0344L12.93 20.4919H15.3875V23.1762C15.3875 25.1044 13.8374 26.6167 11.947 26.6167C10.0188 26.6167 8.50656 25.0666 8.50656 23.1762V16.7868C8.50656 14.8586 10.0567 13.3463 11.947 13.3463C13.8752 13.3463 15.3875 14.8964 15.3875 16.7868V18.0344ZM31.5311 20.4919V23.1762C31.5311 25.1044 29.981 26.6167 28.0907 26.6167C26.2003 26.6167 24.6502 25.0666 24.6502 23.1762V16.7868C24.6502 14.8586 26.2003 13.3463 28.0907 13.3463C29.981 13.3463 31.5311 14.8964 31.5311 16.7868V18.0722L29.0737 20.5297H31.5311V20.4919Z" fill="white"/>
</svg>
