<svg width="14" height="13" viewBox="0 0 14 13" fill="none" xmlns="http://www.w3.org/2000/svg">
<path d="M7.00007 1.06406C6.27367 0.396127 5.32288 0.0254217 4.33607 0.0253906C3.81376 0.0259344 3.29672 0.129764 2.81469 0.330903C2.33267 0.532042 1.89518 0.82652 1.5274 1.19739C-0.0412649 2.77272 -0.0405982 5.23672 1.52874 6.80539L6.41674 11.6934C6.53007 11.8927 6.74874 12.0214 7.00007 12.0214C7.10327 12.0204 7.20479 11.9952 7.29649 11.9478C7.38819 11.9005 7.46751 11.8323 7.52807 11.7487L12.4714 6.80539C14.0407 5.23606 14.0407 2.77272 12.4701 1.19472C12.1025 0.824535 11.6653 0.530655 11.1838 0.329979C10.7022 0.129304 10.1858 0.0257904 9.66407 0.0253906C8.67729 0.0255519 7.72654 0.396239 7.00007 1.06406ZM11.5274 2.13739C12.5694 3.18472 12.5701 4.82072 11.5287 5.86272L7.00007 10.3914L2.4714 5.86272C1.43007 4.82072 1.43074 3.18472 2.47007 2.14006C2.97674 1.63606 3.6394 1.35872 4.33607 1.35872C5.03274 1.35872 5.69274 1.63606 6.1954 2.13872L6.52874 2.47206C6.59059 2.53402 6.66406 2.58318 6.74494 2.61672C6.82582 2.65026 6.91251 2.66752 7.00007 2.66752C7.08762 2.66752 7.17432 2.65026 7.2552 2.61672C7.33607 2.58318 7.40954 2.53402 7.4714 2.47206L7.80474 2.13872C8.81274 1.13272 10.5207 1.13539 11.5274 2.13739Z" fill="#9A9C9D"/>
</svg>
