<svg width="4" height="12" viewBox="0 0 4 12" fill="none" xmlns="http://www.w3.org/2000/svg">
<path d="M2.00008 4.66797C1.26675 4.66797 0.666748 5.26797 0.666748 6.0013C0.666748 6.73463 1.26675 7.33463 2.00008 7.33463C2.73341 7.33463 3.33341 6.73463 3.33341 6.0013C3.33341 5.26797 2.73341 4.66797 2.00008 4.66797ZM2.00008 0.667969C1.26675 0.667969 0.666748 1.26797 0.666748 2.0013C0.666748 2.73464 1.26675 3.33464 2.00008 3.33464C2.73341 3.33464 3.33341 2.73464 3.33341 2.0013C3.33341 1.26797 2.73341 0.667969 2.00008 0.667969ZM2.00008 8.66797C1.26675 8.66797 0.666748 9.26797 0.666748 10.0013C0.666748 10.7346 1.26675 11.3346 2.00008 11.3346C2.73341 11.3346 3.33341 10.7346 3.33341 10.0013C3.33341 9.26797 2.73341 8.66797 2.00008 8.66797Z" fill="#9A9C9D"/>
</svg>
