<svg width="158" height="120" viewBox="0 0 158 120" fill="none" xmlns="http://www.w3.org/2000/svg">
<path d="M71.676 83.4547C70.5787 79.3576 65.0378 81.0899 62.0478 80.0175C61.5815 79.8525 61.4718 79.5776 61.3621 79.1376C61.3895 78.4502 62.0478 77.8727 62.7336 77.4052C65.2298 75.8104 68.5489 76.5528 70.5239 78.7801C70.7982 79.1376 71.4017 78.8076 71.2371 78.3677C69.4815 73.4181 61.7735 72.8406 59.1951 77.5152C57.8784 79.99 60.0728 82.6848 62.6513 82.7123C64.3794 82.9048 66.0527 82.9873 67.6985 83.1798C68.2197 83.2623 68.7958 83.2898 69.0701 83.5922C69.701 84.5271 68.8232 85.4346 67.9454 86.012C66.7933 86.782 65.3669 87.0294 63.968 86.8095C62.5416 86.5895 61.1426 85.8745 60.1003 84.6646C59.8534 84.3347 59.2774 84.6371 59.4419 85.0496C60.8135 88.7893 65.8881 90.1917 69.2072 88.0743C70.6885 87.2769 72.252 85.4346 71.676 83.4547Z" fill="white"/>
<path d="M59.7987 88.7338C58.7838 88.1838 57.1928 87.0014 56.5619 85.4616C56.3973 84.6091 56.3973 83.7567 56.5345 82.9318V82.9593C56.5893 82.5743 56.6442 82.1618 56.6442 81.7494C56.6442 77.5697 53.2702 74.1875 49.1008 74.1875C44.9313 74.1875 41.5574 77.5697 41.5574 81.7494C41.5574 85.929 44.9313 89.3112 49.1008 89.3112C51.3227 89.3112 53.2977 88.3488 54.6692 86.809C56.3424 88.4863 58.0706 88.7613 59.5244 89.2562C59.881 89.4487 60.1553 88.9263 59.7987 88.7338ZM49.1008 86.7815C46.3303 86.7815 44.081 84.5266 44.081 81.7494C44.081 78.9721 46.3303 76.7173 49.1008 76.7173C51.8713 76.7173 54.1206 78.9721 54.1206 81.7494C54.1206 84.5266 51.8713 86.7815 49.1008 86.7815Z" fill="white"/>
<path d="M33.4927 74.2146C28.9392 73.6921 25.0441 77.2943 25.099 81.7764C25.099 90.0532 27.65 92.803 29.8719 94.5354C30.1462 94.8378 30.5851 94.4254 30.3108 94.1229C29.0215 92.6105 27.9243 90.1632 28.6924 88.1559C39.4177 93.9854 45.5622 76.3594 33.4927 74.2146ZM33.1361 86.7535C26.1962 87.2485 25.7573 76.8543 32.6424 76.6893C38.8965 76.6893 39.3629 86.1211 33.1361 86.7535Z" fill="white"/>
<path d="M106.239 88.7338C105.224 88.1838 103.633 87.0014 103.002 85.4616C102.837 84.6091 102.837 83.7567 102.974 82.9318V82.9593C103.029 82.5743 103.084 82.1618 103.084 81.7494C103.084 77.5697 99.7102 74.1875 95.5407 74.1875C91.3713 74.1875 87.9973 77.5697 87.9973 81.7494C87.9973 85.929 91.3713 89.3112 95.5407 89.3112C97.7626 89.3112 99.7376 88.3488 101.109 86.809C102.782 88.4863 104.511 88.7613 105.964 89.2562C106.293 89.4487 106.568 88.9263 106.239 88.7338ZM95.5133 86.7815C92.7428 86.7815 90.4935 84.5266 90.4935 81.7494C90.4935 78.9721 92.7428 76.7173 95.5133 76.7173C98.2838 76.7173 100.533 78.9721 100.533 81.7494C100.533 84.5266 98.2838 86.7815 95.5133 86.7815Z" fill="white"/>
<path d="M86.3239 83.4547C85.2267 79.3576 79.6857 81.0899 76.6958 80.0175C76.2295 79.8525 76.1198 79.5776 76.01 79.1376C76.0375 78.4502 76.6958 77.8727 77.3816 77.4052C79.8777 75.8104 83.1968 76.5528 85.1718 78.7801C85.4461 79.1376 86.0496 78.8076 85.885 78.3677C84.1295 73.4181 76.4215 72.8406 73.843 77.5152C72.5264 79.99 74.7208 82.6848 77.2993 82.7123C79.0274 82.9048 80.7007 82.9873 82.3465 83.1798C82.8677 83.2623 83.4437 83.2898 83.718 83.5922C84.3489 84.5271 83.4711 85.4346 82.5934 86.012C81.4413 86.782 80.0149 87.0294 78.6159 86.8095C77.1895 86.5895 75.7906 85.8745 74.7482 84.6646C74.5014 84.3347 73.9253 84.6371 74.0899 85.0496C75.4614 88.7893 80.5361 90.1917 83.8552 88.0743C85.3364 87.2769 86.9274 85.4346 86.3239 83.4547Z" fill="white"/>
<path d="M116.525 88.1552C117.293 90.1625 116.196 92.6098 114.907 94.1222C114.632 94.4247 115.071 94.8096 115.345 94.5347C117.567 92.8023 120.118 90.08 120.118 81.7757C120.146 77.2936 116.278 73.7189 111.725 74.2139C99.6552 76.3587 105.8 93.9847 116.525 88.1552ZM112.575 76.6886C119.46 76.8536 119.021 87.2203 112.081 86.7528C105.855 86.1204 106.321 76.6886 112.575 76.6886Z" fill="white"/>
<path d="M135.096 85.0213C132.133 87.7436 125.605 87.7161 124.48 82.7665C126.318 82.684 133.148 84.0864 135.342 80.7041C137.811 75.4796 127.113 70.75 123.026 78.0094C118.034 86.3412 131.036 93.5731 135.672 85.4612C135.891 85.0763 135.37 84.7188 135.096 85.0213ZM132.709 80.2092C130.954 81.5016 126.153 81.0616 124.617 80.8691C125.083 77.0744 130.35 75.4246 132.846 77.9819C133.477 78.6143 133.422 79.6867 132.709 80.2092Z" fill="white"/>
<path d="M79.9326 34.2608C87.2566 34.2608 93.1816 40.2003 93.1816 47.5422C93.1816 54.8841 87.2566 60.8236 79.9326 60.8236C72.6087 60.8236 66.6837 54.8841 66.6837 47.5422C66.6837 40.2003 72.6087 34.2608 79.9326 34.2608ZM79.9326 33.0234C77.9851 33.0234 76.0924 33.4084 74.2819 34.1783C72.5538 34.9208 71.0177 35.9657 69.6736 37.2856C68.3569 38.6055 67.2872 40.1728 66.574 41.9052C65.8059 43.6925 65.4219 45.5899 65.4219 47.5697C65.4219 49.5221 65.8059 51.4194 66.574 53.2343C67.3146 54.9666 68.3569 56.5065 69.6736 57.8539C70.9903 59.1738 72.5538 60.2462 74.2819 60.9611C76.0649 61.731 77.9576 62.116 79.9326 62.116C81.9076 62.116 83.7729 61.731 85.5833 60.9611C87.3115 60.2187 88.8476 59.1738 90.1917 57.8539C91.5083 56.534 92.5781 54.9666 93.2913 53.2343C94.0594 51.4469 94.4434 49.5496 94.4434 47.5697C94.4434 45.6174 94.0594 43.72 93.2913 41.9052C92.5507 40.1728 91.5083 38.633 90.1917 37.2856C88.875 35.9657 87.3115 34.8933 85.5833 34.1783C83.7729 33.4084 81.8802 33.0234 79.9326 33.0234Z" fill="white"/>
<path d="M79.9326 35.8555C73.4865 35.8555 68.2747 41.08 68.2747 47.542C68.2747 54.004 73.4865 59.2285 79.9326 59.2285C86.3788 59.2285 91.5906 54.004 91.5906 47.542C91.5632 41.08 86.3514 35.8555 79.9326 35.8555ZM76.5861 46.1396L74.8031 47.927H76.5861V49.8793C76.5861 51.2817 75.4615 52.3816 74.0899 52.3816C72.691 52.3816 71.5938 51.2542 71.5938 49.8793V45.2322C71.5938 43.8298 72.7184 42.7299 74.0899 42.7299C75.4889 42.7299 76.5861 43.8573 76.5861 45.2322V46.1396ZM88.299 47.927V49.8793C88.299 51.2817 87.1743 52.3816 85.8028 52.3816C84.4313 52.3816 83.3066 51.2542 83.3066 49.8793V45.2322C83.3066 43.8298 84.4313 42.7299 85.8028 42.7299C87.1743 42.7299 88.299 43.8573 88.299 45.2322V46.1671L86.516 47.9545H88.299V47.927Z" fill="white"/>
</svg>
