<svg width="21" height="23" viewBox="0 0 21 23" fill="none" xmlns="http://www.w3.org/2000/svg">
<g clip-path="url(#clip0_1276_52703)">
<path d="M17 8.48103C16.9407 9.34888 16.9644 10.2382 16.8101 11.0953C16.2046 14.6096 14.1389 17.2239 10.6959 18.9489C10.5416 19.0239 10.411 19.0239 10.2567 18.9489C6.97995 17.3096 4.93794 14.8346 4.21374 11.5025C4.07128 10.8489 4.03566 10.1739 4.01192 9.5096C3.9763 8.6096 4.01192 7.69888 4.00004 6.79888C4.00004 6.57388 4.09502 6.45603 4.32059 6.37031C6.29137 5.6096 8.26215 4.82746 10.2448 4.05603C10.411 3.99174 10.5653 3.99174 10.7316 4.05603C12.7023 4.83817 14.6731 5.6096 16.6558 6.38103C16.8813 6.46674 16.9763 6.5846 16.9644 6.8096C16.9526 7.36674 16.9644 7.92388 16.9644 8.48103C16.9763 8.48103 17 8.48103 17.0119 8.48103H17ZM9.16443 11.7917C8.80826 11.4703 8.48772 11.1703 8.1553 10.881C7.95347 10.6989 7.78726 10.6989 7.58543 10.881C7.22927 11.2025 6.8731 11.5239 6.51694 11.856C6.30324 12.0489 6.30324 12.1882 6.51694 12.381C7.3005 13.0882 8.08406 13.806 8.86762 14.5132C9.08132 14.706 9.24753 14.706 9.44936 14.5132C11.1115 13.0025 12.7854 11.5025 14.4475 9.99174C14.6612 9.78817 14.6612 9.64888 14.4475 9.44531C14.1032 9.1346 13.7589 8.82388 13.4147 8.51317C13.1653 8.28817 13.0229 8.29888 12.7736 8.51317C11.7882 9.40245 10.8028 10.2917 9.82927 11.181C9.61557 11.3739 9.40187 11.5775 9.16443 11.7917Z" fill="white"/>
</g>
<defs>
<clipPath id="clip0_1276_52703">
<rect width="13" height="15" fill="white" transform="translate(4 4)"/>
</clipPath>
</defs>
</svg>
