<svg width="17" height="16" viewBox="0 0 17 16" fill="none" xmlns="http://www.w3.org/2000/svg">
<path d="M13.7601 6.73536C13.616 6.39581 13.4399 6.07078 13.2341 5.7647L12.1288 6.5107C12.4473 6.98425 12.6708 7.51521 12.7868 8.07403C12.9049 8.65654 12.9049 9.25685 12.7868 9.83937C12.7289 10.1207 12.6431 10.3956 12.5308 10.66C12.4216 10.9198 12.2869 11.1681 12.1288 11.4014C11.8128 11.8674 11.411 12.269 10.9448 12.5847C10.4716 12.9031 9.94113 13.1266 9.38277 13.2427C8.80055 13.3594 8.20098 13.3594 7.61877 13.2427C6.78081 13.0705 6.01187 12.6561 5.40744 12.0507C5.00817 11.6512 4.68949 11.1786 4.46877 10.6587C4.3574 10.3943 4.27211 10.1197 4.2141 9.8387C4.03812 8.97109 4.12684 8.07061 4.46877 7.25403C4.68864 6.73422 5.00718 6.26196 5.40677 5.86336C5.80618 5.46477 6.27824 5.14637 6.79744 4.92536C7.06077 4.81403 7.33743 4.72803 7.61743 4.6707C7.68877 4.65603 7.76144 4.64936 7.83344 4.63803V6.66536L11.1668 3.9987L7.83344 1.33203V3.2907C7.67137 3.30864 7.51011 3.33333 7.3501 3.3647C6.61954 3.5144 5.92565 3.80664 5.3081 4.2247C4.21109 4.96471 3.40512 6.06273 3.02793 7.33111C2.65074 8.59948 2.72573 9.95949 3.2401 11.1787C3.52646 11.8575 3.94193 12.4743 4.46344 12.9947C4.98423 13.5145 5.60007 13.9293 6.27744 14.2167C7.34233 14.6672 8.51906 14.7833 9.65143 14.5494C10.5579 14.362 11.4053 13.9574 12.1208 13.3703C12.8364 12.7832 13.3987 12.0311 13.7594 11.1787C13.9061 10.832 14.0188 10.4714 14.0928 10.1067C14.2473 9.34782 14.2473 8.56557 14.0928 7.8067C14.0168 7.43966 13.9054 7.08086 13.7601 6.73536Z" fill="#C4C4C4"/>
</svg>
