<svg width="50" height="48" viewBox="0 0 50 48" fill="none" xmlns="http://www.w3.org/2000/svg">
<g clip-path="url(#clip0_1605_70678)">
<path d="M28.2351 36.0918C28.9763 35.2508 29.9902 35.1481 30.7541 35.8085C31.5287 36.4788 31.5438 37.523 30.7929 38.3899C30.364 38.8839 29.9352 39.379 29.5064 39.873C29.529 39.9217 29.5506 39.9703 29.5732 40.019C31.1807 39.7974 32.7958 39.6223 34.3925 39.3444C37.4535 38.8137 40.4325 38.0008 43.1746 36.4788C44.2272 35.8939 45.2497 35.2583 45.9834 34.2692C46.7624 33.2207 46.771 32.131 45.9823 31.0933C45.6817 30.6977 45.3089 30.3517 44.9426 30.0112C44.1658 29.2902 44.0559 28.2611 44.697 27.5152C45.3316 26.7769 46.3863 26.7153 47.1901 27.3996C47.5844 27.7358 47.9615 28.1001 48.3031 28.4892C50.5764 31.0803 50.5613 34.2217 48.2804 36.8106C47.0619 38.1932 45.561 39.1899 43.9201 39.9833C40.2849 41.7399 36.4051 42.6133 32.4305 43.129C31.5309 43.2457 30.628 43.3279 29.7154 43.4284C29.7435 43.5052 29.7445 43.5484 29.7672 43.5678C30.2628 44.0089 30.7638 44.4424 31.2572 44.8867C32.0696 45.6174 32.1827 46.6703 31.5352 47.4162C30.8888 48.1609 29.8146 48.1934 28.9968 47.4799C27.4432 46.1244 25.8928 44.7656 24.3477 43.4014C23.4589 42.6155 23.3878 41.6578 24.1678 40.7519C25.5135 39.1888 26.8711 37.6365 28.2351 36.0896V36.0918Z" fill="#B1B1B1"/>
<path d="M3.81965 27.1915C4.50274 26.6758 5.50258 26.8953 6.04129 27.5612C6.60047 28.2519 6.55415 29.2248 5.9217 29.8637C5.69437 30.0928 5.43794 30.2907 5.2106 30.5198C3.77656 31.9662 3.73885 33.4439 5.25155 34.8092C6.10486 35.5799 7.08962 36.2501 8.10994 36.7809C11.3594 38.4726 14.8944 39.2099 18.4898 39.6909C19.5769 39.8368 20.2794 40.6119 20.1846 41.5967C20.0887 42.6031 19.2117 43.2689 18.1052 43.123C14.8147 42.6895 11.5868 41.988 8.49565 40.7492C6.47442 39.9395 4.5523 38.9483 2.96957 37.4079C1.62926 36.1031 0.717766 34.5811 0.701605 32.4061C0.782412 30.269 2.01498 28.5524 3.81858 27.1915H3.81965Z" fill="#B1B1B1"/>
<path d="M25.4187 33.2186C16.2759 33.2186 8.86419 25.7824 8.86419 16.6093C8.86419 7.43624 16.2759 0 25.4187 0C34.5615 0 41.9733 7.43624 41.9733 16.6093C41.9733 25.7824 34.5615 33.2186 25.4187 33.2186Z" fill="#707070"/>
</g>
<defs>
<clipPath id="clip0_1605_70678">
<rect width="49.2973" height="48" fill="white" transform="matrix(-1 0 0 1 50 0)"/>
</clipPath>
</defs>
</svg>
