<svg width="726" height="52" viewBox="0 0 726 52" fill="none" xmlns="http://www.w3.org/2000/svg">
<path d="M26 32C27.775 31.9996 29.4988 31.4054 30.897 30.312L35.293 34.708L36.707 33.294L32.311 28.898C33.405 27.4997 33.9996 25.7754 34 24C34 19.589 30.411 16 26 16C21.589 16 18 19.589 18 24C18 28.411 21.589 32 26 32ZM26 18C29.309 18 32 20.691 32 24C32 27.309 29.309 30 26 30C22.691 30 20 27.309 20 24C20 20.691 22.691 18 26 18Z" fill="#C4C4C4"/>
<path d="M27.4121 22.5871C27.7911 22.9671 28.0001 23.4691 28.0001 24.0011H30.0001C30.001 23.4755 29.8977 22.955 29.6961 22.4695C29.4946 21.9841 29.1989 21.5435 28.8261 21.1731C27.3121 19.6611 24.6871 19.6611 23.1741 21.1731L24.5861 22.5891C25.3461 21.8311 26.6561 21.8331 27.4121 22.5871Z" fill="#C4C4C4"/>
<path d="M59.0137 28.3408C59.0137 29.2204 58.6947 29.9062 58.0566 30.3984C57.4186 30.8906 56.5527 31.1367 55.459 31.1367C54.2741 31.1367 53.3626 30.984 52.7246 30.6787V29.5576C53.1348 29.7308 53.5814 29.8675 54.0645 29.9678C54.5475 30.068 55.026 30.1182 55.5 30.1182C56.2747 30.1182 56.8581 29.9723 57.25 29.6807C57.6419 29.3844 57.8379 28.9743 57.8379 28.4502C57.8379 28.1038 57.7673 27.8213 57.626 27.6025C57.4893 27.3792 57.2568 27.1742 56.9287 26.9873C56.6051 26.8005 56.1107 26.5885 55.4453 26.3516C54.5156 26.0189 53.8503 25.6247 53.4492 25.1689C53.0527 24.7132 52.8545 24.1185 52.8545 23.3848C52.8545 22.6146 53.1439 22.0016 53.7227 21.5459C54.3014 21.0902 55.0671 20.8623 56.0195 20.8623C57.013 20.8623 57.9268 21.0446 58.7607 21.4092L58.3984 22.4209C57.5736 22.0745 56.7715 21.9014 55.9922 21.9014C55.377 21.9014 54.8962 22.0335 54.5498 22.2979C54.2035 22.5622 54.0303 22.929 54.0303 23.3984C54.0303 23.7448 54.0941 24.0296 54.2217 24.2529C54.3493 24.4717 54.5635 24.6745 54.8643 24.8613C55.1696 25.0436 55.6344 25.2464 56.2588 25.4697C57.307 25.8434 58.027 26.2445 58.4189 26.6729C58.8154 27.1012 59.0137 27.6572 59.0137 28.3408ZM64.0518 31.1367C62.9443 31.1367 62.0693 30.7995 61.4268 30.125C60.7887 29.4505 60.4697 28.514 60.4697 27.3154C60.4697 26.1077 60.766 25.1484 61.3584 24.4375C61.9554 23.7266 62.7552 23.3711 63.7578 23.3711C64.6966 23.3711 65.4395 23.681 65.9863 24.3008C66.5332 24.916 66.8066 25.7295 66.8066 26.7412V27.459H61.6455C61.6683 28.3385 61.8893 29.0062 62.3086 29.4619C62.7324 29.9176 63.3271 30.1455 64.0928 30.1455C64.8994 30.1455 65.6969 29.9769 66.4854 29.6396V30.6514C66.0843 30.8245 65.7038 30.9476 65.3438 31.0205C64.9883 31.098 64.5576 31.1367 64.0518 31.1367ZM63.7441 24.3213C63.1426 24.3213 62.6618 24.5173 62.3018 24.9092C61.9463 25.3011 61.7367 25.8434 61.6729 26.5361H65.5898C65.5898 25.8206 65.4303 25.2738 65.1113 24.8955C64.7923 24.5127 64.3366 24.3213 63.7441 24.3213ZM73.3555 31L73.1299 29.9336H73.0752C72.7015 30.403 72.3278 30.722 71.9541 30.8906C71.585 31.0547 71.1224 31.1367 70.5664 31.1367C69.8236 31.1367 69.2402 30.9453 68.8164 30.5625C68.3971 30.1797 68.1875 29.6351 68.1875 28.9287C68.1875 27.4157 69.3975 26.6227 71.8174 26.5498L73.0889 26.5088V26.0439C73.0889 25.4561 72.9613 25.0231 72.7061 24.7451C72.4554 24.4626 72.0521 24.3213 71.4961 24.3213C70.8717 24.3213 70.1654 24.5127 69.377 24.8955L69.0283 24.0273C69.3975 23.8268 69.8008 23.6696 70.2383 23.5557C70.6803 23.4417 71.1224 23.3848 71.5645 23.3848C72.4577 23.3848 73.1185 23.583 73.5469 23.9795C73.9798 24.376 74.1963 25.0117 74.1963 25.8867V31H73.3555ZM70.792 30.2002C71.4984 30.2002 72.0521 30.0065 72.4531 29.6191C72.8587 29.2318 73.0615 28.6895 73.0615 27.9922V27.3154L71.9268 27.3633C71.0244 27.3952 70.3727 27.5365 69.9717 27.7871C69.5752 28.0332 69.377 28.4183 69.377 28.9424C69.377 29.3525 69.5 29.6647 69.7461 29.8789C69.9967 30.0931 70.3454 30.2002 70.792 30.2002ZM79.959 23.3711C80.2917 23.3711 80.5902 23.3984 80.8545 23.4531L80.6973 24.5059C80.3874 24.4375 80.1139 24.4033 79.877 24.4033C79.2708 24.4033 78.7513 24.6494 78.3184 25.1416C77.89 25.6338 77.6758 26.2467 77.6758 26.9805V31H76.541V23.5078H77.4775L77.6074 24.8955H77.6621C77.9401 24.4079 78.2751 24.0319 78.667 23.7676C79.0589 23.5033 79.4896 23.3711 79.959 23.3711ZM85.25 31.1367C84.1654 31.1367 83.3245 30.804 82.7275 30.1387C82.1351 29.4688 81.8389 28.5231 81.8389 27.3018C81.8389 26.0485 82.1396 25.0801 82.7412 24.3965C83.3473 23.7129 84.2087 23.3711 85.3252 23.3711C85.6852 23.3711 86.0452 23.4098 86.4053 23.4873C86.7653 23.5648 87.0479 23.6559 87.2529 23.7607L86.9043 24.7246C86.6536 24.6243 86.3802 24.5423 86.084 24.4785C85.7878 24.4102 85.5257 24.376 85.2979 24.376C83.7757 24.376 83.0146 25.3467 83.0146 27.2881C83.0146 28.2087 83.1992 28.915 83.5684 29.4072C83.9421 29.8994 84.4935 30.1455 85.2227 30.1455C85.847 30.1455 86.4873 30.0111 87.1436 29.7422V30.7471C86.6423 31.0068 86.0111 31.1367 85.25 31.1367ZM94.0547 31V26.1533C94.0547 25.5426 93.9157 25.0869 93.6377 24.7861C93.3597 24.4854 92.9245 24.335 92.332 24.335C91.5436 24.335 90.9671 24.5492 90.6025 24.9775C90.2425 25.4059 90.0625 26.1077 90.0625 27.083V31H88.9277V20.3633H90.0625V23.583C90.0625 23.9704 90.0443 24.2917 90.0078 24.5469H90.0762C90.2995 24.1868 90.6162 23.9043 91.0264 23.6992C91.4411 23.4896 91.9128 23.3848 92.4414 23.3848C93.3574 23.3848 94.0433 23.6035 94.499 24.041C94.9593 24.474 95.1895 25.1644 95.1895 26.1123V31H94.0547ZM97.3633 30.2754C97.3633 29.9701 97.4316 29.7399 97.5684 29.585C97.7096 29.4255 97.9102 29.3457 98.1699 29.3457C98.4342 29.3457 98.6393 29.4255 98.7852 29.585C98.9355 29.7399 99.0107 29.9701 99.0107 30.2754C99.0107 30.5716 98.9355 30.7995 98.7852 30.959C98.6348 31.1185 98.4297 31.1982 98.1699 31.1982C97.9375 31.1982 97.7438 31.1276 97.5889 30.9863C97.4385 30.8405 97.3633 30.6035 97.3633 30.2754ZM101.096 30.2754C101.096 29.9701 101.164 29.7399 101.301 29.585C101.442 29.4255 101.643 29.3457 101.902 29.3457C102.167 29.3457 102.372 29.4255 102.518 29.585C102.668 29.7399 102.743 29.9701 102.743 30.2754C102.743 30.5716 102.668 30.7995 102.518 30.959C102.367 31.1185 102.162 31.1982 101.902 31.1982C101.67 31.1982 101.476 31.1276 101.321 30.9863C101.171 30.8405 101.096 30.6035 101.096 30.2754ZM104.828 30.2754C104.828 29.9701 104.896 29.7399 105.033 29.585C105.174 29.4255 105.375 29.3457 105.635 29.3457C105.899 29.3457 106.104 29.4255 106.25 29.585C106.4 29.7399 106.476 29.9701 106.476 30.2754C106.476 30.5716 106.4 30.7995 106.25 30.959C106.1 31.1185 105.895 31.1982 105.635 31.1982C105.402 31.1982 105.209 31.1276 105.054 30.9863C104.903 30.8405 104.828 30.6035 104.828 30.2754Z" fill="#616465"/>
<path d="M562 30H563.08V23H562V30ZM565.076 30H566.116V26.98C566.116 25.08 566.036 24.13 566.036 24.13L566.056 24.12C566.056 24.12 566.536 24.93 567.716 26.47L570.416 30H571.676V23H570.626V26.02C570.626 27.92 570.706 28.87 570.706 28.87L570.686 28.88C570.686 28.88 570.206 28.07 569.026 26.53L566.326 23H565.076V30Z" fill="#C4C4C4"/>
<path d="M602.77 25.7637H606.167V30.624C605.638 30.7926 605.101 30.9202 604.554 31.0068C604.007 31.0934 603.373 31.1367 602.653 31.1367C601.14 31.1367 599.962 30.6878 599.119 29.79C598.276 28.8877 597.854 27.6253 597.854 26.0029C597.854 24.9639 598.062 24.0547 598.477 23.2754C598.896 22.4915 599.497 21.8945 600.281 21.4844C601.065 21.0697 601.983 20.8623 603.036 20.8623C604.103 20.8623 605.096 21.0583 606.017 21.4502L605.565 22.4756C604.663 22.0928 603.795 21.9014 602.961 21.9014C601.744 21.9014 600.794 22.2637 600.11 22.9883C599.427 23.7129 599.085 24.7178 599.085 26.0029C599.085 27.3519 599.413 28.375 600.069 29.0723C600.73 29.7695 601.699 30.1182 602.975 30.1182C603.667 30.1182 604.344 30.0384 605.005 29.8789V26.8027H602.77V25.7637ZM609.537 31H608.402V20.3633H609.537V31ZM618.41 27.2471C618.41 28.4684 618.103 29.4232 617.487 30.1113C616.872 30.7949 616.022 31.1367 614.938 31.1367C614.268 31.1367 613.673 30.9795 613.153 30.665C612.634 30.3506 612.233 29.8994 611.95 29.3115C611.668 28.7236 611.526 28.0355 611.526 27.2471C611.526 26.0257 611.832 25.0755 612.442 24.3965C613.053 23.7129 613.901 23.3711 614.985 23.3711C616.034 23.3711 616.865 23.7197 617.48 24.417C618.1 25.1143 618.41 26.0576 618.41 27.2471ZM612.702 27.2471C612.702 28.2041 612.894 28.9333 613.276 29.4346C613.659 29.9359 614.222 30.1865 614.965 30.1865C615.708 30.1865 616.271 29.9382 616.653 29.4414C617.041 28.9401 617.234 28.2087 617.234 27.2471C617.234 26.2946 617.041 25.5723 616.653 25.0801C616.271 24.5833 615.703 24.335 614.951 24.335C614.208 24.335 613.648 24.5788 613.27 25.0664C612.891 25.554 612.702 26.2809 612.702 27.2471ZM623.893 23.3848C624.877 23.3848 625.64 23.722 626.183 24.3965C626.729 25.0664 627.003 26.0166 627.003 27.2471C627.003 28.4775 626.727 29.4346 626.176 30.1182C625.629 30.7972 624.868 31.1367 623.893 31.1367C623.405 31.1367 622.958 31.0479 622.553 30.8701C622.152 30.6878 621.814 30.4098 621.541 30.0361H621.459L621.22 31H620.406V20.3633H621.541V22.9473C621.541 23.526 621.523 24.0456 621.486 24.5059H621.541C622.07 23.7585 622.854 23.3848 623.893 23.3848ZM623.729 24.335C622.954 24.335 622.396 24.5583 622.054 25.0049C621.712 25.4469 621.541 26.1943 621.541 27.2471C621.541 28.2998 621.716 29.054 622.067 29.5098C622.418 29.9609 622.981 30.1865 623.756 30.1865C624.453 30.1865 624.973 29.9336 625.314 29.4277C625.656 28.9173 625.827 28.1859 625.827 27.2334C625.827 26.2581 625.656 25.5312 625.314 25.0527C624.973 24.5742 624.444 24.335 623.729 24.335ZM633.6 31L633.374 29.9336H633.319C632.946 30.403 632.572 30.722 632.198 30.8906C631.829 31.0547 631.367 31.1367 630.811 31.1367C630.068 31.1367 629.484 30.9453 629.061 30.5625C628.641 30.1797 628.432 29.6351 628.432 28.9287C628.432 27.4157 629.642 26.6227 632.062 26.5498L633.333 26.5088V26.0439C633.333 25.4561 633.205 25.0231 632.95 24.7451C632.7 24.4626 632.296 24.3213 631.74 24.3213C631.116 24.3213 630.41 24.5127 629.621 24.8955L629.272 24.0273C629.642 23.8268 630.045 23.6696 630.482 23.5557C630.924 23.4417 631.367 23.3848 631.809 23.3848C632.702 23.3848 633.363 23.583 633.791 23.9795C634.224 24.376 634.44 25.0117 634.44 25.8867V31H633.6ZM631.036 30.2002C631.743 30.2002 632.296 30.0065 632.697 29.6191C633.103 29.2318 633.306 28.6895 633.306 27.9922V27.3154L632.171 27.3633C631.269 27.3952 630.617 27.5365 630.216 27.7871C629.819 28.0332 629.621 28.4183 629.621 28.9424C629.621 29.3525 629.744 29.6647 629.99 29.8789C630.241 30.0931 630.59 30.2002 631.036 30.2002ZM637.92 31H636.785V20.3633H637.92V31Z" fill="white"/>
<path d="M703.862 24.1953L701 27.0573L698.138 24.1953L697.195 25.138L701 28.9426L704.805 25.138L703.862 24.1953Z" fill="white"/>
<rect x="0.5" y="0.5" width="725" height="51" rx="25.5" stroke="#C3CFD5"/>
</svg>
