<svg width="14" height="10" viewBox="0 0 14 10" fill="none" xmlns="http://www.w3.org/2000/svg">
<path d="M7.00003 0.332031C1.91136 0.332031 0.38203 4.74336 0.36803 4.78803L0.297363 4.9987L0.367363 5.20936C0.38203 5.25403 1.91136 9.66537 7.00003 9.66537C12.0887 9.66537 13.618 5.25403 13.632 5.20936L13.7027 4.9987L13.6327 4.78803C13.618 4.74336 12.0887 0.332031 7.00003 0.332031ZM7.00003 7.66536C5.52936 7.66536 4.33336 6.46936 4.33336 4.9987C4.33336 3.52803 5.52936 2.33203 7.00003 2.33203C8.4707 2.33203 9.6667 3.52803 9.6667 4.9987C9.6667 6.46936 8.4707 7.66536 7.00003 7.66536Z" fill="white"/>
</svg>
