<svg width="18" height="18" viewBox="0 0 18 18" fill="none" xmlns="http://www.w3.org/2000/svg">
<path d="M11.481 6.1824L11.3594 5.91321L9.30361 1.36238L9.30274 1.36046C9.27664 1.30201 9.23417 1.25236 9.18046 1.21751C9.12676 1.18266 9.06412 1.1641 9.0001 1.16406C8.93608 1.16403 8.87342 1.18252 8.81968 1.21731C8.76594 1.2521 8.72341 1.3017 8.69724 1.36013L8.69662 1.36152L6.64078 5.91318L6.51918 6.1824L6.22471 6.2058L1.47388 6.5833L1.47376 6.58331C1.40991 6.58837 1.34887 6.61171 1.29794 6.65055C1.24701 6.68939 1.20835 6.74208 1.18659 6.80232C1.16482 6.86255 1.16087 6.92778 1.17521 6.99021C1.18954 7.05263 1.22156 7.1096 1.26742 7.15431L1.26746 7.15434L4.77829 10.5768L4.97976 10.7732L4.91645 11.0474L3.67478 16.424L3.6747 16.4244C3.65962 16.4895 3.66446 16.5576 3.68858 16.6199C3.7127 16.6822 3.75499 16.7359 3.80997 16.7739C3.86495 16.8118 3.93008 16.8324 3.9969 16.8329C4.06372 16.8334 4.12915 16.8139 4.1847 16.7767L4.18525 16.7763L8.72275 13.7513L9.0001 13.5664L9.27745 13.7513L13.8142 16.7758C13.871 16.8136 13.9381 16.833 14.0063 16.8315C14.0746 16.83 14.1407 16.8077 14.1959 16.7675C14.251 16.7272 14.2925 16.6711 14.3148 16.6066C14.3371 16.5423 14.3391 16.4727 14.3207 16.4071C14.3207 16.407 14.3206 16.4068 14.3206 16.4066L12.7968 11.0748L12.7111 10.7746L12.9431 10.5657L16.7226 7.16449L11.481 6.1824ZM11.481 6.1824L11.7755 6.2058M11.481 6.1824L11.7755 6.2058M11.7755 6.2058L16.526 6.58327C16.5911 6.58848 16.6532 6.61263 16.7047 6.65273C16.7561 6.69278 16.7947 6.747 16.8157 6.80869M11.7755 6.2058L16.8157 6.80869M16.8157 6.80869C16.8583 6.93546 16.822 7.07449 16.7231 7.16404L16.8157 6.80869Z" stroke="white"/>
</svg>
