<svg width="14" height="12" viewBox="0 0 14 12" fill="none" xmlns="http://www.w3.org/2000/svg">
<path d="M12.333 2.80556V1.52778C12.333 0.823083 11.735 0.25 10.9997 0.25H2.33301C1.23034 0.25 0.333008 1.10994 0.333008 2.16667V9.83333C0.333008 11.2395 1.52901 11.75 2.33301 11.75H12.333C13.0683 11.75 13.6663 11.1769 13.6663 10.4722V4.08333C13.6663 3.37864 13.0683 2.80556 12.333 2.80556ZM10.9997 8.55556H9.66634V6H10.9997V8.55556ZM2.33301 2.80556C2.16135 2.7982 1.99928 2.72767 1.88053 2.60866C1.76177 2.48965 1.6955 2.33133 1.6955 2.16667C1.6955 2.002 1.76177 1.84368 1.88053 1.72467C1.99928 1.60566 2.16135 1.53514 2.33301 1.52778H10.9997V2.80556H2.33301Z" fill="#9A9C9D"/>
</svg>
