<svg width="16" height="16" viewBox="0 0 16 16" fill="none" xmlns="http://www.w3.org/2000/svg">
<path d="M5.33331 8.03385C6.66331 8.03385 7.66665 7.03052 7.66665 5.70052C7.66665 4.37052 6.66331 3.36719 5.33331 3.36719C4.00331 3.36719 2.99998 4.37052 2.99998 5.70052C2.99998 7.03052 4.00331 8.03385 5.33331 8.03385ZM5.99998 8.66585H4.66665C2.82865 8.66585 1.33331 10.1612 1.33331 11.9992V12.6659H9.33331V11.9992C9.33331 10.1612 7.83798 8.66585 5.99998 8.66585ZM13.5293 5.52719L10.6626 8.38852L9.80131 7.52719L8.85865 8.46985L10.6626 10.2725L14.4706 6.47119L13.5293 5.52719Z" fill="white"/>
</svg>
