<svg width="14" height="8" viewBox="0 0 14 8" fill="none" xmlns="http://www.w3.org/2000/svg">
<path fill-rule="evenodd" clip-rule="evenodd" d="M0.646039 0.646894C0.692485 0.60033 0.747661 0.563387 0.808406 0.538181C0.869151 0.512974 0.934272 0.5 1.00004 0.5C1.06581 0.5 1.13093 0.512974 1.19167 0.538181C1.25242 0.563387 1.30759 0.60033 1.35404 0.646894L7.00004 6.29389L12.646 0.646894C12.6925 0.600406 12.7477 0.563529 12.8085 0.53837C12.8692 0.513211 12.9343 0.500262 13 0.500262C13.0658 0.500262 13.1309 0.513211 13.1916 0.53837C13.2524 0.563529 13.3076 0.600406 13.354 0.646894C13.4005 0.693381 13.4374 0.748571 13.4626 0.80931C13.4877 0.870049 13.5007 0.93515 13.5007 1.00089C13.5007 1.06664 13.4877 1.13174 13.4626 1.19248C13.4374 1.25322 13.4005 1.30841 13.354 1.35489L7.35404 7.35489C7.30759 7.40146 7.25242 7.4384 7.19167 7.46361C7.13093 7.48881 7.06581 7.50179 7.00004 7.50179C6.93427 7.50179 6.86915 7.48881 6.80841 7.46361C6.74766 7.4384 6.69248 7.40146 6.64604 7.35489L0.646039 1.35489C0.599476 1.30845 0.562533 1.25327 0.537327 1.19253C0.51212 1.13178 0.499146 1.06666 0.499146 1.00089C0.499146 0.935126 0.51212 0.870005 0.537327 0.80926C0.562533 0.748515 0.599476 0.693339 0.646039 0.646894Z" fill="#9A9C9D"/>
</svg>
