<svg width="14" height="8" viewBox="0 0 14 8" fill="none" xmlns="http://www.w3.org/2000/svg">
<path fill-rule="evenodd" clip-rule="evenodd" d="M6.64602 0.646894C6.69247 0.60033 6.74764 0.563387 6.80839 0.538181C6.86913 0.512974 6.93425 0.5 7.00002 0.5C7.06579 0.5 7.13091 0.512974 7.19165 0.538181C7.2524 0.563387 7.30758 0.60033 7.35402 0.646894L13.354 6.64689C13.4479 6.74078 13.5007 6.86812 13.5007 7.00089C13.5007 7.13367 13.4479 7.26101 13.354 7.35489C13.2601 7.44878 13.1328 7.50152 13 7.50152C12.8672 7.50152 12.7399 7.44878 12.646 7.35489L7.00002 1.70789L1.35402 7.35489C1.26013 7.44878 1.1328 7.50152 1.00002 7.50152C0.867245 7.50152 0.739908 7.44878 0.646021 7.35489C0.552135 7.26101 0.49939 7.13367 0.49939 7.00089C0.49939 6.86812 0.552135 6.74078 0.646021 6.64689L6.64602 0.646894Z" fill="white"/>
</svg>
