<svg width="14" height="10" viewBox="0 0 14 10" fill="none" xmlns="http://www.w3.org/2000/svg">
<path d="M1.99999 2.70052C1.99999 4.03052 3.00333 5.03385 4.33333 5.03385C5.66333 5.03385 6.66666 4.03052 6.66666 2.70052C6.66666 1.37052 5.66333 0.367188 4.33333 0.367188C3.00333 0.367188 1.99999 1.37052 1.99999 2.70052ZM11.6667 2.33252H10.3333V4.33252H8.33333V5.66585H10.3333V7.66585H11.6667V5.66585H13.6667V4.33252H11.6667V2.33252ZM1.66666 9.66585H8.33333V8.99919C8.33333 7.16119 6.838 5.66585 5 5.66585H3.66666C1.82866 5.66585 0.333328 7.16119 0.333328 8.99919V9.66585H1.66666Z" fill="#C4C4C4"/>
</svg>
