<svg width="32" height="32" viewBox="0 0 32 32" fill="none" xmlns="http://www.w3.org/2000/svg">
<rect width="32" height="32" rx="16" fill="#141415"/>
<path d="M22.6313 14.1193C22.5894 13.9959 22.5122 13.8875 22.4094 13.8074C22.3066 13.7273 22.1825 13.6791 22.0526 13.6687L18.2519 13.3667L16.6073 9.72601C16.5549 9.60875 16.4697 9.50916 16.362 9.43925C16.2542 9.36934 16.1286 9.3321 16.0002 9.33203C15.8717 9.33196 15.746 9.36906 15.6382 9.43885C15.5304 9.50864 15.4451 9.60814 15.3926 9.72534L13.7479 13.3667L9.94727 13.6687C9.81957 13.6788 9.69749 13.7255 9.59564 13.8032C9.49378 13.8808 9.41646 13.9862 9.37293 14.1067C9.3294 14.2272 9.32149 14.3576 9.35017 14.4825C9.37884 14.6073 9.44287 14.7213 9.5346 14.8107L12.3433 17.5487L11.3499 21.85C11.3198 21.9802 11.3294 22.1165 11.3777 22.2411C11.4259 22.3657 11.5105 22.473 11.6205 22.549C11.7304 22.6249 11.8607 22.6661 11.9943 22.6671C12.128 22.6681 12.2588 22.629 12.3699 22.5547L15.9999 20.1347L19.6299 22.5547C19.7435 22.6301 19.8774 22.6689 20.0137 22.6659C20.15 22.6629 20.2821 22.6183 20.3922 22.538C20.5023 22.4577 20.5853 22.3456 20.6298 22.2167C20.6743 22.0879 20.6783 21.9485 20.6413 21.8173L19.4219 17.5507L22.4459 14.8293C22.6439 14.6507 22.7166 14.372 22.6313 14.1193Z" fill="white"/>
</svg>
