<svg width="18" height="18" viewBox="0 0 18 18" fill="none" xmlns="http://www.w3.org/2000/svg">
<path d="M17.2893 6.6482C17.2369 6.49392 17.1405 6.35836 17.0119 6.25825C16.8834 6.15814 16.7283 6.09787 16.5659 6.08487L11.8151 5.70737L9.75927 1.15654C9.6938 1.00996 9.5873 0.88547 9.45264 0.798083C9.31798 0.710697 9.1609 0.664151 9.00037 0.664063C8.83984 0.663975 8.68272 0.710348 8.54796 0.797587C8.4132 0.884826 8.30657 1.0092 8.24094 1.1557L6.1851 5.70737L1.43427 6.08487C1.27465 6.09751 1.12205 6.15588 0.994732 6.25298C0.867413 6.35008 0.770764 6.4818 0.716348 6.63239C0.661931 6.78298 0.652051 6.94606 0.687891 7.10212C0.72373 7.25818 0.803771 7.40061 0.918437 7.51237L4.42927 10.9349L3.1876 16.3115C3.1499 16.4743 3.16198 16.6446 3.22229 16.8004C3.28259 16.9562 3.38832 17.0903 3.52577 17.1852C3.66322 17.2802 3.82604 17.3316 3.99309 17.3329C4.16014 17.3342 4.32372 17.2852 4.4626 17.1924L9.0001 14.1674L13.5376 17.1924C13.6795 17.2866 13.847 17.3351 14.0173 17.3314C14.1876 17.3277 14.3528 17.2718 14.4904 17.1715C14.6281 17.0711 14.7317 16.931 14.7874 16.7699C14.8431 16.6089 14.8481 16.4347 14.8018 16.2707L13.2776 10.9374L17.0576 7.5357C17.3051 7.31237 17.3959 6.96403 17.2893 6.6482Z" fill="white"/>
</svg>
