<?xml version="1.0" encoding="UTF-8" standalone="no"?>
<svg
   version="1.2"
   x="0px"
   y="0px"
   viewBox="0 0 8958.8604 7951.187"
   xml:space="preserve"
   id="svg8"
   width="8958.8604"
   height="7951.187"
   xmlns="http://www.w3.org/2000/svg"
   svg="http://www.w3.org/2000/svg"><defs
     id="defs12" /><path
     d="m 8878.8243,3499.3625 c -91.4366,-71.9918 -223.8123,-56.4693 -295.7938,34.8264 l -595.304,754.0466 -826.6045,81.3562 c -72.2087,-651.9906 -247.1712,-1301.6046 -552.2073,-1838.016 l 975.642,-378.0937 c 59.7518,-23.161 105.7905,-72.3501 124.8773,-133.5911 l 304.5089,-975.218 c 34.6377,-111.03367 -27.2354,-229.14957 -138.2216,-263.79677 -111.0811,-34.5532 -229.0937,27.1501 -263.8439,138.2686 L 7337.669,1797.4652 6370.844,2172.1449 C 6204.5009,1956.6034 6010.2626,1769.5323 5785.5736,1621.2014 5743.1838,1287.6003 5589.4963,981.75323 5355.5562,759.53503 l 326.8108,-419.4365 c 71.5204,-91.7203 55.1209,-224.0478 -36.6843,-295.530401 -91.8992,-71.6524 -224.0947,-55.1113 -295.5208,36.6938 L 5007.8284,520.60603 c -165.8243,-78.3857 -345.5208,-119.2758 -528.669,-119.2758 -183.0254,0 -362.6087,40.8431 -527.8957,118.8326 L 3608.6191,81.120429 c -71.4259,-91.6259 -203.7158,-108.2047 -295.6152,-36.4486 -91.6258,71.558001 -108.0158,203.894901 -36.4108,295.558601 l 326.8675,418.8236 c -234.6191,222.6804 -388.4386,528.73507 -430.7529,862.50557 -224.1044,148.0481 -417.9183,334.6194 -583.9595,549.5668 l -966.608,-375.189 -273.7554,-878.46187 c -34.6475,-111.0714 -152.7634,-172.9537 -263.6556,-138.4008 -111.08086,34.6002 -173.04816,152.669 -138.41006,263.74037 l 303.96096,975.3689 c 19.0778,61.2316 65.0322,110.4206 124.7833,133.6289 l 975.463,378.6405 C 2045.2923,3066.7233 1870.1601,3716.262 1797.8099,4368.262 L 970.78154,4286.3399 375.93934,3532.02 c -71.98229,-91.3052 -204.36649,-107.1861 -295.803773,-34.9774 -91.24868,72.0295 -106.90315,204.4514 -34.92077,295.7566 l 650.330763,824.6803 c 35.48658,44.9735 87.63678,73.5572 144.61528,79.1589 l 924.96326,91.5975 c -4.5265,100.5 -6.7899,200.4813 -6.7899,299.5383 0,407.6863 62.0145,783.4977 178.3952,1119.5598 l -752.9431,232.1014 c -66.1544,20.4263 -118.1159,72.0672 -138.8723,138.1745 l -244.20056,777.7635 c -34.8264,110.978 26.8673,229.1873 137.8445,264.0245 21.0296,6.6011 42.2481,9.7225 63.18366,9.7225 89.4946,0 172.586,-57.6202 200.8489,-147.5764 l 211.0338,-672.1912 691.155,-213.033 c 445.2758,845.427 1291.7498,1354.8672 2374.6725,1354.8672 1082.2438,0 1928.3499,-508.8464 2373.8332,-1353.3961 l 690.3442,213.1745 210.6559,672.2945 c 28.1688,90.042 111.2697,147.7083 200.85,147.7083 20.8402,0 42.1537,-3.1115 63.0794,-9.6756 110.9862,-34.7885 172.7753,-152.9524 137.9489,-263.9293 l -243.7395,-777.905 c -20.6528,-66.145 -72.6334,-117.8332 -138.7685,-138.2689 l -752.1129,-232.2522 c 116.739,-336.4677 178.942,-712.8355 178.942,-1121.163 0,-98.595 -2.2633,-198.1047 -6.7899,-298.1331 l 924.4353,-91.0035 c 56.9686,-5.564 109.1287,-34.1852 144.6158,-79.1212 l 650.793,-824.3596 c 72.0664,-91.2959 56.5154,-223.7271 -34.7424,-295.7943 z M 4015.0322,967.36243 c 279.4043,-189.4476 647.7375,-190.1926 929.3673,0.9429 148.5855,99.35897 265.2963,241.57897 339.7306,407.45997 -241.3809,-82.1201 -508.9783,-126.9898 -804.6972,-126.9898 -295.9452,0 -563.7312,44.9358 -805.2724,127.169 74.5474,-166.0507 191.5694,-308.5443 340.8717,-408.38397 z m 464.4007,702.44317 c 1006.3006,0 1627.7272,647.0396 1966.9675,1502.4441 H 2512.3806 c 339.2593,-855.4045 960.6951,-1502.4441 1967.0523,-1502.4441 z m 0,5860.1443 c -1397.1912,0 -2299.9742,-958.5925 -2299.9742,-2442.1757 0,-493.7199 59.0628,-1013.3639 192.3145,-1494.2869 h 1897.0974 v 2002.4541 c 0,116.3148 94.3042,210.6189 210.5623,210.6189 116.2676,0 210.5717,-94.3041 210.5717,-210.6189 V 3593.4873 h 1897.0032 c 133.2423,480.923 192.3145,1000.567 192.3145,1494.2869 0,1483.5832 -902.7736,2442.1757 -2299.8894,2442.1757 z"
     id="path2"
     style="stroke-width:94.3043" /></svg>
