<svg width="32" height="32" viewBox="0 0 32 32" fill="none" xmlns="http://www.w3.org/2000/svg">
<path d="M21 13.3513C21 12.7993 20.8668 12.2769 20.5781 11.7841C20.2672 11.2518 19.8341 10.828 19.2679 10.5125C18.8126 10.2464 18.313 10.0986 17.7689 10.0296C17.569 10.0099 17.3692 10 17.1582 10C13.6051 10 10.052 10 6.49896 10C6.28799 10 6.08813 10.0099 5.89938 10.0789C5.46634 10.2366 5.16655 10.5125 5.04441 10.9364C5.03331 10.9758 5.04441 11.0152 5.02221 11.0645C5.02221 11.0448 5.0111 11.0251 5 10.9955V18.1416C5 18.0726 5.02221 17.9937 5.03331 17.905C5.03331 17.9543 5.04441 17.9839 5.04441 18.0134C5.04441 18.319 5.13324 18.595 5.25538 18.871C5.56627 19.5905 6.09924 20.1326 6.83206 20.5367C7.26509 20.7733 7.73144 20.9211 8.23109 20.9704C8.54198 21 8.85288 21 9.16377 21C11.7953 21 14.4379 21 17.0694 21C17.9466 21 18.8348 21 19.712 21C19.9785 21 20.2228 20.9014 20.4337 20.7634C20.8001 20.517 20.9889 20.1819 21 19.7778C21 19.6989 21 19.6201 21 19.5412C21 17.4812 21 15.431 21 13.371V13.3513Z" fill="#E1E1E1"/>
<path d="M27 11.0788C27 10.6952 26.8447 10.3902 26.5031 10.1738C26.1201 9.91803 25.5611 9.94754 25.2091 10.2427C24.8364 10.5476 24.4741 10.8526 24.1014 11.1575C23.6046 11.5707 23.0973 11.9838 22.6004 12.397C22.4762 12.5052 22.352 12.6134 22.2381 12.7315C22.0621 12.9282 22 13.1643 22 13.4102C22 13.9906 22 14.571 22 15.1613C22 15.9581 22 16.7549 22 17.5517C22 17.9157 22.1346 18.2108 22.4141 18.4567C22.7246 18.7223 23.0455 18.9879 23.3561 19.2437C23.6149 19.4601 23.8841 19.6765 24.1532 19.893C24.4948 20.1782 24.8364 20.4635 25.1781 20.7488C25.4369 20.9652 25.7371 21.0341 26.0683 20.9849C26.5963 20.9062 26.9793 20.4734 26.9793 19.9717C26.9793 18.4862 26.9793 17.0008 26.9793 15.5154C26.9793 14.0398 26.9793 12.5642 26.9793 11.0887L27 11.0788Z" fill="#E1E1E1"/>
</svg>
