<svg width="14" height="11" viewBox="0 0 14 11" fill="none" xmlns="http://www.w3.org/2000/svg">
<path d="M6.45202 10.0486C6.51318 10.1374 6.59502 10.2101 6.69048 10.2602C6.78594 10.3104 6.89217 10.3366 7.00002 10.3366C7.10787 10.3366 7.2141 10.3104 7.30956 10.2602C7.40502 10.2101 7.48686 10.1374 7.54802 10.0486L13.548 1.38194C13.6175 1.28198 13.6582 1.16489 13.6658 1.04341C13.6734 0.921924 13.6475 0.800686 13.591 0.692867C13.5345 0.585047 13.4496 0.49477 13.3454 0.431843C13.2412 0.368916 13.1217 0.335747 13 0.335938H1.00002C0.878581 0.33644 0.759578 0.370036 0.655806 0.433114C0.552034 0.496191 0.467421 0.586364 0.411065 0.693934C0.354709 0.801504 0.328742 0.922402 0.335958 1.04363C0.343174 1.16485 0.383299 1.28181 0.452019 1.38194L6.45202 10.0486Z" fill="#616465"/>
</svg>
