<svg width="13" height="14" viewBox="0 0 13 14" fill="none" xmlns="http://www.w3.org/2000/svg">
<path d="M6.99992 13.6666C9.47925 13.6666 11.7086 12.3099 12.8726 10.1239L7.66659 6.99992L12.8726 3.87592C11.7086 1.68992 9.47925 0.333252 6.99992 0.333252C3.32392 0.333252 0.333252 3.32392 0.333252 6.99992C0.333252 10.6759 3.32392 13.6666 6.99992 13.6666ZM6.66659 2.99992C6.93189 3.00001 7.18629 3.10548 7.37383 3.29314C7.56137 3.48081 7.66667 3.73528 7.66659 4.00059C7.6665 4.26589 7.56102 4.52029 7.37336 4.70783C7.1857 4.89537 6.93122 5.00067 6.66592 5.00059C6.40061 5.0005 6.14621 4.89502 5.95867 4.70736C5.77114 4.5197 5.66583 4.26522 5.66592 3.99992C5.66601 3.73461 5.77148 3.48021 5.95915 3.29267C6.14681 3.10514 6.40128 2.99983 6.66659 2.99992Z" fill="#FFDBA6"/>
</svg>
