<svg width="18" height="16" viewBox="0 0 18 16" fill="none" xmlns="http://www.w3.org/2000/svg">
<path d="M12.3334 0.5H5.66675C4.74758 0.5 4.00008 1.2475 4.00008 2.16667V13.8333C4.00008 14.7525 4.74758 15.5 5.66675 15.5H12.3334C13.2526 15.5 14.0001 14.7525 14.0001 13.8333V2.16667C14.0001 1.2475 13.2526 0.5 12.3334 0.5ZM0.666748 3.83333V12.1667C0.666748 13.0858 1.41425 13.8333 2.33341 13.8333V2.16667C1.41425 2.16667 0.666748 2.91417 0.666748 3.83333ZM15.6667 2.16667V13.8333C16.5859 13.8333 17.3334 13.0858 17.3334 12.1667V3.83333C17.3334 2.91417 16.5859 2.16667 15.6667 2.16667Z" fill="white"/>
</svg>
