<svg width="16" height="16" viewBox="0 0 16 16" fill="none" xmlns="http://www.w3.org/2000/svg">
<path d="M6.33337 8.0013C7.80404 8.0013 9.00004 6.8053 9.00004 5.33464C9.00004 3.86397 7.80404 2.66797 6.33337 2.66797C4.86271 2.66797 3.66671 3.86397 3.66671 5.33464C3.66671 6.8053 4.86271 8.0013 6.33337 8.0013ZM7.33337 8.66797H5.33337C3.12737 8.66797 1.33337 10.462 1.33337 12.668V13.3346H11.3334V12.668C11.3334 10.462 9.53937 8.66797 7.33337 8.66797Z" fill="#9A9C9D"/>
<path d="M11.0693 7.36661C11.4754 6.67467 11.6507 5.87149 11.57 5.07328C11.4507 3.88395 10.7867 2.83261 9.70134 2.11328L8.96468 3.22395C9.71068 3.71861 10.1647 4.42328 10.2433 5.20661C10.2796 5.57068 10.2343 5.93825 10.1107 6.2826C9.98704 6.62695 9.78823 6.93942 9.52868 7.19728L8.73401 7.99195L9.81268 8.30861C12.634 9.13528 12.6667 11.9726 12.6667 12.0013H14C14 10.8086 13.3627 8.47795 11.0693 7.36661Z" fill="#9A9C9D"/>
</svg>
