<svg width="16" height="16" viewBox="0 0 16 16" fill="none" xmlns="http://www.w3.org/2000/svg">
<path d="M6.33325 8.00008C7.80392 8.00008 8.99992 6.80408 8.99992 5.33341C8.99992 3.86275 7.80392 2.66675 6.33325 2.66675C4.86259 2.66675 3.66659 3.86275 3.66659 5.33341C3.66659 6.80408 4.86259 8.00008 6.33325 8.00008ZM7.33325 8.66675H5.33325C3.12725 8.66675 1.33325 10.4607 1.33325 12.6667V13.3334H11.3333V12.6667C11.3333 10.4607 9.53925 8.66675 7.33325 8.66675Z" fill="#9A9C9D"/>
<path d="M11.0692 7.36539C11.4753 6.67345 11.6506 5.87027 11.5699 5.07206C11.4506 3.88273 10.7866 2.83139 9.70122 2.11206L8.96455 3.22273C9.71055 3.71739 10.1646 4.42206 10.2432 5.20539C10.2795 5.56946 10.2342 5.93703 10.1105 6.28138C9.98692 6.62573 9.7881 6.9382 9.52855 7.19606L8.73389 7.99073L9.81255 8.30739C12.6339 9.13406 12.6666 11.9714 12.6666 12.0001H13.9999C13.9999 10.8074 13.3626 8.47673 11.0692 7.36539Z" fill="#9A9C9D"/>
</svg>
