<svg width="14" height="10" viewBox="0 0 14 10" fill="none" xmlns="http://www.w3.org/2000/svg">
<path d="M4.33333 5.03385C5.66333 5.03385 6.66666 4.03052 6.66666 2.70052C6.66666 1.37052 5.66333 0.367188 4.33333 0.367188C3.00333 0.367188 1.99999 1.37052 1.99999 2.70052C1.99999 4.03052 3.00333 5.03385 4.33333 5.03385ZM5 5.66585H3.66666C1.82866 5.66585 0.333328 7.16119 0.333328 8.99919V9.66585H8.33333V8.99919C8.33333 7.16119 6.838 5.66585 5 5.66585ZM12.5293 2.52719L9.66266 5.38852L8.80133 4.52719L7.85866 5.46985L9.66266 7.27252L13.4707 3.47119L12.5293 2.52719Z" fill="#C4C4C4"/>
</svg>
