<svg width="14" height="14" viewBox="0 0 14 14" fill="none" xmlns="http://www.w3.org/2000/svg">
<path d="M5.54199 7.0026C6.82883 7.0026 7.87533 5.9561 7.87533 4.66927C7.87533 3.38244 6.82883 2.33594 5.54199 2.33594C4.25516 2.33594 3.20866 3.38244 3.20866 4.66927C3.20866 5.9561 4.25516 7.0026 5.54199 7.0026ZM6.41699 7.58594H4.66699C2.73674 7.58594 1.16699 9.15569 1.16699 11.0859V11.6693H9.91699V11.0859C9.91699 9.15569 8.34724 7.58594 6.41699 7.58594Z" fill="#9A9C9D"/>
<path d="M9.68599 6.44823C10.0413 5.84278 10.1947 5.13999 10.1241 4.44156C10.0197 3.4009 9.43866 2.48098 8.48899 1.85156L7.84441 2.8234C8.49716 3.25623 8.89441 3.87281 8.96324 4.55823C8.99498 4.87679 8.95533 5.19841 8.84716 5.49972C8.73898 5.80102 8.56502 6.07443 8.33791 6.30006L7.64258 6.9954L8.58641 7.27248C11.0551 7.99581 11.0837 10.4785 11.0837 10.5036H12.2503C12.2503 9.45998 11.6927 7.42065 9.68599 6.44823Z" fill="#9A9C9D"/>
</svg>
