<svg width="40" height="40" viewBox="0 0 40 40" fill="none" xmlns="http://www.w3.org/2000/svg">
<path d="M14.6667 19.3333H18.6667C18.8435 19.3333 19.013 19.2631 19.1381 19.1381C19.2631 19.013 19.3333 18.8435 19.3333 18.6667V14.6667C19.3333 14.4899 19.2631 14.3203 19.1381 14.1953C19.013 14.0702 18.8435 14 18.6667 14H14.6667C14.4899 14 14.3203 14.0702 14.1953 14.1953C14.0702 14.3203 14 14.4899 14 14.6667V18.6667C14 18.8435 14.0702 19.013 14.1953 19.1381C14.3203 19.2631 14.4899 19.3333 14.6667 19.3333ZM21.3333 19.3333H25.3333C25.5101 19.3333 25.6797 19.2631 25.8047 19.1381C25.9298 19.013 26 18.8435 26 18.6667V14.6667C26 14.4899 25.9298 14.3203 25.8047 14.1953C25.6797 14.0702 25.5101 14 25.3333 14H21.3333C21.1565 14 20.987 14.0702 20.8619 14.1953C20.7369 14.3203 20.6667 14.4899 20.6667 14.6667V18.6667C20.6667 18.8435 20.7369 19.013 20.8619 19.1381C20.987 19.2631 21.1565 19.3333 21.3333 19.3333ZM14.6667 26H18.6667C18.8435 26 19.013 25.9298 19.1381 25.8047C19.2631 25.6797 19.3333 25.5101 19.3333 25.3333V21.3333C19.3333 21.1565 19.2631 20.987 19.1381 20.8619C19.013 20.7369 18.8435 20.6667 18.6667 20.6667H14.6667C14.4899 20.6667 14.3203 20.7369 14.1953 20.8619C14.0702 20.987 14 21.1565 14 21.3333V25.3333C14 25.5101 14.0702 25.6797 14.1953 25.8047C14.3203 25.9298 14.4899 26 14.6667 26ZM21.3333 26H25.3333C25.5101 26 25.6797 25.9298 25.8047 25.8047C25.9298 25.6797 26 25.5101 26 25.3333V21.3333C26 21.1565 25.9298 20.987 25.8047 20.8619C25.6797 20.7369 25.5101 20.6667 25.3333 20.6667H21.3333C21.1565 20.6667 20.987 20.7369 20.8619 20.8619C20.7369 20.987 20.6667 21.1565 20.6667 21.3333V25.3333C20.6667 25.5101 20.7369 25.6797 20.8619 25.8047C20.987 25.9298 21.1565 26 21.3333 26Z" fill="white"/>
<rect x="0.5" y="0.5" width="39" height="39" rx="19.5" stroke="#C3CFD5"/>
</svg>
