<svg width="32" height="32" viewBox="0 0 32 32" fill="none" xmlns="http://www.w3.org/2000/svg">
<path d="M22.9645 15.4272C22.8138 15.0994 22.5744 14.9495 22.2906 15.0151C21.998 15.0807 21.8295 15.3242 21.8118 15.6895C21.8029 15.9705 21.7852 16.2515 21.7409 16.5231C21.2089 20.2417 17.2719 22.3867 14.1152 20.6445C12.2354 19.6048 11.2689 17.9281 11.1802 15.6801C11.1625 15.2774 10.9319 15.0057 10.5861 15.0057C10.2403 15.0057 9.98313 15.2867 10.0009 15.6989C10.0097 16.0173 10.0186 16.3358 10.0718 16.6543C10.524 19.3987 12.0048 21.244 14.4787 22.1806C14.931 22.3492 15.4186 22.4242 15.9063 22.5459C15.9063 23.0798 15.9241 23.6325 15.9063 24.1945C15.8886 24.5785 16.0216 24.8501 16.3586 25H16.6512C16.9881 24.8501 17.1123 24.5785 17.0945 24.1945C17.0768 23.6418 17.0945 23.0798 17.0945 22.574C17.6886 22.4054 18.2916 22.3024 18.8325 22.0682C21.2532 21.0098 22.6364 19.0896 22.9645 16.3358C22.9645 16.2702 22.9823 16.214 23 16.1485V15.4834C23 15.4834 22.9734 15.4553 22.9645 15.4366V15.4272Z" fill="#E1E1E1"/>
<path d="M13.0702 16.1297C13.456 18.0024 15.0959 19.1908 16.955 18.9747C18.5599 18.7857 19.9016 17.3631 19.9805 15.7065C20.0244 14.8152 19.9805 13.9239 19.9805 13.0235C19.9805 13.0235 19.9893 13.0235 19.9981 13.0235C19.9981 12.3843 19.9981 11.7451 19.9981 11.1148C19.9981 10.7277 19.9981 10.3405 19.9367 9.95341C19.6385 8.0447 17.7355 6.6852 15.8852 7.06334C14.1576 7.41447 13.0088 8.846 13 10.6647C13 12.2222 13 13.7888 13 15.3464C13 15.6075 13.0175 15.8776 13.0702 16.1297Z" fill="#E1E1E1"/>
</svg>
