<svg width="40" height="40" viewBox="0 0 40 40" fill="none" xmlns="http://www.w3.org/2000/svg">
<rect width="40" height="40" rx="20" fill="white"/>
<path fill-rule="evenodd" clip-rule="evenodd" d="M16.646 13.6459C16.6925 13.5994 16.7477 13.5624 16.8084 13.5372C16.8692 13.512 16.9343 13.499 17 13.499C17.0658 13.499 17.1309 13.512 17.1917 13.5372C17.2524 13.5624 17.3076 13.5994 17.354 13.6459L23.354 19.6459C23.4006 19.6924 23.4375 19.7475 23.4628 19.8083C23.488 19.869 23.5009 19.9341 23.5009 19.9999C23.5009 20.0657 23.488 20.1308 23.4628 20.1915C23.4375 20.2523 23.4006 20.3075 23.354 20.3539L17.354 26.3539C17.2602 26.4478 17.1328 26.5005 17 26.5005C16.8673 26.5005 16.7399 26.4478 16.646 26.3539C16.5522 26.26 16.4994 26.1327 16.4994 25.9999C16.4994 25.8671 16.5522 25.7398 16.646 25.6459L22.293 19.9999L16.646 14.3539C16.5995 14.3075 16.5625 14.2523 16.5373 14.1916C16.5121 14.1308 16.4991 14.0657 16.4991 13.9999C16.4991 13.9341 16.5121 13.869 16.5373 13.8083C16.5625 13.7475 16.5995 13.6924 16.646 13.6459Z" fill="#080A0C"/>
</svg>
