<svg width="16" height="16" viewBox="0 0 16 16" fill="none" xmlns="http://www.w3.org/2000/svg">
<path d="M8 14.6693C8.41287 14.6698 8.81564 14.5417 9.15233 14.3027C9.48902 14.0638 9.74289 13.7258 9.87867 13.3359H6.12133C6.25711 13.7258 6.51099 14.0638 6.84767 14.3027C7.18436 14.5417 7.58713 14.6698 8 14.6693ZM12.6667 9.7266V6.66927C12.6667 4.5246 11.21 2.71794 9.23667 2.1746C9.04133 1.6826 8.564 1.33594 8 1.33594C7.436 1.33594 6.95867 1.6826 6.76333 2.1746C4.79 2.7186 3.33333 4.5246 3.33333 6.66927V9.7266L2.19533 10.8646C2.13331 10.9264 2.08411 10.9999 2.05059 11.0808C2.01707 11.1617 1.99987 11.2484 2 11.3359V12.0026C2 12.1794 2.07024 12.349 2.19526 12.474C2.32029 12.599 2.48986 12.6693 2.66667 12.6693H13.3333C13.5101 12.6693 13.6797 12.599 13.8047 12.474C13.9298 12.349 14 12.1794 14 12.0026V11.3359C14.0001 11.2484 13.9829 11.1617 13.9494 11.0808C13.9159 10.9999 13.8667 10.9264 13.8047 10.8646L12.6667 9.7266Z" fill="white"/>
</svg>
