<?xml version="1.0" encoding="UTF-8" standalone="no"?>
<svg
   id="Layer_1"
   viewBox="0 0 176400 176400"
   version="1.1"
   sodipodiDocname="globe-menu-icon-2.svg"
   width="176400"
   height="176400"
   xmlnsInkscape="http://www.inkscape.org/namespaces/inkscape"
   xmlnsSodipodi="http://sodipodi.sourceforge.net/DTD/sodipodi-0.dtd"
   xmlns="http://www.w3.org/2000/svg"
   xmlnsSvg="http://www.w3.org/2000/svg">
  <sodipodiNamedview
     id="namedview265"
     pagecolor="#ffffff"
     bordercolor="#666666"
     borderopacity="1.0"
     inkscapeShowpageshadow="2"
     inkscapePageopacity="0.0"
     inkscapePagecheckerboard="0"
     inkscapeDeskcolor="#d1d1d1"
     showgrid="false" />
  <defs
     id="defs220">
    <style
       id="style218">.cls-1{stroke:#fff; fill:#000;}</style>
  </defs>
  <path
     class="cls-1"
     d="M 0,420 C 0,280 0,140 0,0 c 140,0 280,0 420,0 0,140 0,280 0,420 -140,0 -280,0 -420,0 z M 184.2,1.92 c 0,0 0,-0.08 0,-0.13 -4.11,0.12 -8.23,0.14 -12.33,0.4 -3.5,0.22 -6.99,0.62 -10.46,1.11 -4.78,0.67 -9.57,1.35 -14.29,2.29 -6.62,1.33 -13.15,3.07 -19.56,5.2 -4.35,1.45 -8.65,3.1 -12.91,4.81 -5.75,2.3 -11.31,5.04 -16.77,7.97 -4.65,2.5 -9.18,5.19 -13.58,8.1 -5.5,3.63 -10.87,7.45 -15.87,11.76 -3.6,3.1 -7.17,6.23 -10.62,9.49 -2.67,2.52 -5.18,5.21 -7.69,7.89 -2.13,2.27 -4.23,4.58 -6.2,6.99 -4.05,4.95 -7.89,10.05 -11.42,15.39 -3.13,4.73 -6.06,9.59 -8.74,14.59 -2.86,5.32 -5.45,10.76 -7.78,16.33 -2.36,5.64 -4.38,11.41 -6.17,17.26 -1.5,4.93 -2.76,9.93 -3.82,14.97 -1.32,6.29 -2.38,12.62 -2.92,19.04 -0.3,3.57 -0.78,7.15 -0.84,10.73 -0.1,5.87 0,11.74 0.19,17.61 0.13,3.78 0.55,7.55 0.92,11.32 0.49,5.09 1.28,10.14 2.39,15.12 1.09,4.91 2.17,9.83 3.59,14.65 1.51,5.13 3.29,10.19 5.16,15.2 2.65,7.08 5.91,13.89 9.5,20.54 2.45,4.54 5.04,9 7.94,13.26 2.9,4.25 5.98,8.39 9.04,12.54 3.15,4.28 6.69,8.25 10.33,12.11 4.49,4.76 9.14,9.4 14.21,13.57 3.45,2.84 6.88,5.72 10.45,8.4 5.21,3.91 10.67,7.46 16.29,10.76 6.94,4.08 14.11,7.68 21.52,10.79 5.3,2.23 10.71,4.18 16.21,5.89 7.64,2.38 15.39,4.26 23.28,5.59 0.77,0.13 1.39,0.45 1.96,1.02 6.06,6.1 12.16,12.15 18.21,18.26 1.75,1.77 3.67,3.31 5.65,4.81 1.81,1.38 3.76,2.37 6.02,2.78 1.77,0.32 3.53,0.72 5.24,1.25 1.68,0.51 3.33,0.33 4.97,0 1.84,-0.37 3.67,-0.79 5.48,-1.3 1.22,-0.34 2.47,-0.74 3.56,-1.36 1.31,-0.74 2.51,-1.71 3.71,-2.63 2.82,-2.16 5.64,-4.32 8.41,-6.55 0.76,-0.61 1.42,-0.69 2.28,-0.3 1.67,0.76 3.36,1.46 5.06,2.14 1.01,0.41 1.14,0.56 1.24,1.64 0.18,1.94 0.4,3.88 0.59,5.83 0.3,2.99 0.88,5.92 1.6,8.83 0.51,2.05 0.95,4.1 2.34,5.83 2.05,2.54 3.74,5.37 6.6,7.19 2.04,1.29 3.82,3.05 6.39,3.33 0.87,0.1 1.73,0.33 2.57,0.58 1.94,0.56 3.91,0.72 5.92,0.71 10.91,-0.02 21.83,-0.03 32.74,0 2.13,0 4.22,-0.17 6.28,-0.76 0.77,-0.22 1.55,-0.4 2.33,-0.53 1.73,-0.3 3.29,-0.93 4.64,-2.06 0.43,-0.36 0.92,-0.64 1.35,-0.99 1.26,-1.04 2.6,-2 3.72,-3.18 1.12,-1.18 1.98,-2.6 3,-3.88 1.14,-1.43 1.83,-3.04 2.31,-4.8 1.42,-5.3 2.08,-10.72 2.53,-16.17 0.06,-0.77 0.35,-1.27 1.08,-1.55 1.85,-0.74 3.7,-1.48 5.53,-2.26 0.67,-0.28 1.19,-0.21 1.75,0.26 1.28,1.08 2.59,2.13 3.92,3.15 2.19,1.67 4.39,3.33 6.62,4.95 1.19,0.87 2.36,1.78 3.84,2.13 2.49,0.58 4.97,1.21 7.46,1.77 1.2,0.27 2.42,0.48 3.67,0.17 2.83,-0.7 5.67,-1.36 8.5,-2.05 0.27,-0.07 0.55,-0.16 0.78,-0.3 2.47,-1.56 4.91,-3.16 6.99,-5.22 7,-6.96 13.94,-13.98 20.96,-20.92 2.23,-2.2 4.27,-4.53 6.03,-7.11 0.72,-1.06 1.38,-2.12 1.66,-3.42 0.51,-2.34 1.16,-4.65 1.71,-6.98 0.37,-1.58 0.31,-3.17 -0.06,-4.74 -0.58,-2.45 -1.16,-4.9 -1.76,-7.34 -0.1,-0.42 -0.22,-0.87 -0.45,-1.23 -0.68,-1.08 -1.37,-2.16 -2.14,-3.17 -2.45,-3.2 -4.91,-6.39 -7.44,-9.53 -0.7,-0.87 -0.74,-1.56 -0.19,-2.47 0.33,-0.54 0.48,-1.18 0.73,-1.77 0.47,-1.14 0.96,-2.27 1.4,-3.43 0.27,-0.72 0.78,-0.91 1.48,-0.97 1.87,-0.15 3.73,-0.32 5.59,-0.54 3.33,-0.39 6.63,-0.98 9.87,-1.84 0.73,-0.19 1.47,-0.38 2.18,-0.64 2.38,-0.85 4.26,-2.48 6.2,-4.02 0.93,-0.74 1.83,-1.56 2.59,-2.46 0.95,-1.12 1.74,-2.39 2.64,-3.56 0.95,-1.22 1.59,-2.55 1.86,-4.09 0.25,-1.41 0.69,-2.79 0.96,-4.2 0.2,-1.05 0.39,-2.13 0.39,-3.2 0.03,-11.95 0.02,-23.9 0,-35.86 0,-0.99 -0.14,-2 -0.34,-2.97 -0.4,-1.91 -0.88,-3.81 -1.35,-5.71 -0.12,-0.49 -0.32,-1 -0.59,-1.42 -0.68,-1.04 -1.39,-2.05 -2.15,-3.03 -0.91,-1.16 -1.79,-2.36 -2.84,-3.38 -1.09,-1.05 -2.36,-1.89 -3.56,-2.82 -1.82,-1.42 -3.87,-2.34 -6.13,-2.85 -3,-0.68 -5.98,-1.38 -9.05,-1.68 -1.94,-0.19 -3.88,-0.54 -5.82,-0.61 -1.2,-0.04 -1.81,-0.51 -2.22,-1.56 -0.69,-1.79 -1.42,-3.55 -2.17,-5.31 -0.23,-0.54 -0.2,-0.96 0.2,-1.42 0.58,-0.66 1.08,-1.38 1.62,-2.08 2.44,-3.16 4.91,-6.29 7.31,-9.48 0.59,-0.78 1.12,-1.69 1.37,-2.62 0.72,-2.66 1.35,-5.34 1.88,-8.05 0.22,-1.11 0.28,-2.33 0.06,-3.43 -0.59,-2.93 -1.36,-5.83 -2.08,-8.74 -0.08,-0.34 -0.24,-0.69 -0.44,-0.98 -1.76,-2.47 -3.43,-5.01 -5.6,-7.16 -3.44,-3.4 -6.85,-6.83 -10.27,-10.25 -2.32,-2.32 -4.64,-4.63 -6.94,-6.97 -0.34,-0.35 -0.69,-0.83 -0.76,-1.29 -1.05,-6.67 -2.39,-13.28 -4.13,-19.8 -1.43,-5.36 -3.09,-10.66 -5.01,-15.88 -2.23,-6.04 -4.7,-11.98 -7.63,-17.71 -2.04,-3.98 -4.17,-7.91 -6.38,-11.81 -2.58,-4.56 -5.41,-8.97 -8.54,-13.16 -2.99,-3.99 -6.02,-7.96 -9.18,-11.82 -2.48,-3.02 -5.12,-5.92 -7.82,-8.74 -3.42,-3.58 -6.9,-7.12 -10.71,-10.29 -3.87,-3.21 -7.67,-6.52 -11.68,-9.54 -3.79,-2.86 -7.72,-5.55 -11.74,-8.08 -4.26,-2.68 -8.63,-5.19 -13.05,-7.57 -6.9,-3.72 -14.07,-6.88 -21.46,-9.51 -4.06,-1.45 -8.15,-2.84 -12.29,-4.05 C 229.45,7.37 224.01,6.06 218.5,5.07 216.22,4.66 213.95,4.17 211.66,3.86 207.99,3.37 204.3,2.95 200.61,2.59 197.68,2.3 194.73,2.07 191.79,1.95 189.28,1.84 186.75,1.93 184.24,1.93 Z"
     id="path222" />
  <path
     d="m 184.2,1.92 c 2.52,0 5.04,-0.08 7.55,0.02 2.95,0.12 5.89,0.35 8.82,0.64 3.69,0.36 7.38,0.78 11.05,1.27 2.29,0.31 4.56,0.79 6.84,1.21 5.51,1 10.95,2.3 16.31,3.87 4.14,1.21 8.23,2.6 12.29,4.05 7.39,2.63 14.55,5.8 21.46,9.51 4.43,2.38 8.8,4.9 13.05,7.57 4.02,2.53 7.96,5.22 11.74,8.08 4.01,3.03 7.81,6.33 11.68,9.54 3.82,3.17 7.29,6.71 10.71,10.29 2.7,2.83 5.34,5.72 7.82,8.74 3.16,3.85 6.19,7.82 9.18,11.82 3.14,4.19 5.97,8.6 8.54,13.16 2.2,3.89 4.34,7.83 6.38,11.81 2.93,5.73 5.41,11.67 7.63,17.71 1.92,5.21 3.58,10.51 5.01,15.88 1.74,6.52 3.08,13.13 4.13,19.8 0.07,0.46 0.42,0.94 0.76,1.29 2.29,2.34 4.62,4.65 6.94,6.97 3.42,3.42 6.83,6.85 10.27,10.25 2.18,2.15 3.84,4.69 5.6,7.16 0.2,0.29 0.36,0.63 0.44,0.98 0.72,2.91 1.49,5.81 2.08,8.74 0.22,1.1 0.16,2.32 -0.06,3.43 -0.53,2.7 -1.16,5.39 -1.88,8.05 -0.25,0.93 -0.78,1.84 -1.37,2.62 -2.4,3.19 -4.86,6.32 -7.31,9.48 -0.54,0.69 -1.04,1.42 -1.62,2.08 -0.4,0.46 -0.43,0.88 -0.2,1.42 0.75,1.76 1.48,3.53 2.17,5.31 0.4,1.05 1.02,1.52 2.22,1.56 1.95,0.07 3.88,0.41 5.82,0.61 3.07,0.31 6.05,1 9.05,1.68 2.26,0.51 4.31,1.43 6.13,2.85 1.2,0.93 2.47,1.78 3.56,2.82 1.05,1.02 1.94,2.22 2.84,3.38 0.76,0.98 1.47,1.99 2.15,3.03 0.28,0.42 0.47,0.93 0.59,1.42 0.48,1.9 0.96,3.8 1.35,5.71 0.2,0.97 0.34,1.98 0.34,2.97 0.02,11.95 0.03,23.9 0,35.86 0,1.07 -0.19,2.15 -0.39,3.2 -0.27,1.41 -0.71,2.79 -0.96,4.2 -0.27,1.54 -0.91,2.87 -1.86,4.09 -0.9,1.17 -1.68,2.44 -2.64,3.56 -0.77,0.9 -1.66,1.72 -2.59,2.46 -1.93,1.53 -3.82,3.17 -6.2,4.02 -0.71,0.25 -1.45,0.44 -2.18,0.64 -3.25,0.86 -6.54,1.45 -9.87,1.84 -1.86,0.22 -3.73,0.39 -5.59,0.54 -0.7,0.06 -1.21,0.25 -1.48,0.97 -0.43,1.15 -0.93,2.29 -1.4,3.43 -0.24,0.59 -0.4,1.23 -0.73,1.77 -0.55,0.9 -0.51,1.6 0.19,2.47 2.53,3.13 4.99,6.33 7.44,9.53 0.77,1.01 1.46,2.09 2.14,3.17 0.23,0.36 0.35,0.81 0.45,1.23 0.6,2.44 1.18,4.89 1.76,7.34 0.37,1.57 0.43,3.16 0.06,4.74 -0.55,2.33 -1.21,4.64 -1.71,6.98 -0.28,1.3 -0.95,2.36 -1.66,3.42 -1.75,2.59 -3.8,4.91 -6.03,7.11 -7.02,6.94 -13.96,13.96 -20.96,20.92 -2.08,2.06 -4.53,3.66 -6.99,5.22 -0.23,0.15 -0.51,0.24 -0.78,0.3 -2.83,0.69 -5.67,1.35 -8.5,2.05 -1.25,0.31 -2.47,0.1 -3.67,-0.17 -2.49,-0.56 -4.97,-1.19 -7.46,-1.77 -1.49,-0.35 -2.66,-1.27 -3.84,-2.13 -2.23,-1.62 -4.43,-3.28 -6.62,-4.95 -1.33,-1.02 -2.64,-2.07 -3.92,-3.15 -0.56,-0.47 -1.09,-0.55 -1.75,-0.26 -1.83,0.78 -3.68,1.53 -5.53,2.26 -0.72,0.29 -1.01,0.79 -1.08,1.55 -0.45,5.45 -1.11,10.87 -2.53,16.17 -0.47,1.77 -1.16,3.37 -2.31,4.8 -1.02,1.28 -1.88,2.7 -3,3.88 -1.12,1.18 -2.46,2.14 -3.72,3.18 -0.43,0.36 -0.92,0.64 -1.35,0.99 -1.35,1.13 -2.91,1.77 -4.64,2.06 -0.79,0.13 -1.57,0.32 -2.33,0.53 -2.06,0.58 -4.14,0.76 -6.28,0.76 -10.91,-0.03 -21.83,-0.03 -32.74,0 -2.01,0 -3.98,-0.15 -5.92,-0.71 -0.84,-0.24 -1.7,-0.48 -2.57,-0.58 -2.58,-0.28 -4.35,-2.04 -6.39,-3.33 -2.86,-1.81 -4.55,-4.65 -6.6,-7.19 -1.39,-1.72 -1.83,-3.78 -2.34,-5.83 -0.72,-2.91 -1.31,-5.84 -1.6,-8.83 -0.19,-1.94 -0.41,-3.88 -0.59,-5.83 -0.1,-1.09 -0.23,-1.24 -1.24,-1.64 -1.7,-0.68 -3.39,-1.39 -5.06,-2.14 -0.86,-0.39 -1.51,-0.32 -2.28,0.3 -2.77,2.23 -5.59,4.39 -8.41,6.55 -1.2,0.92 -2.4,1.89 -3.71,2.63 -1.1,0.62 -2.34,1.01 -3.56,1.36 -1.81,0.51 -3.64,0.93 -5.48,1.3 -1.64,0.33 -3.29,0.51 -4.97,0 -1.72,-0.52 -3.48,-0.93 -5.24,-1.25 -2.26,-0.41 -4.21,-1.4 -6.02,-2.78 -1.97,-1.5 -3.9,-3.04 -5.65,-4.81 -6.04,-6.11 -12.15,-12.16 -18.21,-18.26 -0.57,-0.57 -1.19,-0.89 -1.96,-1.02 -7.89,-1.33 -15.64,-3.21 -23.28,-5.59 -5.5,-1.71 -10.91,-3.67 -16.21,-5.89 -7.41,-3.11 -14.58,-6.72 -21.52,-10.79 -5.62,-3.3 -11.08,-6.85 -16.29,-10.76 -3.57,-2.68 -7,-5.56 -10.45,-8.4 -5.07,-4.17 -9.71,-8.8 -14.21,-13.57 -3.64,-3.86 -7.18,-7.82 -10.33,-12.11 -3.05,-4.15 -6.14,-8.28 -9.04,-12.54 -2.9,-4.26 -5.49,-8.72 -7.94,-13.26 C 20.35,263.88 17.09,257.08 14.44,250 12.57,244.99 10.79,239.93 9.28,234.8 7.86,229.98 6.78,225.06 5.69,220.15 4.58,215.16 3.79,210.11 3.3,205.03 2.94,201.26 2.51,197.49 2.38,193.71 2.18,187.84 2.09,181.97 2.19,176.1 c 0.06,-3.58 0.54,-7.15 0.84,-10.73 0.54,-6.41 1.6,-12.75 2.92,-19.04 1.06,-5.04 2.31,-10.04 3.82,-14.97 1.78,-5.85 3.81,-11.61 6.17,-17.26 2.33,-5.57 4.92,-11.01 7.78,-16.33 2.69,-5 5.61,-9.86 8.74,-14.59 3.53,-5.33 7.37,-10.44 11.42,-15.39 1.97,-2.41 4.07,-4.71 6.2,-6.99 2.51,-2.68 5.02,-5.38 7.69,-7.89 3.45,-3.26 7.03,-6.39 10.62,-9.49 5,-4.31 10.37,-8.13 15.87,-11.76 4.4,-2.9 8.93,-5.6 13.58,-8.1 5.46,-2.93 11.02,-5.67 16.77,-7.97 4.26,-1.71 8.56,-3.36 12.91,-4.81 6.41,-2.14 12.94,-3.88 19.56,-5.2 4.73,-0.95 9.52,-1.62 14.29,-2.29 3.47,-0.49 6.96,-0.89 10.46,-1.11 4.1,-0.26 8.22,-0.28 12.33,-0.4 0,0.04 0,0.08 0,0.13 z m -22.27,341.82 c 0.22,1.75 0.69,3.46 2.09,4.86 6.03,6.06 12.02,12.17 18.03,18.25 1.83,1.85 3.73,3.62 5.49,5.53 1.95,2.1 6.24,2.53 8.67,1.15 0.62,-0.35 1.2,-0.79 1.76,-1.24 3.45,-2.77 6.89,-5.56 10.34,-8.33 2.06,-1.64 4.19,-3.2 6.19,-4.9 0.93,-0.79 1.08,-0.76 2.2,-0.15 2.17,1.18 4.32,2.42 6.52,3.52 4.72,2.37 9.68,4.12 14.73,5.63 2.89,0.86 2.88,0.88 3.13,3.91 0.2,2.46 0.56,4.91 0.84,7.36 0.28,2.38 0.53,4.75 0.83,7.13 0.26,2.1 0.54,4.19 0.86,6.28 0.52,3.33 4.27,5.87 7.38,5.87 10.91,0 21.83,-0.02 32.74,0.02 1.43,0 2.65,-0.49 3.85,-1.11 0.69,-0.36 1.35,-0.86 1.91,-1.41 1.55,-1.52 1.95,-3.51 2.17,-5.56 0.2,-1.86 0.4,-3.72 0.62,-5.58 0.27,-2.26 0.57,-4.51 0.83,-6.77 0.27,-2.26 0.4,-4.53 0.79,-6.77 0.52,-3 -0.18,-2.46 2.98,-3.37 5.69,-1.65 11.18,-3.8 16.49,-6.4 1.76,-0.86 3.48,-1.8 5.2,-2.73 0.61,-0.33 1.06,-0.28 1.61,0.19 1.21,1.04 2.49,2 3.74,2.98 4.39,3.45 8.81,6.87 13.16,10.38 1.65,1.33 3.51,1.92 5.54,1.87 1.93,-0.05 3.62,-0.86 5.01,-2.26 7.74,-7.75 15.49,-15.49 23.21,-23.25 0.64,-0.64 1.24,-1.4 1.59,-2.22 1.19,-2.81 0.95,-5.53 -0.95,-8 -1.88,-2.43 -3.8,-4.83 -5.7,-7.24 -2.59,-3.29 -5.17,-6.6 -7.79,-9.86 -0.56,-0.7 -0.61,-1.22 -0.16,-2.02 2.17,-3.82 4.13,-7.76 5.7,-11.86 1.39,-3.61 2.54,-7.31 3.74,-10.99 0.26,-0.79 0.67,-1.23 1.48,-1.33 2.14,-0.26 4.27,-0.52 6.41,-0.78 2.3,-0.27 4.59,-0.54 6.89,-0.81 2.45,-0.29 4.91,-0.56 7.36,-0.87 1.82,-0.23 3.61,-0.51 5.09,-1.83 1.79,-1.59 2.89,-3.52 2.9,-5.91 0.03,-10.79 0,-21.59 0.03,-32.38 0,-1.1 -0.05,-2.18 -0.56,-3.13 -0.56,-1.04 -1.17,-2.1 -1.95,-2.97 -1.45,-1.61 -3.48,-1.98 -5.53,-2.19 -1.9,-0.2 -3.8,-0.41 -5.7,-0.64 -2.93,-0.34 -5.86,-0.69 -8.79,-1.05 -2.06,-0.25 -4.11,-0.52 -6.17,-0.78 -0.75,-0.09 -1.17,-0.48 -1.41,-1.24 -0.95,-3.01 -1.9,-6.01 -2.97,-8.97 -0.79,-2.17 -1.69,-4.31 -2.7,-6.38 -1.31,-2.69 -2.76,-5.3 -4.17,-7.93 -0.31,-0.58 -0.24,-1 0.2,-1.5 0.76,-0.87 1.44,-1.81 2.15,-2.72 1.57,-2.01 3.13,-4.03 4.73,-6.03 2.44,-3.05 4.94,-6.06 7.35,-9.13 1.2,-1.53 1.33,-3.36 1.15,-5.22 -0.19,-1.87 -1.09,-3.39 -2.44,-4.67 -2,-1.9 -4,-3.79 -5.96,-5.73 -5.75,-5.72 -11.49,-11.46 -17.21,-17.22 -0.84,-0.85 -1.79,-1.51 -2.93,-1.79 -2.71,-0.66 -5.2,-0.46 -7.52,1.45 -5.51,4.54 -11.13,8.94 -16.7,13.4 -0.89,0.71 -0.91,0.73 -1.89,0.19 -2.06,-1.12 -4.07,-2.36 -6.19,-3.36 -2.67,-1.26 -5.39,-2.41 -8.15,-3.45 -2.84,-1.07 -5.73,-1.97 -8.63,-2.87 -0.81,-0.25 -1.21,-0.69 -1.31,-1.49 -0.26,-2.18 -0.52,-4.35 -0.78,-6.53 -0.28,-2.33 -0.59,-4.67 -0.86,-7 -0.28,-2.37 -0.54,-4.75 -0.81,-7.13 -0.23,-2.01 -0.64,-3.96 -2.14,-5.46 -1.46,-1.45 -3.21,-2.44 -5.27,-2.49 -2.75,-0.07 -5.51,0.15 -8.26,0.14 -7.91,-0.03 -15.82,-0.11 -23.73,-0.17 -0.28,0 -0.56,0 -0.84,0 -0.92,-0.03 -1.79,0.08 -2.68,0.41 -2.79,1.04 -4.67,2.87 -5.21,5.86 -0.19,1.06 -0.21,2.14 -0.35,3.21 -0.28,2.13 -0.61,4.26 -0.88,6.4 -0.51,4.11 -1,8.23 -1.45,12.35 -0.12,1.1 -0.56,1.68 -1.67,1.99 -4.58,1.28 -9.08,2.79 -13.4,4.78 -1.63,0.75 -3.27,1.49 -4.86,2.31 -1.62,0.84 -3.19,1.79 -4.79,2.69 -0.43,0.24 -0.8,0.24 -1.2,-0.11 -0.79,-0.67 -1.62,-1.3 -2.42,-1.95 -2.82,-2.28 -5.63,-4.58 -8.46,-6.85 -1.93,-1.55 -3.94,-2.99 -5.83,-4.59 -2.07,-1.74 -4.25,-2.64 -7.02,-1.91 -1.52,0.41 -2.8,1.02 -3.92,2.14 -7.07,7.11 -14.18,14.2 -21.27,21.29 -0.73,0.73 -1.52,1.43 -2.19,2.21 -2.01,2.33 -2.72,5.03 -1.42,7.86 0.75,1.64 2,3.06 3.11,4.51 2.01,2.63 4.08,5.22 6.15,7.8 1.67,2.08 3.36,4.14 5.07,6.18 1.15,1.37 1.17,1.35 0.31,2.87 -0.79,1.38 -1.66,2.73 -2.36,4.15 -1.72,3.47 -3.31,7 -4.57,10.67 -0.76,2.22 -1.72,4.38 -2,6.75 -0.06,0.54 -0.27,1.09 -0.51,1.58 -0.14,0.29 -0.46,0.53 -0.76,0.67 -0.35,0.16 -0.77,0.23 -1.16,0.28 -1.42,0.18 -2.85,0.35 -4.27,0.51 -0.71,0.08 -1.43,0.14 -2.14,0.23 -0.63,0.07 -1.26,0.15 -1.89,0.24 -0.55,0.07 -1.1,0.18 -1.65,0.24 -1.94,0.19 -3.88,0.37 -5.82,0.56 -0.12,0.01 -0.23,0.07 -0.35,0.08 -0.91,0.11 -1.82,0.2 -2.72,0.34 -1.42,0.22 -2.89,0.28 -4.23,0.75 -2.91,1.02 -4.72,3.72 -4.87,6.91 -0.18,3.75 -0.19,7.5 -0.2,11.26 -0.03,7.16 0,14.31 0,21.47 0,0.84 0.11,1.62 0.38,2.45 1.15,3.5 3.9,5.33 7.55,5.59 1.91,0.14 3.81,0.38 5.7,0.61 2.14,0.26 4.27,0.56 6.4,0.82 2.85,0.36 5.7,0.71 8.55,1.04 0.85,0.1 1.3,0.51 1.57,1.36 1.16,3.61 2.27,7.24 3.64,10.76 1.64,4.2 3.52,8.3 6,12.1 0.61,0.94 0.58,0.98 -0.14,1.87 -2.26,2.79 -4.53,5.57 -6.75,8.39 -2.26,2.88 -4.45,5.83 -6.71,8.71 -1.19,1.52 -1.66,3.24 -1.76,5.22 z M 55.31,90.91 c -0.33,0.38 -0.59,0.62 -0.79,0.91 -0.74,1.04 -1.48,2.09 -2.18,3.15 -3.81,5.72 -7.32,11.61 -10.38,17.78 -1.97,3.97 -3.81,8 -5.47,12.11 -2.06,5.12 -3.85,10.33 -5.35,15.64 -1.43,5.07 -2.63,10.21 -3.52,15.4 -0.58,3.42 -1.04,6.86 -1.45,10.3 -0.32,2.61 -0.53,5.23 -0.7,7.86 -0.11,1.76 -0.04,1.77 1.73,1.77 18.9,0 37.8,0 56.7,0 0.28,0 0.56,-0.01 0.84,0 0.59,0.02 0.86,-0.22 0.9,-0.84 0.13,-2.15 0.29,-4.3 0.45,-6.44 0.18,-2.47 0.28,-4.94 0.56,-7.39 0.37,-3.25 0.89,-6.48 1.33,-9.71 0.93,-6.93 2.27,-13.78 4,-20.55 1.34,-5.26 2.95,-10.45 4.44,-15.67 0.24,-0.83 0.47,-1.66 0.73,-2.57 C 82.42,106.79 68.54,99.55 55.32,90.92 Z M 85.55,192.2 c -0.6,-0.03 -1.06,-0.07 -1.53,-0.07 -18.98,0 -37.97,0 -56.95,0 -0.36,0 -0.74,-0.05 -1.07,0.05 -0.21,0.06 -0.45,0.31 -0.52,0.53 -0.09,0.29 -0.06,0.63 -0.04,0.95 0.23,2.7 0.36,5.41 0.72,8.1 0.56,4.27 1.16,8.53 1.94,12.77 1.3,7.08 3.19,14.01 5.52,20.82 2.67,7.8 5.92,15.34 9.74,22.64 3.29,6.27 7,12.28 11.09,18.06 0.22,0.32 0.5,0.6 0.78,0.93 0.4,-0.2 0.73,-0.33 1.03,-0.52 2.03,-1.27 4.03,-2.59 6.09,-3.81 3.26,-1.93 6.52,-3.88 9.87,-5.67 3.91,-2.08 7.88,-4.07 11.89,-5.96 3.68,-1.74 7.45,-3.28 11.18,-4.93 0.46,-0.2 0.88,-0.47 1.35,-0.72 -6.68,-20.55 -10.36,-41.51 -11.08,-63.16 z m 26.86,-74.09 c -0.22,0.54 -0.41,0.9 -0.52,1.28 -0.91,3.06 -1.86,6.11 -2.71,9.19 -1.8,6.5 -3.29,13.08 -4.44,19.73 -1.17,6.8 -2.07,13.63 -2.55,20.52 -0.1,1.43 -0.3,2.85 -0.4,4.28 -0.06,0.86 -0.01,1.72 -0.01,2.71 h 1.48 c 15.86,0 31.73,0 47.59,0.02 0.91,0 1.56,-0.27 2.21,-0.92 7.41,-7.45 14.85,-14.88 22.29,-22.29 0.49,-0.49 0.73,-0.98 0.73,-1.68 -0.02,-6.87 0,-13.75 -0.02,-20.62 0,-0.38 -0.07,-0.76 -0.12,-1.18 -10.86,-0.32 -21.52,-1.48 -32.1,-3.3 -10.63,-1.83 -21.09,-4.42 -31.44,-7.74 z m 5.64,-15.09 c 18.9,6.01 38.16,9.25 58.01,10.09 v -1.56 c 0,-28.26 0,-56.51 0,-84.77 0,-0.28 0.02,-0.56 -0.01,-0.84 -0.06,-0.63 -0.34,-0.89 -0.95,-0.71 -0.48,0.14 -0.95,0.42 -1.33,0.75 -1.63,1.41 -3.26,2.82 -4.81,4.32 -2.78,2.69 -5.55,5.4 -8.23,8.19 -2.76,2.88 -5.49,5.8 -8.09,8.82 -2.84,3.29 -5.58,6.67 -8.26,10.1 -3.51,4.51 -6.73,9.23 -9.81,14.04 -3.36,5.25 -6.52,10.62 -9.35,16.18 -2.3,4.52 -4.37,9.15 -6.53,13.74 -0.23,0.5 -0.4,1.02 -0.64,1.65 z m 132.38,-0.03 c -0.5,-1.13 -0.95,-2.11 -1.37,-3.09 -2.65,-6.26 -5.7,-12.33 -9.09,-18.22 -2.65,-4.6 -5.5,-9.09 -8.37,-13.55 -1.9,-2.95 -3.92,-5.84 -6.05,-8.63 -2.83,-3.71 -5.76,-7.35 -8.74,-10.95 -2.21,-2.67 -4.52,-5.27 -6.89,-7.8 -2.4,-2.56 -4.92,-5.01 -7.42,-7.47 -1.79,-1.76 -3.63,-3.48 -5.47,-5.2 -0.87,-0.82 -1.79,-1.59 -2.7,-2.37 -0.47,-0.4 -1.07,-0.78 -1.62,-0.39 -0.28,0.2 -0.33,0.84 -0.33,1.28 -0.01,28.38 -0.01,56.75 0,85.13 0,0.43 0.05,0.85 0.09,1.39 10.31,-0.5 20.45,-1.5 30.49,-3.32 9.23,-1.68 18.35,-3.85 27.48,-6.81 z m -106.21,89.13 c -0.51,0 -0.95,0 -1.38,0 -13.19,0 -26.38,0 -39.58,0 -1.56,0 -1.62,0 -1.53,1.61 0.19,3.3 0.4,6.61 0.69,9.9 0.3,3.42 0.58,6.84 1.07,10.23 0.58,4.03 1.31,8.03 2.06,12.03 1.49,7.86 3.49,15.59 5.97,23.19 0.27,0.84 0.34,0.89 1.19,0.64 2.53,-0.74 5.05,-1.5 7.59,-2.24 0.56,-0.16 0.9,-0.45 1.02,-1.03 0.15,-0.74 0.32,-1.48 0.51,-2.22 0.29,-1.08 0.47,-2.21 0.95,-3.2 0.6,-1.2 1.44,-2.29 2.22,-3.4 1.15,-1.64 2.32,-3.25 4.04,-4.37 0.63,-0.41 1.2,-0.93 1.84,-1.34 1.56,-1.03 2.92,-2.38 4.82,-2.83 3.06,-0.73 6.08,-1.67 9.24,-1.98 2.1,-0.21 4.19,-0.56 6.28,-0.83 0.39,-0.05 0.81,-0.14 1.19,-0.08 1.29,0.22 1.91,-0.47 2.26,-1.57 0.07,-0.23 0.15,-0.46 0.24,-0.68 0.58,-1.4 1.11,-2.82 1.75,-4.19 0.37,-0.79 0.32,-1.36 -0.23,-2.06 -2.59,-3.25 -5.15,-6.51 -7.65,-9.82 -0.9,-1.2 -1.96,-2.46 -2.32,-3.86 -0.97,-3.84 -2.32,-7.64 -2.25,-11.91 z m 129.92,-70.33 c 0.49,0 0.92,0 1.35,0 2.76,0 5.51,0.03 8.27,-0.01 2.09,-0.03 4.14,0.16 6.16,0.73 0.8,0.23 1.63,0.42 2.45,0.56 1.73,0.3 3.28,0.93 4.64,2.07 0.43,0.36 0.92,0.64 1.35,0.99 1.26,1.04 2.6,2 3.72,3.18 1.12,1.18 1.98,2.6 3,3.88 1.14,1.43 1.83,3.03 2.31,4.8 1.42,5.3 2.08,10.72 2.53,16.16 0.06,0.76 0.34,1.27 1.07,1.56 1.85,0.74 3.7,1.49 5.53,2.26 0.66,0.28 1.16,0.19 1.75,-0.26 3.56,-2.77 7.13,-5.52 10.74,-8.22 0.95,-0.71 1.98,-1.38 3.08,-1.8 1.45,-0.54 3,-0.81 4.51,-1.2 0.68,-0.18 1.35,-0.36 2.12,-0.57 -3.73,-15.28 -9.59,-29.5 -17.5,-42.89 -2.45,-4.15 -5.02,-8.22 -8.04,-12.16 -6.7,4.38 -13.48,8.34 -20.45,11.98 -6.96,3.63 -14.13,6.84 -21.43,9.82 0.96,3.09 1.88,6.02 2.84,9.12 z m 28.93,-43.52 c -7.21,-8.28 -15.16,-15.4 -23.73,-21.83 -8.62,-6.47 -17.83,-11.97 -27.59,-16.55 -9.69,-4.55 -19.72,-8.08 -30.2,-10.44 6.14,6.72 11.93,13.67 17.29,20.97 5.38,7.31 10.31,14.91 14.8,22.81 4.47,7.88 8.36,16.05 12.01,24.36 13.13,-5.27 25.49,-11.63 37.42,-19.31 z M 146.83,29.45 c -19.82,4.67 -37.95,12.91 -54.49,24.63 -9.86,6.99 -18.88,14.93 -26.99,24.18 11.95,7.71 24.36,14.1 37.49,19.34 10.63,-25.39 25.3,-48.05 43.98,-68.16 z m -1.97,308.58 c -18.09,-20.01 -32.37,-42.4 -42.59,-67.32 -6.7,1.81 -34.1,16.07 -36.77,19.16 9.67,10.95 20.73,20.28 33.01,28.17 14.33,9.19 29.76,15.89 46.34,20 z M 256.13,118.06 c -10.41,3.36 -20.86,5.93 -31.48,7.78 -10.64,1.84 -21.37,2.98 -32.12,3.33 -0.08,0.27 -0.13,0.39 -0.13,0.5 -0.01,4.95 0,9.91 -0.03,14.86 0,0.69 0.41,0.86 0.96,0.98 2.73,0.59 5.45,1.23 8.18,1.79 1.32,0.27 2.47,0.87 3.56,1.63 0.75,0.52 1.5,1.06 2.23,1.61 3.11,2.38 6.22,4.75 9.29,7.16 0.62,0.49 1.17,0.54 1.86,0.25 1.8,-0.76 3.6,-1.5 5.42,-2.22 0.78,-0.31 1.05,-0.85 1.11,-1.65 0.15,-1.95 0.38,-3.88 0.58,-5.83 0.3,-2.98 0.88,-5.92 1.6,-8.82 0.51,-2.05 0.95,-4.1 2.34,-5.83 2.05,-2.54 3.71,-5.41 6.6,-7.18 0.71,-0.44 1.39,-0.94 2.04,-1.46 1.18,-0.95 2.5,-1.51 3.99,-1.78 1.41,-0.26 2.79,-0.69 4.2,-0.96 1.05,-0.2 2.13,-0.36 3.2,-0.39 2.24,-0.06 4.48,-0.02 6.71,-0.03 0.3,0 0.59,-0.06 0.98,-0.1 -0.37,-1.21 -0.7,-2.3 -1.1,-3.63 z M 143,309.99 c -0.04,0.08 -0.09,0.16 -0.13,0.24 3.33,4.45 6.78,8.81 10.59,13.14 1.12,-1.42 2.12,-2.75 3.19,-4.02 0.44,-0.53 0.39,-0.98 0.15,-1.53 -0.36,-0.8 -0.7,-1.6 -1.03,-2.41 -0.41,-0.99 -0.8,-2 -1.19,-3 -0.36,-0.91 -0.95,-1.41 -2,-1.32 -0.59,0.05 -1.2,0 -1.79,-0.08 -2.6,-0.33 -5.19,-0.68 -7.79,-1.03 z M 117.32,265.1 c 1.08,2.49 2.07,4.8 3.06,7.1 0.05,-0.03 0.1,-0.05 0.16,-0.07 v -7.92 c -1.07,0.3 -2.04,0.57 -3.22,0.9 z"
     id="path224" />
  <path
     class="cls-1"
     d="m 161.92,343.74 c 0.11,-1.98 0.57,-3.7 1.76,-5.22 2.26,-2.88 4.45,-5.83 6.71,-8.71 2.22,-2.82 4.49,-5.6 6.75,-8.39 0.72,-0.89 0.76,-0.93 0.14,-1.87 -2.48,-3.79 -4.35,-7.9 -6,-12.1 -1.38,-3.52 -2.48,-7.16 -3.64,-10.76 -0.27,-0.85 -0.71,-1.26 -1.57,-1.36 -2.85,-0.33 -5.7,-0.68 -8.55,-1.04 -2.14,-0.27 -4.27,-0.57 -6.4,-0.82 -1.9,-0.23 -3.8,-0.47 -5.7,-0.61 -3.65,-0.26 -6.4,-2.1 -7.55,-5.59 -0.27,-0.83 -0.38,-1.61 -0.38,-2.45 0,-7.16 -0.02,-14.31 0,-21.47 0.01,-3.75 0.02,-7.51 0.2,-11.26 0.16,-3.18 1.96,-5.88 4.87,-6.91 1.33,-0.47 2.81,-0.53 4.23,-0.75 0.9,-0.14 1.82,-0.23 2.72,-0.34 0.12,-0.01 0.23,-0.07 0.35,-0.08 1.94,-0.19 3.88,-0.37 5.82,-0.56 0.55,-0.06 1.1,-0.16 1.65,-0.24 0.63,-0.08 1.26,-0.16 1.89,-0.24 0.71,-0.08 1.43,-0.14 2.14,-0.23 1.42,-0.16 2.85,-0.33 4.27,-0.51 0.39,-0.05 0.81,-0.11 1.16,-0.28 0.3,-0.14 0.62,-0.39 0.76,-0.67 0.25,-0.49 0.45,-1.04 0.51,-1.58 0.28,-2.37 1.24,-4.53 2,-6.75 1.26,-3.67 2.85,-7.2 4.57,-10.67 0.7,-1.42 1.57,-2.77 2.36,-4.15 0.86,-1.52 0.84,-1.5 -0.31,-2.87 -1.71,-2.04 -3.41,-4.1 -5.07,-6.18 -2.07,-2.58 -4.14,-5.17 -6.15,-7.8 -1.11,-1.45 -2.36,-2.87 -3.11,-4.51 -1.29,-2.83 -0.59,-5.53 1.42,-7.86 0.68,-0.78 1.46,-1.48 2.19,-2.21 7.09,-7.09 14.2,-14.18 21.27,-21.29 1.11,-1.12 2.39,-1.73 3.92,-2.14 2.77,-0.74 4.95,0.16 7.02,1.91 1.89,1.59 3.9,3.04 5.83,4.59 2.83,2.27 5.64,4.57 8.46,6.85 0.81,0.65 1.63,1.28 2.42,1.95 0.4,0.34 0.78,0.35 1.2,0.11 1.59,-0.9 3.16,-1.85 4.79,-2.69 1.59,-0.83 3.23,-1.56 4.86,-2.31 4.33,-1.98 8.83,-3.5 13.4,-4.78 1.11,-0.31 1.55,-0.89 1.67,-1.99 0.45,-4.12 0.94,-8.24 1.45,-12.35 0.26,-2.14 0.6,-4.26 0.88,-6.4 0.14,-1.07 0.16,-2.15 0.35,-3.21 0.54,-3 2.41,-4.82 5.21,-5.86 0.89,-0.33 1.76,-0.45 2.68,-0.41 0.28,0.01 0.56,0 0.84,0 7.91,0.06 15.82,0.14 23.73,0.17 2.75,0 5.51,-0.2 8.26,-0.14 2.06,0.05 3.82,1.03 5.27,2.49 1.5,1.5 1.91,3.45 2.14,5.46 0.27,2.38 0.53,4.75 0.81,7.13 0.28,2.34 0.58,4.67 0.86,7 0.27,2.18 0.52,4.35 0.78,6.53 0.1,0.79 0.5,1.24 1.31,1.49 2.89,0.9 5.79,1.81 8.63,2.87 2.76,1.04 5.48,2.19 8.15,3.45 2.12,1 4.13,2.23 6.19,3.36 0.98,0.53 1,0.52 1.89,-0.19 5.57,-4.46 11.2,-8.86 16.7,-13.4 2.32,-1.91 4.81,-2.12 7.52,-1.45 1.14,0.28 2.08,0.94 2.93,1.79 5.72,5.75 11.46,11.49 17.21,17.22 1.95,1.94 3.96,3.83 5.96,5.73 1.35,1.28 2.25,2.8 2.44,4.67 0.19,1.86 0.05,3.7 -1.15,5.22 -2.42,3.07 -4.91,6.08 -7.35,9.13 -1.59,1.99 -3.15,4.02 -4.73,6.03 -0.71,0.91 -1.39,1.85 -2.15,2.72 -0.44,0.5 -0.51,0.92 -0.2,1.5 1.41,2.63 2.86,5.25 4.17,7.93 1.01,2.08 1.91,4.21 2.7,6.38 1.08,2.96 2.03,5.97 2.97,8.97 0.24,0.76 0.67,1.14 1.41,1.24 2.06,0.26 4.11,0.53 6.17,0.78 2.93,0.36 5.86,0.71 8.79,1.05 1.9,0.22 3.8,0.44 5.7,0.64 2.05,0.21 4.08,0.58 5.53,2.19 0.79,0.87 1.39,1.93 1.95,2.97 0.51,0.96 0.56,2.04 0.56,3.13 -0.03,10.79 0,21.59 -0.03,32.38 0,2.39 -1.11,4.31 -2.9,5.91 -1.47,1.31 -3.26,1.59 -5.09,1.83 -2.45,0.31 -4.91,0.58 -7.36,0.87 -2.3,0.27 -4.59,0.54 -6.89,0.81 -2.14,0.26 -4.27,0.52 -6.41,0.78 -0.8,0.1 -1.22,0.53 -1.48,1.33 -1.2,3.68 -2.35,7.38 -3.74,10.99 -1.58,4.1 -3.53,8.04 -5.7,11.86 -0.45,0.8 -0.4,1.32 0.16,2.02 2.63,3.26 5.2,6.57 7.79,9.86 1.9,2.41 3.82,4.81 5.7,7.24 1.9,2.46 2.14,5.18 0.95,8 -0.35,0.82 -0.95,1.58 -1.59,2.22 -7.72,7.77 -15.48,15.5 -23.21,23.25 -1.39,1.39 -3.08,2.21 -5.01,2.26 -2.02,0.05 -3.88,-0.54 -5.54,-1.87 -4.35,-3.51 -8.77,-6.92 -13.16,-10.38 -1.25,-0.99 -2.54,-1.94 -3.74,-2.98 -0.55,-0.47 -1,-0.52 -1.61,-0.19 -1.72,0.93 -3.44,1.87 -5.2,2.73 -5.31,2.6 -10.8,4.75 -16.49,6.4 -3.16,0.92 -2.46,0.37 -2.98,3.37 -0.39,2.24 -0.52,4.51 -0.79,6.77 -0.27,2.26 -0.57,4.51 -0.83,6.77 -0.22,1.86 -0.42,3.72 -0.62,5.58 -0.22,2.05 -0.62,4.05 -2.17,5.56 -0.56,0.55 -1.21,1.05 -1.91,1.41 -1.19,0.62 -2.42,1.11 -3.85,1.11 -10.91,-0.04 -21.83,-0.02 -32.74,-0.02 -3.11,0 -6.86,-2.54 -7.38,-5.87 -0.32,-2.09 -0.6,-4.18 -0.86,-6.28 -0.3,-2.37 -0.55,-4.75 -0.83,-7.13 -0.28,-2.45 -0.64,-4.9 -0.84,-7.36 -0.25,-3.02 -0.23,-3.04 -3.13,-3.91 -5.05,-1.51 -10.01,-3.26 -14.73,-5.63 -2.21,-1.11 -4.35,-2.35 -6.52,-3.52 -1.13,-0.61 -1.27,-0.64 -2.2,0.15 -2.01,1.7 -4.14,3.26 -6.19,4.9 -3.46,2.77 -6.89,5.56 -10.34,8.33 -0.56,0.45 -1.14,0.88 -1.76,1.24 -2.44,1.38 -6.72,0.95 -8.67,-1.15 -1.77,-1.9 -3.67,-3.68 -5.49,-5.53 -6.01,-6.08 -12,-12.19 -18.03,-18.25 -1.39,-1.4 -1.86,-3.11 -2.09,-4.86 z m 170.77,-75.08 v 0 c 0,-1.12 0,-2.24 0,-3.36 0,-0.84 0.08,-1.69 -0.03,-2.52 -0.31,-2.36 -0.7,-4.71 -1.06,-7.07 -0.01,-0.08 -0.05,-0.15 -0.07,-0.23 -0.79,-2.58 -1.42,-5.19 -2.33,-7.75 -1.95,-5.5 -4.47,-10.69 -7.72,-15.5 -2.75,-4.07 -5.92,-7.8 -9.55,-11.15 -3.04,-2.8 -6.27,-5.3 -9.73,-7.54 -3.06,-1.98 -6.3,-3.6 -9.64,-5.04 -3.64,-1.57 -7.46,-2.58 -11.25,-3.65 -1.53,-0.43 -3.11,-0.69 -4.68,-0.92 -1.61,-0.24 -3.24,-0.47 -4.86,-0.5 -2.23,-0.04 -4.46,0.18 -6.7,0.17 -3.94,-0.02 -7.78,0.64 -11.61,1.43 -3.76,0.77 -7.41,1.94 -10.95,3.42 -3.32,1.38 -6.55,2.97 -9.56,4.94 -2.27,1.49 -4.57,2.97 -6.62,4.72 -2.14,1.83 -4.38,3.6 -6.18,5.81 -1.41,1.73 -2.93,3.37 -4.34,5.1 -3.31,4.05 -5.77,8.62 -8.1,13.26 -1.51,3.02 -2.5,6.27 -3.33,9.55 -0.34,1.35 -0.64,2.71 -0.91,4.08 -0.14,0.7 -0.14,1.43 -0.25,2.14 -0.36,2.32 -0.82,4.63 -0.8,7 0.01,1.39 -0.18,2.79 -0.18,4.18 0,1.31 0.12,2.63 0.21,3.94 0.06,0.87 0.13,1.75 0.25,2.62 0.25,1.9 0.39,3.82 0.83,5.67 0.74,3.14 1.52,6.27 2.64,9.31 1.66,4.47 3.73,8.74 6.29,12.76 1.71,2.69 3.57,5.29 5.73,7.66 2.13,2.32 4.18,4.7 6.55,6.8 3.76,3.33 7.9,6.07 12.38,8.31 2.46,1.23 5.01,2.28 7.54,3.37 1.31,0.57 2.63,1.2 4.01,1.53 2.71,0.65 5.35,1.55 8.15,1.87 2.69,0.31 5.33,0.91 8.07,0.84 2.24,-0.06 4.48,0.06 6.71,-0.04 1.82,-0.08 3.64,-0.36 5.46,-0.59 1.07,-0.13 2.14,-0.25 3.18,-0.51 3.43,-0.88 6.9,-1.66 10.2,-3 1.84,-0.75 3.69,-1.49 5.46,-2.39 1.95,-0.99 3.87,-2.07 5.7,-3.28 2.47,-1.62 4.95,-3.25 7.21,-5.13 2.35,-1.96 4.7,-3.96 6.66,-6.35 1.49,-1.82 3.08,-3.56 4.47,-5.46 1.53,-2.09 2.94,-4.28 4.26,-6.5 1.22,-2.05 2.42,-4.15 3.35,-6.34 1.5,-3.51 2.65,-7.16 3.59,-10.87 0.23,-0.92 0.44,-1.86 0.58,-2.8 0.23,-1.49 0.4,-2.99 0.6,-4.49 0.13,-1.02 0.32,-2.04 0.36,-3.07 0.06,-1.48 0.02,-2.96 0.02,-4.44 z"
     id="path226" />
  <path
     class="cls-1"
     d="m 55.31,90.91 c 13.22,8.62 27.1,15.87 41.83,21.74 -0.26,0.91 -0.5,1.74 -0.73,2.57 -1.49,5.22 -3.1,10.41 -4.44,15.67 -1.73,6.77 -3.07,13.62 -4,20.55 -0.44,3.24 -0.96,6.47 -1.33,9.71 -0.28,2.45 -0.38,4.93 -0.56,7.39 -0.16,2.15 -0.32,4.29 -0.45,6.44 -0.04,0.62 -0.31,0.86 -0.9,0.84 -0.28,-0.01 -0.56,0 -0.84,0 -18.9,0 -37.8,0 -56.7,0 -1.77,0 -1.84,0 -1.73,-1.77 0.17,-2.62 0.38,-5.25 0.7,-7.86 0.42,-3.44 0.87,-6.88 1.45,-10.3 0.89,-5.2 2.09,-10.33 3.52,-15.4 1.5,-5.31 3.29,-10.52 5.35,-15.64 1.66,-4.11 3.5,-8.14 5.47,-12.11 3.06,-6.17 6.57,-12.06 10.38,-17.78 0.71,-1.06 1.44,-2.11 2.18,-3.15 0.2,-0.29 0.46,-0.53 0.79,-0.91 z"
     id="path228" />
  <path
     class="cls-1"
     d="m 85.55,192.2 c 0.72,21.66 4.4,42.61 11.08,63.16 -0.46,0.25 -0.89,0.52 -1.35,0.72 -3.73,1.64 -7.5,3.19 -11.18,4.93 -4.01,1.89 -7.98,3.88 -11.89,5.96 -3.35,1.78 -6.6,3.73 -9.87,5.67 -2.06,1.22 -4.06,2.54 -6.09,3.81 -0.3,0.19 -0.63,0.32 -1.03,0.52 -0.28,-0.33 -0.55,-0.61 -0.78,-0.93 -4.08,-5.78 -7.8,-11.79 -11.09,-18.06 -3.83,-7.3 -7.07,-14.84 -9.74,-22.64 -2.33,-6.81 -4.22,-13.74 -5.52,-20.82 -0.78,-4.23 -1.38,-8.5 -1.94,-12.77 -0.35,-2.68 -0.49,-5.4 -0.72,-8.1 -0.03,-0.32 -0.06,-0.66 0.04,-0.95 0.07,-0.22 0.31,-0.47 0.52,-0.53 0.34,-0.09 0.71,-0.05 1.07,-0.05 18.98,0 37.97,0 56.95,0 0.47,0 0.93,0.04 1.53,0.07 z"
     id="path230" />
  <path
     class="cls-1"
     d="m 112.41,118.11 c 10.36,3.32 20.81,5.91 31.44,7.74 10.58,1.82 21.23,2.98 32.1,3.3 0.04,0.42 0.12,0.8 0.12,1.18 0,6.87 0,13.75 0.02,20.62 0,0.7 -0.24,1.19 -0.73,1.68 -7.44,7.42 -14.88,14.84 -22.29,22.29 -0.64,0.65 -1.3,0.92 -2.21,0.92 -15.86,-0.02 -31.73,-0.02 -47.59,-0.02 h -1.48 c 0,-0.99 -0.05,-1.86 0.01,-2.71 0.1,-1.43 0.29,-2.85 0.4,-4.28 0.48,-6.89 1.38,-13.72 2.55,-20.52 1.15,-6.65 2.63,-13.23 4.44,-19.73 0.85,-3.08 1.8,-6.13 2.71,-9.19 0.11,-0.38 0.3,-0.74 0.52,-1.28 z"
     id="path232" />
  <path
     class="cls-1"
     d="m 118.05,103.02 c 0.24,-0.62 0.41,-1.15 0.64,-1.65 2.16,-4.59 4.23,-9.22 6.53,-13.74 2.83,-5.55 5.98,-10.92 9.35,-16.18 3.08,-4.81 6.3,-9.53 9.81,-14.04 2.67,-3.43 5.42,-6.81 8.26,-10.1 2.6,-3.02 5.33,-5.94 8.09,-8.82 2.68,-2.79 5.45,-5.5 8.23,-8.19 1.55,-1.5 3.18,-2.9 4.81,-4.32 0.38,-0.33 0.85,-0.61 1.33,-0.75 0.61,-0.18 0.89,0.08 0.95,0.71 0.03,0.28 0.01,0.56 0.01,0.84 0,28.26 0,56.51 0,84.77 v 1.56 c -19.85,-0.85 -39.11,-4.08 -58.01,-10.09 z"
     id="path234" />
  <path
     class="cls-1"
     d="m 250.42,103 c -9.13,2.96 -18.24,5.14 -27.48,6.81 -10.04,1.82 -20.18,2.83 -30.49,3.32 -0.03,-0.54 -0.09,-0.96 -0.09,-1.39 0,-28.38 0,-56.75 0,-85.13 0,-0.44 0.05,-1.08 0.33,-1.28 0.55,-0.39 1.15,-0.01 1.62,0.39 0.91,0.78 1.82,1.55 2.7,2.37 1.84,1.72 3.68,3.43 5.47,5.2 2.5,2.46 5.02,4.91 7.42,7.47 2.37,2.53 4.68,5.13 6.89,7.8 2.98,3.59 5.91,7.23 8.74,10.95 2.13,2.79 4.14,5.68 6.05,8.63 2.88,4.46 5.72,8.95 8.37,13.55 3.39,5.88 6.44,11.95 9.09,18.22 0.42,0.99 0.87,1.96 1.37,3.09 z"
     id="path236" />
  <path
     class="cls-1"
     d="m 144.21,192.13 c -0.06,4.27 1.28,8.06 2.25,11.91 0.35,1.4 1.41,2.66 2.32,3.86 2.5,3.31 5.07,6.58 7.65,9.82 0.56,0.7 0.6,1.27 0.23,2.06 -0.64,1.37 -1.18,2.79 -1.75,4.19 -0.09,0.22 -0.17,0.45 -0.24,0.68 -0.36,1.09 -0.97,1.79 -2.26,1.57 -0.38,-0.07 -0.8,0.02 -1.19,0.08 -2.09,0.28 -4.18,0.62 -6.28,0.83 -3.16,0.32 -6.17,1.26 -9.24,1.98 -1.9,0.45 -3.27,1.8 -4.82,2.83 -0.63,0.42 -1.2,0.93 -1.84,1.34 -1.72,1.12 -2.89,2.73 -4.04,4.37 -0.78,1.11 -1.62,2.2 -2.22,3.4 -0.49,0.98 -0.66,2.12 -0.95,3.2 -0.2,0.73 -0.36,1.47 -0.51,2.22 -0.12,0.58 -0.46,0.87 -1.02,1.03 -2.53,0.73 -5.06,1.5 -7.59,2.24 -0.85,0.25 -0.92,0.2 -1.19,-0.64 -2.48,-7.6 -4.48,-15.33 -5.97,-23.19 -0.76,-4 -1.49,-8 -2.06,-12.03 -0.49,-3.39 -0.77,-6.81 -1.07,-10.23 -0.29,-3.3 -0.5,-6.6 -0.69,-9.9 -0.09,-1.6 -0.03,-1.61 1.53,-1.61 13.19,0 26.38,0 39.58,0 0.43,0 0.86,0 1.38,0 z"
     id="path238" />
  <path
     class="cls-1"
     d="m 274.14,121.8 c -0.97,-3.1 -1.88,-6.03 -2.84,-9.12 7.3,-2.97 14.46,-6.18 21.43,-9.82 6.97,-3.64 13.75,-7.6 20.45,-11.98 3.01,3.94 5.59,8.01 8.04,12.16 7.9,13.39 13.77,27.61 17.5,42.89 -0.77,0.21 -1.44,0.4 -2.12,0.57 -1.51,0.39 -3.06,0.66 -4.51,1.2 -1.1,0.41 -2.13,1.09 -3.08,1.8 -3.61,2.7 -7.18,5.45 -10.74,8.22 -0.58,0.45 -1.08,0.54 -1.75,0.26 -1.84,-0.78 -3.68,-1.53 -5.53,-2.26 -0.72,-0.29 -1.01,-0.79 -1.07,-1.56 -0.45,-5.45 -1.11,-10.86 -2.53,-16.16 -0.47,-1.77 -1.16,-3.37 -2.31,-4.8 -1.02,-1.28 -1.88,-2.7 -3,-3.88 -1.12,-1.18 -2.46,-2.14 -3.72,-3.18 -0.43,-0.36 -0.92,-0.63 -1.35,-0.99 -1.35,-1.13 -2.91,-1.77 -4.64,-2.07 -0.82,-0.14 -1.65,-0.33 -2.45,-0.56 -2.02,-0.58 -4.07,-0.77 -6.16,-0.73 -2.76,0.05 -5.51,0.01 -8.27,0.01 -0.43,0 -0.87,0 -1.35,0 z"
     id="path240" />
  <path
     class="cls-1"
     d="m 303.07,78.27 c -11.93,7.68 -24.29,14.05 -37.42,19.31 -3.66,-8.32 -7.54,-16.48 -12.01,-24.36 -4.48,-7.9 -9.42,-15.5 -14.8,-22.81 -5.37,-7.29 -11.16,-14.24 -17.29,-20.97 10.48,2.36 20.51,5.89 30.2,10.44 9.76,4.58 18.97,10.08 27.59,16.55 8.57,6.43 16.53,13.55 23.73,21.83 z"
     id="path242" />
  <path
     class="cls-1"
     d="M 146.83,29.45 C 128.14,49.55 113.47,72.22 102.85,97.61 89.72,92.36 77.31,85.97 65.36,78.27 73.47,69.02 82.49,61.08 92.35,54.09 108.89,42.37 127.02,34.12 146.84,29.46 Z"
     id="path244" />
  <path
     class="cls-1"
     d="m 144.86,338.04 c -16.59,-4.11 -32.01,-10.81 -46.34,-20 -12.29,-7.88 -23.35,-17.22 -33.01,-28.17 2.67,-3.09 30.07,-17.35 36.77,-19.16 10.22,24.92 24.5,47.31 42.59,67.32 z"
     id="path246" />
  <path
     class="cls-1"
     d="m 256.13,118.06 c 0.4,1.32 0.74,2.42 1.1,3.63 -0.39,0.04 -0.68,0.1 -0.98,0.1 -2.24,0.01 -4.48,-0.03 -6.71,0.03 -1.07,0.03 -2.15,0.19 -3.2,0.39 -1.41,0.27 -2.79,0.7 -4.2,0.96 -1.49,0.27 -2.81,0.84 -3.99,1.78 -0.65,0.52 -1.33,1.03 -2.04,1.46 -2.88,1.77 -4.55,4.64 -6.6,7.18 -1.39,1.72 -1.83,3.78 -2.34,5.83 -0.72,2.91 -1.3,5.84 -1.6,8.82 -0.2,1.94 -0.43,3.88 -0.58,5.83 -0.06,0.81 -0.33,1.35 -1.11,1.65 -1.82,0.72 -3.62,1.46 -5.42,2.22 -0.69,0.29 -1.24,0.24 -1.86,-0.25 -3.08,-2.41 -6.19,-4.78 -9.29,-7.16 -0.73,-0.56 -1.48,-1.09 -2.23,-1.61 -1.09,-0.76 -2.24,-1.36 -3.56,-1.63 -2.73,-0.57 -5.45,-1.2 -8.18,-1.79 -0.56,-0.12 -0.97,-0.29 -0.96,-0.98 0.02,-4.95 0.02,-9.91 0.03,-14.86 0,-0.11 0.06,-0.23 0.13,-0.5 10.76,-0.34 21.48,-1.48 32.12,-3.33 10.62,-1.84 21.08,-4.41 31.48,-7.78 z"
     id="path248" />
  <path
     class="cls-1"
     d="m 143,309.99 c 2.6,0.35 5.19,0.7 7.79,1.03 0.59,0.07 1.2,0.13 1.79,0.08 1.05,-0.09 1.64,0.4 2,1.32 0.39,1 0.78,2 1.19,3 0.33,0.81 0.67,1.62 1.03,2.41 0.25,0.55 0.3,1 -0.15,1.53 -1.07,1.27 -2.07,2.6 -3.19,4.02 -3.81,-4.33 -7.26,-8.69 -10.59,-13.14 0.04,-0.08 0.09,-0.16 0.13,-0.24 z"
     id="path250" />
  <path
     class="cls-1"
     d="m 117.32,265.1 c 1.18,-0.33 2.15,-0.6 3.22,-0.9 v 7.92 c -0.05,0.02 -0.1,0.05 -0.16,0.07 -0.99,-2.3 -1.99,-4.6 -3.06,-7.1 z"
     id="path252" />
  <path
     d="m 332.69,268.66 c 0,1.48 0.05,2.96 -0.02,4.44 -0.04,1.03 -0.23,2.05 -0.36,3.07 -0.19,1.5 -0.37,3 -0.6,4.49 -0.15,0.94 -0.35,1.88 -0.58,2.8 -0.94,3.71 -2.09,7.36 -3.59,10.87 -0.94,2.19 -2.13,4.28 -3.35,6.34 -1.33,2.23 -2.74,4.41 -4.26,6.5 -1.38,1.9 -2.97,3.64 -4.47,5.46 -1.96,2.39 -4.31,4.39 -6.66,6.35 -2.27,1.88 -4.75,3.51 -7.21,5.13 -1.83,1.2 -3.75,2.28 -5.7,3.28 -1.77,0.9 -3.62,1.64 -5.46,2.39 -3.3,1.34 -6.76,2.12 -10.2,3 -1.04,0.27 -2.11,0.38 -3.18,0.51 -1.82,0.22 -3.63,0.5 -5.46,0.59 -2.23,0.1 -4.48,-0.02 -6.71,0.04 -2.73,0.07 -5.38,-0.53 -8.07,-0.84 -2.8,-0.32 -5.44,-1.22 -8.15,-1.87 -1.38,-0.33 -2.7,-0.96 -4.01,-1.53 -2.53,-1.09 -5.08,-2.14 -7.54,-3.37 -4.48,-2.23 -8.61,-4.97 -12.38,-8.31 -2.37,-2.1 -4.42,-4.48 -6.55,-6.8 -2.17,-2.37 -4.02,-4.96 -5.73,-7.66 -2.56,-4.02 -4.63,-8.28 -6.29,-12.76 -1.13,-3.04 -1.91,-6.17 -2.64,-9.31 -0.44,-1.85 -0.58,-3.78 -0.83,-5.67 -0.11,-0.87 -0.19,-1.74 -0.25,-2.62 -0.09,-1.31 -0.21,-2.63 -0.21,-3.94 0,-1.39 0.19,-2.79 0.18,-4.18 -0.02,-2.37 0.44,-4.68 0.8,-7 0.11,-0.71 0.11,-1.44 0.25,-2.14 0.27,-1.37 0.57,-2.73 0.91,-4.08 0.83,-3.28 1.82,-6.53 3.33,-9.55 2.32,-4.64 4.79,-9.22 8.1,-13.26 1.41,-1.73 2.93,-3.37 4.34,-5.1 1.8,-2.21 4.04,-3.98 6.18,-5.81 2.06,-1.75 4.36,-3.24 6.62,-4.72 3.01,-1.98 6.24,-3.56 9.56,-4.94 3.54,-1.47 7.18,-2.64 10.95,-3.42 3.83,-0.79 7.67,-1.45 11.61,-1.43 2.23,0.01 4.47,-0.21 6.7,-0.17 1.62,0.03 3.25,0.26 4.86,0.5 1.57,0.23 3.15,0.49 4.68,0.92 3.8,1.07 7.62,2.08 11.25,3.65 3.34,1.44 6.58,3.06 9.64,5.04 3.46,2.23 6.7,4.74 9.73,7.54 3.63,3.35 6.8,7.08 9.55,11.15 3.25,4.81 5.77,10.01 7.72,15.5 0.91,2.56 1.54,5.17 2.33,7.75 0.02,0.08 0.06,0.15 0.07,0.23 0.36,2.36 0.75,4.71 1.06,7.07 0.11,0.83 0.03,1.68 0.03,2.52 0,1.12 0,2.24 0,3.36 v 0 z m -87.74,42.05 c 1.79,0.88 3.42,1.81 5.13,2.52 4.46,1.84 9.06,3.08 13.95,2.93 0.35,-0.01 0.71,0.08 1.07,0.11 0.99,0.09 1.98,0.25 2.97,0.23 1.31,-0.04 2.62,-0.19 3.93,-0.36 0.53,-0.07 1.12,-0.21 1.55,-0.51 2.58,-1.81 5.2,-3.58 7.66,-5.54 3.25,-2.58 6.37,-5.31 9.53,-8 3.87,-3.29 7.39,-6.94 10.84,-10.66 0.48,-0.52 0.88,-1.1 1.42,-1.78 -11.7,-7.52 -23.88,-13.85 -36.78,-19.02 -3.03,7.05 -6.11,13.93 -9.67,20.59 -3.55,6.66 -7.45,13.1 -11.6,19.51 z m 26.77,-55.31 c 3.68,1.61 7.25,3.09 10.75,4.71 3.55,1.64 7.08,3.35 10.55,5.16 3.43,1.79 6.81,3.7 10.15,5.65 3.36,1.96 6.66,4.03 9.99,6.05 1.15,-1.2 1.97,-2.36 1.78,-4.01 -0.07,-0.62 0.02,-1.28 0.14,-1.9 0.29,-1.59 0.29,-3.17 0,-4.76 -0.12,-0.7 -0.19,-1.43 -0.16,-2.14 0.11,-2.3 -0.28,-4.57 -0.91,-6.74 -0.81,-2.79 -1.86,-5.52 -2.99,-8.19 -1.28,-3.01 -2.94,-5.83 -4.78,-8.54 -1.22,-1.79 -2.75,-3.31 -4.17,-4.93 -1.73,-1.97 -3.66,-3.69 -5.72,-5.24 -4.37,-3.29 -9.26,-5.61 -14.38,-7.48 -0.63,-0.23 -1.27,-0.41 -1.82,-0.59 -0.17,0.16 -0.27,0.21 -0.28,0.27 -2.09,10.99 -4.54,21.88 -8.18,32.68 z m -39.51,45.37 c 7.46,-11.28 13.67,-23.11 18.82,-35.57 -0.27,-0.13 -0.43,-0.25 -0.62,-0.3 -4.57,-1.27 -9.12,-2.66 -13.73,-3.77 -4.92,-1.19 -9.9,-2.12 -14.86,-3.14 -0.94,-0.19 -1.17,-0.05 -1.3,0.88 -0.28,1.97 -0.74,3.92 -0.59,5.94 0.05,0.63 -0.08,1.27 -0.13,1.9 -0.06,0.83 -0.19,1.66 -0.16,2.49 0.04,1.27 0.32,2.54 0.28,3.81 -0.06,2.14 0.31,4.23 0.82,6.27 0.74,2.93 1.56,5.84 3.08,8.52 1.06,1.87 1.9,3.85 2.91,5.75 1.26,2.36 2.79,4.55 4.64,6.5 0.21,0.22 0.47,0.41 0.84,0.73 z m 24.37,-50.76 c 0.52,-1.62 1.06,-3.03 1.43,-4.49 1.52,-5.95 3.01,-11.91 4.48,-17.88 0.4,-1.62 0.68,-3.28 1,-4.92 0.27,-1.39 0.12,-1.61 -1.25,-1.54 -1.23,0.06 -2.44,0.33 -3.67,0.43 -2.54,0.21 -4.91,1.09 -7.24,2.01 -2,0.78 -3.91,1.78 -5.87,2.66 -2.71,1.22 -5.15,2.89 -7.5,4.67 -1.4,1.05 -2.69,2.26 -3.95,3.47 -1.06,1.02 -2.07,2.1 -3.01,3.24 -1.14,1.38 -2.19,2.84 -3.25,4.29 -0.12,0.17 -0.12,0.43 -0.19,0.72 9.81,1.79 19.36,4.3 29.01,7.35 z"
     id="path254" />
  <path
     class="cls-1"
     d="m 244.96,310.71 c 4.15,-6.4 8.05,-12.85 11.6,-19.51 3.56,-6.66 6.64,-13.54 9.67,-20.59 12.9,5.17 25.07,11.5 36.78,19.02 -0.53,0.68 -0.94,1.26 -1.42,1.78 -3.45,3.72 -6.97,7.37 -10.84,10.66 -3.16,2.69 -6.29,5.42 -9.53,8 -2.47,1.96 -5.08,3.73 -7.66,5.54 -0.43,0.3 -1.02,0.44 -1.55,0.51 -1.3,0.17 -2.61,0.33 -3.93,0.36 -0.99,0.03 -1.98,-0.14 -2.97,-0.23 -0.36,-0.03 -0.71,-0.12 -1.07,-0.11 -4.89,0.16 -9.49,-1.09 -13.95,-2.93 -1.72,-0.71 -3.35,-1.63 -5.13,-2.52 z"
     id="path256" />
  <path
     class="cls-1"
     d="m 271.73,255.4 c 3.63,-10.8 6.09,-21.7 8.18,-32.68 0.01,-0.06 0.11,-0.11 0.28,-0.27 0.55,0.18 1.19,0.36 1.82,0.59 5.12,1.87 10.01,4.19 14.38,7.48 2.06,1.56 3.99,3.28 5.72,5.24 1.42,1.62 2.95,3.14 4.17,4.93 1.84,2.71 3.5,5.53 4.78,8.54 1.13,2.68 2.18,5.41 2.99,8.19 0.63,2.17 1.02,4.43 0.91,6.74 -0.03,0.71 0.03,1.44 0.16,2.14 0.28,1.59 0.28,3.17 0,4.76 -0.12,0.62 -0.21,1.28 -0.14,1.9 0.19,1.65 -0.64,2.81 -1.78,4.01 -3.33,-2.02 -6.63,-4.09 -9.99,-6.05 -3.35,-1.95 -6.72,-3.86 -10.15,-5.65 -3.47,-1.81 -7,-3.52 -10.55,-5.16 -3.5,-1.62 -7.07,-3.1 -10.75,-4.71 z"
     id="path258" />
  <path
     class="cls-1"
     d="m 232.21,300.77 c -0.37,-0.32 -0.63,-0.5 -0.84,-0.73 -1.85,-1.95 -3.37,-4.14 -4.64,-6.5 -1.01,-1.89 -1.85,-3.88 -2.91,-5.75 -1.51,-2.67 -2.34,-5.59 -3.08,-8.52 -0.51,-2.04 -0.88,-4.12 -0.82,-6.27 0.03,-1.27 -0.24,-2.54 -0.28,-3.81 -0.03,-0.83 0.1,-1.66 0.16,-2.49 0.05,-0.64 0.18,-1.28 0.13,-1.9 -0.15,-2.02 0.31,-3.97 0.59,-5.94 0.13,-0.93 0.36,-1.08 1.3,-0.88 4.96,1.03 9.94,1.96 14.86,3.14 4.61,1.11 9.16,2.5 13.73,3.77 0.18,0.05 0.35,0.17 0.62,0.3 -5.14,12.46 -11.36,24.29 -18.82,35.57 z"
     id="path260" />
  <path
     class="cls-1"
     d="m 256.59,250 c -9.65,-3.05 -19.21,-5.56 -29.01,-7.35 0.07,-0.29 0.06,-0.55 0.19,-0.72 1.07,-1.44 2.11,-2.9 3.25,-4.29 0.94,-1.14 1.95,-2.22 3.01,-3.24 1.26,-1.21 2.55,-2.42 3.95,-3.47 2.35,-1.78 4.79,-3.45 7.5,-4.67 1.96,-0.88 3.87,-1.87 5.87,-2.66 2.33,-0.92 4.7,-1.8 7.24,-2.01 1.23,-0.1 2.44,-0.37 3.67,-0.43 1.37,-0.07 1.51,0.15 1.25,1.54 -0.32,1.64 -0.6,3.3 -1,4.92 -1.47,5.97 -2.96,11.93 -4.48,17.88 -0.37,1.46 -0.91,2.87 -1.43,4.49 z"
     id="path262" />
</svg>
