<svg width="40" height="40" viewBox="0 0 40 40" fill="none" xmlns="http://www.w3.org/2000/svg">
  <rect width="40" height="40" rx="20" fill="white"/>
  <path fill-rule="evenodd" clip-rule="evenodd" d="M23.354 13.6459C23.4006 13.6924 23.4375 13.7475 23.4628 13.8083C23.488 13.869 23.5009 13.9341 23.5009 13.9999C23.5009 14.0657 23.488 14.1308 23.4628 14.1916C23.4375 14.2523 23.4006 14.3075 23.354 14.3539L17.707 19.9999L23.354 25.6459C23.4479 25.7398 23.5007 25.8671 23.5007 25.9999C23.5007 26.1327 23.4479 26.26 23.354 26.3539C23.2602 26.4478 23.1328 26.5005 23 26.5005C22.8673 26.5005 22.7399 26.4478 22.646 26.3539L16.646 20.3539C16.5995 20.3075 16.5625 20.2523 16.5373 20.1915C16.5121 20.1308 16.4991 20.0657 16.4991 19.9999C16.4991 19.9341 16.5121 19.869 16.5373 19.8083C16.5625 19.7475 16.5995 19.6924 16.646 19.6459L22.646 13.6459C22.6925 13.5994 22.7477 13.5624 22.8084 13.5372C22.8692 13.512 22.9343 13.499 23 13.499C23.0658 13.499 23.1309 13.512 23.1917 13.5372C23.2524 13.5624 23.3076 13.5994 23.354 13.6459V13.6459Z" fill="#080A0C"/>
</svg>

