<svg width="16" height="16" viewBox="0 0 16 16" fill="none" xmlns="http://www.w3.org/2000/svg">
<path d="M5.33337 8.24479C6.66337 8.24479 7.66671 7.24146 7.66671 5.91146C7.66671 4.58146 6.66337 3.57812 5.33337 3.57812C4.00337 3.57812 3.00004 4.58146 3.00004 5.91146C3.00004 7.24146 4.00337 8.24479 5.33337 8.24479ZM6.00004 8.87679H4.66671C2.82871 8.87679 1.33337 10.3721 1.33337 12.2101V12.8768H9.33337V12.2101C9.33337 10.3721 7.83804 8.87679 6.00004 8.87679Z" fill="white"/>
<path d="M10.6667 3.33594H12.6667L12.3334 8.0026H11L10.6667 3.33594Z" fill="white"/>
<rect width="2" height="2" rx="1" transform="matrix(1 0 0 -1 10.6667 10.6719)" fill="white"/>
</svg>
