<svg width="16" height="16" viewBox="0 0 16 16" fill="none" xmlns="http://www.w3.org/2000/svg">
<path d="M6.66666 11.9987C7.84998 11.9985 8.9992 11.6023 9.93133 10.8734L12.862 13.804L13.8047 12.8614L10.874 9.9307C11.6033 8.99847 11.9997 7.84899 12 6.66536C12 3.7247 9.60733 1.33203 6.66666 1.33203C3.726 1.33203 1.33333 3.7247 1.33333 6.66536C1.33333 9.60603 3.726 11.9987 6.66666 11.9987ZM6.66666 2.66536C8.87266 2.66536 10.6667 4.45936 10.6667 6.66536C10.6667 8.87136 8.87266 10.6654 6.66666 10.6654C4.46066 10.6654 2.66666 8.87136 2.66666 6.66536C2.66666 4.45936 4.46066 2.66536 6.66666 2.66536Z" fill="#C4C4C4"/>
<path d="M7.608 5.7221C7.86067 5.97544 8 6.3101 8 6.66477H9.33334C9.33393 6.31439 9.26506 5.96737 9.13072 5.64376C8.99638 5.32016 8.79923 5.02639 8.55067 4.77944C7.54134 3.77144 5.79134 3.77144 4.78267 4.77944L5.724 5.72344C6.23067 5.2181 7.104 5.21944 7.608 5.7221Z" fill="#C4C4C4"/>
</svg>
