<svg width="13" height="12" viewBox="0 0 13 12" fill="none" xmlns="http://www.w3.org/2000/svg">
<path d="M12.284 5.39678L0.950671 0.0634447C0.836549 0.00974487 0.709535 -0.01048 0.584378 0.00511857C0.45922 0.0207172 0.341056 0.0714993 0.243605 0.151568C0.146155 0.231637 0.0734165 0.337707 0.0338372 0.457461C-0.00574211 0.577215 -0.0105387 0.70574 0.0200046 0.828111L0.828005 4.06078L6 6.00011L0.828005 7.93945L0.0200046 11.1721C-0.0111134 11.2946 -0.00671711 11.4234 0.0326791 11.5434C0.0720754 11.6635 0.144843 11.7698 0.242469 11.85C0.340095 11.9303 0.458544 11.981 0.58396 11.9964C0.709375 12.0117 0.836572 11.9911 0.950671 11.9368L12.284 6.60344C12.3985 6.54961 12.4954 6.46428 12.5632 6.35744C12.631 6.2506 12.6671 6.12667 12.6671 6.00011C12.6671 5.87356 12.631 5.74962 12.5632 5.64278C12.4954 5.53594 12.3985 5.45062 12.284 5.39678Z" fill="#9A9C9D"/>
</svg>
