<svg width="22" height="16" viewBox="0 0 22 16" fill="none" xmlns="http://www.w3.org/2000/svg">
<path fill-rule="evenodd" clip-rule="evenodd" d="M4 0C1.79086 0 0 1.79086 0 4V12C0 14.2091 1.79086 16 4 16H18C20.2091 16 22 14.2091 22 12V4C22 1.79086 20.2091 0 18 0H4ZM10.6464 4.64645L7.46447 7.82843C7.2692 8.02369 7.2692 8.34027 7.46447 8.53553C7.65973 8.7308 7.97631 8.7308 8.17157 8.53553L10.5 6.20711V12C10.5 12.2761 10.7239 12.5 11 12.5C11.2761 12.5 11.5 12.2761 11.5 12V6.20711L13.8284 8.53553C14.0237 8.7308 14.3403 8.7308 14.5355 8.53553C14.7308 8.34027 14.7308 8.02369 14.5355 7.82843L11.3536 4.64645C11.1583 4.45118 10.8417 4.45118 10.6464 4.64645Z" fill="#D9D9D9"/>
</svg>
