<svg width="40" height="40" viewBox="0 0 40 40" fill="none" xmlns="http://www.w3.org/2000/svg">
<rect x="0.5" y="0.5" width="39" height="39" rx="19.5" fill="#232325" fill-opacity="0.48"/>
<path d="M14.6666 14.668H17.3333V17.3346H14.6666V14.668ZM18.6666 14.668H21.3333V17.3346H18.6666V14.668ZM22.6666 14.668H25.3333V17.3346H22.6666V14.668ZM14.6666 18.668H17.3333V21.3346H14.6666V18.668ZM18.6666 18.668H21.3333V21.3346H18.6666V18.668ZM22.6666 18.668H25.3333V21.3346H22.6666V18.668ZM14.6666 22.668H17.3333V25.3346H14.6666V22.668ZM18.6666 22.668H21.3333V25.3346H18.6666V22.668ZM22.6666 22.668H25.3333V25.3346H22.6666V22.668Z" fill="white"/>
<rect x="0.5" y="0.5" width="39" height="39" rx="19.5" stroke="#C3CFD5"/>
</svg>
