<svg width="24" height="24" viewBox="0 0 24 24" fill="none" xmlns="http://www.w3.org/2000/svg">
<path fill-rule="evenodd" clip-rule="evenodd" d="M20.8599 10.5911C20.5399 8.59115 19.6999 6.83115 18.3699 5.30115C18.3199 5.24115 18.2499 5.18115 18.1899 5.14115C17.8299 4.90115 17.4199 4.97115 17.0799 5.32115C16.7699 5.65115 16.7199 6.06115 16.9799 6.41115C17.063 6.5204 17.1498 6.62775 17.2372 6.7357L17.2372 6.73572C17.3497 6.87476 17.463 7.01478 17.5699 7.16115C18.8699 9.01115 19.4099 11.0611 19.1399 13.3211C19.0199 14.3411 18.7199 15.3011 18.2599 16.2111C17.9599 16.8211 17.5599 17.3611 17.1599 17.9011L17.1599 17.9011C16.8499 18.3211 16.9399 18.7811 17.3999 19.1411C17.7599 19.4211 18.2399 19.3811 18.5399 19.0111C19.7699 17.5411 20.5399 15.8511 20.8599 13.9611C20.9199 13.5912 20.9599 13.2112 20.9999 12.8313L20.9999 12.8311V11.6711C20.9799 11.5271 20.9631 11.3832 20.9463 11.2392C20.9211 11.0232 20.8959 10.8071 20.8599 10.5911ZM11.84 6.2412C11.53 5.8412 11.02 5.8012 10.6 6.1512C9.88504 6.74617 9.17007 7.33864 8.45511 7.93111L8.45497 7.93122C7.73998 8.52372 7.02499 9.11621 6.31 9.7112C6.25 9.7612 6.15 9.8012 6.06 9.8012H3.92C3.33 9.8012 3 10.1412 3 10.7212V13.7812C3 14.3712 3.32 14.7012 3.91 14.7012H6.04C6.13 14.7012 6.24 14.7412 6.31 14.7912C6.49766 14.94 6.68114 15.0931 6.86313 15.2449L6.86318 15.2449L6.8632 15.2449C6.96242 15.3277 7.06121 15.4101 7.16 15.4912C7.735 15.9662 8.31 16.4437 8.885 16.9212C9.46 17.3987 10.035 17.8762 10.61 18.3512C10.8 18.5112 11.01 18.6112 11.27 18.5812C11.73 18.5212 12 18.1812 12 17.6812V12.2412V6.8212C12 6.6012 11.97 6.4012 11.83 6.2212L11.84 6.2412ZM15.4299 7.99124C15.6299 8.16124 15.7799 8.38123 15.9299 8.60123L15.9199 8.58124C16.6599 9.69124 17.0299 10.9012 17.0299 12.2312C17.0299 13.6712 16.5999 14.9812 15.7499 16.1412C15.4799 16.5212 14.9999 16.6012 14.6299 16.3612C14.1699 16.0612 14.0199 15.5612 14.2799 15.1512C14.3057 15.1096 14.3316 15.068 14.3575 15.0265C14.5924 14.6493 14.8258 14.2746 14.9699 13.8512C15.4899 12.2812 15.2899 10.8112 14.3399 9.45124C14.3166 9.4179 14.2922 9.38457 14.2677 9.35123C14.2188 9.28457 14.1699 9.2179 14.1299 9.15124C13.9099 8.78124 13.9999 8.37124 14.3699 8.04124C14.6799 7.77124 15.1299 7.72124 15.4299 7.99124Z" fill="#E1E1E1"/>
</svg>
