<svg width="32" height="32" viewBox="0 0 32 32" fill="none" xmlns="http://www.w3.org/2000/svg">
<path fill-rule="evenodd" clip-rule="evenodd" d="M24.8599 14.5911C24.5399 12.5911 23.6999 10.8311 22.3699 9.30115C22.3199 9.24115 22.2499 9.18115 22.1899 9.14115C21.8299 8.90115 21.4199 8.97115 21.0799 9.32115C20.7699 9.65115 20.7199 10.0611 20.9799 10.4111C21.063 10.5204 21.1498 10.6278 21.2372 10.7357L21.2372 10.7357C21.3497 10.8748 21.463 11.0148 21.5699 11.1611C22.8699 13.0111 23.4099 15.0611 23.1399 17.3211C23.0199 18.3411 22.7199 19.3011 22.2599 20.2111C21.9599 20.8211 21.5599 21.3611 21.1599 21.9011L21.1599 21.9011C20.8499 22.3211 20.9399 22.7811 21.3999 23.1411C21.7599 23.4211 22.2399 23.3811 22.5399 23.0111C23.7699 21.5411 24.5399 19.8511 24.8599 17.9611C24.9199 17.5912 24.9599 17.2112 24.9999 16.8313L24.9999 16.8311V15.6711C24.9799 15.5271 24.9631 15.3832 24.9463 15.2392C24.9211 15.0232 24.8959 14.8071 24.8599 14.5911ZM15.84 10.2412C15.53 9.8412 15.02 9.8012 14.6 10.1512C13.885 10.7462 13.1701 11.3386 12.4551 11.9311L12.455 11.9312C11.74 12.5237 11.025 13.1162 10.31 13.7112C10.25 13.7612 10.15 13.8012 10.06 13.8012H7.92C7.33 13.8012 7 14.1412 7 14.7212V17.7812C7 18.3712 7.32 18.7012 7.91 18.7012H10.04C10.13 18.7012 10.24 18.7412 10.31 18.7912C10.4977 18.94 10.6811 19.0931 10.8631 19.2449L10.8632 19.2449L10.8632 19.2449C10.9624 19.3277 11.0612 19.4101 11.16 19.4912C11.735 19.9662 12.31 20.4437 12.885 20.9212C13.46 21.3987 14.035 21.8762 14.61 22.3512C14.8 22.5112 15.01 22.6112 15.27 22.5812C15.73 22.5212 16 22.1812 16 21.6812V16.2412V10.8212C16 10.6012 15.97 10.4012 15.83 10.2212L15.84 10.2412ZM19.4299 11.9912C19.6299 12.1612 19.7799 12.3812 19.9299 12.6012L19.9199 12.5812C20.6599 13.6912 21.0299 14.9012 21.0299 16.2312C21.0299 17.6712 20.5999 18.9812 19.7499 20.1412C19.4799 20.5212 18.9999 20.6012 18.6299 20.3612C18.1699 20.0612 18.0199 19.5612 18.2799 19.1512C18.3057 19.1096 18.3316 19.068 18.3575 19.0265C18.5924 18.6493 18.8258 18.2746 18.9699 17.8512C19.4899 16.2812 19.2899 14.8112 18.3399 13.4512C18.3166 13.4179 18.2922 13.3846 18.2677 13.3512C18.2188 13.2846 18.1699 13.2179 18.1299 13.1512C17.9099 12.7812 17.9999 12.3712 18.3699 12.0412C18.6799 11.7712 19.1299 11.7212 19.4299 11.9912Z" fill="#9A9C9D"/>
<rect x="7.08228" y="8.76562" width="1.7" height="23.4583" transform="rotate(-45 7.08228 8.76562)" fill="#9A9C9D"/>
<rect x="6.14185" y="9.70312" width="1.7" height="23.4583" transform="rotate(-45 6.14185 9.70312)" fill="#3B3B3B"/>
</svg>
