<svg width="14" height="14" viewBox="0 0 14 14" fill="none" xmlns="http://www.w3.org/2000/svg">
<path d="M13.6313 5.11934C13.5894 4.99592 13.5122 4.88747 13.4094 4.80738C13.3066 4.72729 13.1825 4.67907 13.0526 4.66868L9.25194 4.36668L7.60727 0.72601C7.55489 0.608751 7.4697 0.509157 7.36197 0.439248C7.25424 0.369339 7.12858 0.332102 7.00015 0.332031C6.87173 0.331961 6.74603 0.36906 6.63822 0.438851C6.53041 0.508642 6.44511 0.608142 6.3926 0.725343L4.74794 4.36668L0.94727 4.66868C0.819573 4.67879 0.697495 4.72548 0.595639 4.80316C0.493784 4.88084 0.416465 4.98622 0.372932 5.1067C0.329398 5.22717 0.321495 5.35763 0.350166 5.48248C0.378838 5.60732 0.44287 5.72127 0.534603 5.81068L3.34327 8.54868L2.34994 12.85C2.31977 12.9802 2.32944 13.1165 2.37768 13.2411C2.42592 13.3657 2.51051 13.473 2.62047 13.549C2.73043 13.6249 2.86068 13.6661 2.99433 13.6671C3.12797 13.6681 3.25883 13.629 3.36994 13.5547L6.99994 11.1347L10.6299 13.5547C10.7435 13.6301 10.8774 13.6689 11.0137 13.6659C11.15 13.6629 11.2821 13.6183 11.3922 13.538C11.5023 13.4577 11.5853 13.3456 11.6298 13.2167C11.6743 13.0879 11.6783 12.9485 11.6413 12.8173L10.4219 8.55068L13.4459 5.82934C13.6439 5.65068 13.7166 5.37201 13.6313 5.11934Z" fill="#9A9C9D"/>
</svg>
