<svg
   width="15.34816mm"
   height="22.754166mm"
   viewBox="0 0 15.34816 22.754166"
   version="1.1"
   id="svg187"
   xmlns="http://www.w3.org/2000/svg"
   svg="http://www.w3.org/2000/svg">
  <defs
     id="defs184" />
  <g
     id="layer1"
     transform="translate(-97.408549,-137.12292)">
    <g
       transform="matrix(0.26458333,0,0,0.26458333,91.853461,-116.70833)"
       id="g4">
      <path
         style="color:#000000;enable-background:accumulate"
         d="m 42.998345,959.36219 c -9.9174,0 -18,8.08255 -18,18 0,3.90626 1.1598,8.0726 3.375,11.15625 a 2.003476,2.003476 0 1 0 3.25,-2.34375 c -1.5569,-2.16721 -2.625,-5.75998 -2.625,-8.8125 0,-7.75568 6.2443,-14 14,-14 7.7557,0 14,6.24432 14,14 0,3.05252 -1.0681,6.64529 -2.625,8.8125 a 2.003476,2.003476 0 1 0 3.25,2.34375 c 2.2152,-3.08365 3.375,-7.24999 3.375,-11.15625 0,-9.91745 -8.0826,-18 -18,-18 z m 0,14 c -3.3234,0 -6,2.676 -6,6 v 36.00001 l -4,-8 c -3.277,-6.0808 -6.4998,-5.4487 -9,-4 -2.8939,1.9302 -3.9722,3.9231 -2,9 4.5397,11.1479 11.5112,24.4295 19,33 h 27 c 9.4886,-7.0305 17.1238,-40.4634 4,-42 -1.2036,0 -3.1309,0.193 -4,1 0,-4 -3.4906,-5.02492 -5,-5.00002 -1.7317,0.029 -3.0004,1.00002 -4,3.00002 0,-4.00002 -3.2624,-5.00002 -5,-5.00002 -1.9129,0 -4.1312,1.1936 -5,3.00002 v -21.00002 c 0,-3.324 -2.6766,-6 -6,-6 z"
         fill="#ffffff"
         stroke="none"
         marker="none"
         visibility="visible"
         display="inline"
         overflow="visible"
         id="path2" />
    </g>
  </g>
</svg>
