<svg width="22" height="16" viewBox="0 0 22 16" fill="none" xmlns="http://www.w3.org/2000/svg">
<path fill-rule="evenodd" clip-rule="evenodd" d="M0 4C0 1.79086 1.79086 0 4 0H18C20.2091 0 22 1.79086 22 4V12C22 14.2091 20.2091 16 18 16H4C1.79086 16 0 14.2091 0 12V4ZM11.4601 12H10.451C10.483 12 10.515 11.9986 10.5477 11.9971L10.5478 11.9971C10.5821 11.9956 10.6172 11.994 10.6541 11.994V11.988C10.5842 11.984 10.5143 11.9807 10.4444 11.9774L10.4444 11.9774C10.3046 11.9707 10.1648 11.9641 10.025 11.9521C8.36059 11.7665 6.78788 11.0063 5.58869 9.95264C5.28726 9.68924 5.00548 9.41386 4.74991 9.12053C4.61885 8.96488 4.48779 8.80923 4.36329 8.65358C4.342 8.62548 4.31985 8.597 4.29742 8.56815C4.19563 8.43722 4.08816 8.29898 4.02909 8.15671C3.957 7.9831 4.02909 7.83344 4.13393 7.68977C4.24534 7.52215 4.36984 7.36051 4.49435 7.20487C4.74336 6.89357 5.01858 6.60024 5.30691 6.32486C6.47334 5.21138 7.96086 4.40321 9.61876 4.11586C11.2832 3.82852 13.0722 4.07995 14.5597 4.82226C15.2871 5.18744 15.9489 5.64241 16.5387 6.1752C16.8401 6.44459 17.1154 6.73194 17.3709 7.03126C17.4954 7.18092 17.6199 7.33657 17.7379 7.4982C17.7969 7.58201 17.8558 7.66582 17.9083 7.74963C17.9345 7.78555 17.9541 7.82147 17.9672 7.86337C17.9722 7.87241 17.9743 7.88316 17.9765 7.894C17.9801 7.91188 17.9837 7.93002 18 7.9412V8.03099C17.8952 8.2944 17.7313 8.52188 17.5478 8.74338C17.3709 8.96488 17.1874 9.18039 16.9843 9.38393C16.27 10.1203 15.4181 10.7548 14.4614 11.2158C13.983 11.4433 13.4719 11.6229 12.9542 11.7546C12.6855 11.8204 12.4103 11.8743 12.1351 11.9102C11.9858 11.9302 11.8366 11.9409 11.6873 11.9516C11.5679 11.9602 11.4485 11.9687 11.3291 11.982C11.3684 11.982 11.4077 11.988 11.447 11.994L11.4601 12ZM11.0473 11.1978C11.1194 11.1978 11.2505 11.1918 11.375 11.1858C11.6174 11.1739 11.8599 11.1499 12.0958 11.114C13.9568 10.8267 15.5689 9.77903 16.7091 8.43209C16.7877 8.3363 16.8663 8.24052 16.9384 8.14474C16.9477 8.13198 16.9595 8.11848 16.9717 8.10449L16.9717 8.10447C16.9939 8.07905 17.0175 8.05203 17.0302 8.02501C17.0472 7.98868 17.0298 7.96584 17.0077 7.93701L16.9974 7.92324C16.8663 7.74963 16.7222 7.57602 16.5715 7.4084C16.27 7.07915 15.9489 6.76187 15.5951 6.47452C14.9004 5.90581 14.101 5.44485 13.2229 5.15152C12.3055 4.84621 11.3291 4.75043 10.3527 4.82226C9.40907 4.8941 8.4851 5.18744 7.66598 5.61846C6.87307 6.03152 6.17191 6.58826 5.57559 7.21684C5.41831 7.38446 5.2676 7.55806 5.12343 7.73167C5.07756 7.78555 5.03825 7.83942 4.99893 7.89329L4.99893 7.89331C4.99367 7.90051 4.98762 7.90795 4.98142 7.91559L4.98142 7.91559C4.95669 7.94603 4.92947 7.97953 4.93995 8.01303C4.94418 8.03622 4.97025 8.06439 4.9935 8.08951L4.9935 8.08952C5.00626 8.1033 5.01817 8.11617 5.02514 8.12678C5.04152 8.14773 5.05627 8.16719 5.07102 8.18665L5.07104 8.18668C5.08577 8.20612 5.10051 8.22557 5.11688 8.24651C5.3921 8.59372 5.70665 8.92297 6.04085 9.22828C6.7027 9.82692 7.46939 10.3298 8.32128 10.677C9.18627 11.0302 10.1037 11.1858 11.0408 11.1978H11.0473ZM9.00069 7.94773C8.97074 9.11118 9.91428 10 11.0026 10C12.0959 9.99001 12.9745 9.13116 12.9995 8.0426C13.0245 6.90911 12.1059 5.98034 10.9676 6.00032C9.88433 6.0153 9.02566 6.89413 9.00069 7.94773ZM10.9577 6.66443C11.7315 6.63947 12.3206 7.25864 12.3355 7.96271V7.9677C12.3555 8.70173 11.7814 9.31591 11.0375 9.33588C10.2787 9.35586 9.69462 8.75665 9.66467 8.05758C9.63471 7.32356 10.2138 6.68441 10.9577 6.66443Z" fill="#D9D9D9"/>
</svg>
